<?xml version="1.0" encoding="UTF-8"?>
<svg xmlns="http://www.w3.org/2000/svg" viewBox="0 0 1564 1000">
  <defs>
    <style>
      .cls-1 {
        fill: #dee0f0;
        opacity: .57;
      }

      .cls-1, .cls-2 {
        mix-blend-mode: screen;
      }

      .cls-2 {
        fill: #fff;
        opacity: .55;
      }

      .cls-3 {
        fill: #ffeaff;
      }

      .cls-4 {
        fill: #9879c5;
      }

      .cls-5 {
        fill: #9d71b1;
      }

      .cls-6 {
        fill: #bd62a1;
      }

      .cls-7 {
        fill: #d7a3cd;
      }

      .cls-8 {
        fill: #6436ab;
      }

      .cls-9 {
        fill: #e1c3d8;
      }

      .cls-9, .cls-10, .cls-11 {
        mix-blend-mode: multiply;
      }

      .cls-10 {
        fill: #eae0ef;
      }

      .cls-11 {
        fill: #976fb5;
        opacity: .5;
      }

      .cls-12 {
        isolation: isolate;
      }

      .cls-13 {
        fill: #dfa5d2;
        stroke: #bd62a1;
        stroke-miterlimit: 10;
        stroke-width: 6px;
      }
    </style>
  </defs>
  <g class="cls-12">
    <g id="_Слой_1" data-name="Слой 1">
      <path class="cls-13" d="m663.66,358.58s57.44-10.33,0-85.15c-57.44-74.82-105.57-63.13-105-121.35s89.96-60.55,65.26-30.15c-24.7,30.41,2.33,82.21,42.31,102.25,39.99,20.04,45.9,27.03,55.44,49.24,9.55,22.21,37.08,55.96,37.08,55.96,0,0-22.69,33.48-49.61,34.24-26.92.76-45.48-5.05-45.48-5.05Z"/>
      <path class="cls-3" d="m1182.38,655.89c-15.8-23.49-39.55-43.33-60.99-61.18-36.29-30.19-77.03-56.35-108.99-91.39-13.45-14.75-27.35-31.53-32.86-51.06-4.64-16.45-4.21-33.94.13-50.4,20.59-78.26,109.73-109.38,180.58-123.42,11.26-2.23,28.37-5.3,31.79-18.32.6-2.29-.47-3.66-2.36-4.81-20.77-12.68-48.84-9.27-71.69-5.68-28.61,4.49-56.28,12.45-83.26,22.91-30.79,11.94-60.58,26.02-90.55,39.85-13.4,6.18-26.91,12.22-40.7,17.5-2.65,1.02-5.22,1.83-7.74,2.53-.84-.92-2.16-1.61-4.02-1.75-8.5-.65-16.75-2.26-25-3.66-1.39-1.29-2.76-2.73-4.1-4.43-.9-1.14-3.89-.64-2.92,1.06.57,1,1.24,1.68,1.84,2.57-8.81-1.35-17.66-2.24-26.86-1.11-16.44,2.03-32.57,6.63-48.14,12.19-30.67,10.96-59.93,26.52-91.81,33.88-39.65,9.16-79.31,1.22-112.82-21.94-30.75-21.25-51.93-58.6-87.11-73.18-8.78-3.64-20.29-5.06-26.69,3.55-7.49,10.06-4.79,26.25-.15,36.87,11.64,26.65,38.19,43.78,60.19,61.17,34.03,26.89,66.61,56.91,89.16,94.38,21.37,35.52,27.72,75.04,37.1,114.7,7.98,33.72,20.56,69.77,49.22,91.49,25.42,19.26,58.17,24.42,89.3,22.06,32.26-2.45,64.26-12.83,92.51-28.45,30.91-17.08,59.07-37.31,93.45-47.41,17.53-5.15,36.02-7.65,54.23-5.41,22.58,2.78,44.16,12.6,63.95,23.37,23.16,12.61,42.94,36.73,69.02,43.25,7.33,1.83,18.28,1.32,22.45-6.2,4.22-7.59-2-17.37-6.14-23.54Z"/>
      <path class="cls-6" d="m779.1,705.33c-24.05,0-53.62-4.84-78.23-23.49-30.92-23.44-43.44-62.58-50.91-94.06-1.49-6.32-2.91-12.63-4.32-18.91-7.54-33.56-14.66-65.25-32.26-94.5-23.95-39.79-59.65-70.68-88.08-93.15-3.31-2.61-6.73-5.22-10.17-7.85-20.16-15.42-41.01-31.36-51.37-55.06-5.14-11.78-8.04-29.67.68-41.39,6.52-8.77,18.47-10.66,32.07-5.03,21.59,8.95,38.03,26.04,53.92,42.56,10.7,11.11,21.76,22.6,34.04,31.08,32.5,22.47,71.31,30.01,109.21,21.25,20.07-4.64,39.57-12.79,58.42-20.66,10.7-4.47,21.77-9.1,32.89-13.08,18.57-6.64,34.18-10.57,49.12-12.42,7.49-.93,14.75-.54,21.3.2.41-.9,1.08-1.7,1.98-2.3,2.47-1.65,6.57-1.54,8.77,1.27.88,1.11,1.77,2.09,2.68,2.99l2.71.46c6.7,1.17,13.62,2.38,20.5,2.91,1.89.14,3.38.66,4.56,1.29,1.71-.51,3.45-1.1,5.23-1.77,14.4-5.54,28.51-11.9,40.41-17.39l10.76-4.98c25.97-12.01,52.81-24.43,80.06-34.99,29.01-11.24,56.54-18.82,84.19-23.16,24.82-3.89,53.08-6.93,74.76,6.29,5.24,3.18,5,7.54,4.39,9.84-4.05,15.42-22.33,19.05-34.42,21.43-102.7,20.36-162.28,60.76-177.95,120.3-4.32,16.43-4.38,33.03-.15,48.02,5.15,18.23,18.35,34.43,31.86,49.23,21.36,23.42,47.25,43.25,72.29,62.42,12.02,9.21,24.46,18.73,36.24,28.54,21.35,17.76,45.56,37.91,61.85,62.13h0c3.92,5.84,12.07,17.98,6.35,28.28-5.13,9.26-17.54,10.88-27.53,8.39-16.94-4.23-31.12-15.29-44.84-25.99-8.55-6.68-16.63-12.98-25.25-17.67-16.78-9.14-39.02-20-62.33-22.87-16.17-1.98-33.78-.2-52.39,5.26-25.01,7.35-46.39,20.01-69.01,33.4-7.76,4.61-15.55,9.22-23.53,13.62-29.96,16.56-62.59,26.59-94.36,29-4.42.34-9.17.54-14.15.54Zm-297.26-427.6c-3.75,0-7.53,1.11-10.11,4.59-5.99,8.05-4.14,22.05.37,32.35,9.4,21.55,29.31,36.77,48.56,51.48,3.49,2.67,6.93,5.3,10.28,7.95,29.03,22.94,65.53,54.54,90.23,95.59,18.36,30.5,25.97,64.39,33.33,97.18,1.41,6.25,2.82,12.53,4.31,18.81,7.11,30.01,18.93,67.24,47.55,88.92,27.44,20.81,62.03,22.97,86.21,21.15,30.5-2.31,61.85-11.97,90.67-27.89,7.9-4.37,15.61-8.93,23.29-13.49,22.11-13.1,44.97-26.65,71.07-34.32,19.82-5.81,38.66-7.69,56.07-5.55,24.84,3.06,48.08,14.38,65.56,23.89,9.27,5.05,18.03,11.88,26.49,18.49,12.97,10.11,26.38,20.57,41.45,24.35,5.37,1.31,14.41,1.36,17.39-4,3.03-5.45-3.02-14.47-5.94-18.81h0c-15.58-23.14-39.25-42.84-60.13-60.22-11.65-9.69-24.01-19.16-35.96-28.31-25.36-19.42-51.58-39.49-73.48-63.52-14.26-15.62-28.22-32.84-33.89-52.88-4.66-16.53-4.62-34.79.11-52.8,16.62-63.16,78.56-105.8,184.09-126.71,11.33-2.25,25.67-5.09,28.27-15.01-19.39-11.43-45.76-8.5-68.96-4.86-27,4.25-53.93,11.65-82.32,22.67-26.97,10.45-53.7,22.81-79.53,34.77l-10.77,4.98c-12.03,5.56-26.3,12-40.96,17.62-2.81,1.08-5.51,1.93-8.16,2.67-1.65.43-3.39-.06-4.54-1.3-.09-.09-.4-.26-1.04-.31-7.31-.56-14.46-1.81-21.36-3.02l-4.04-.7c-.87-.14-1.68-.54-2.33-1.14-.02-.02-.04-.04-.06-.07-.82.42-1.77.61-2.73.43-7.97-1.21-16.58-2.2-25.61-1.1-14.26,1.76-29.25,5.57-47.18,11.97-10.9,3.89-21.85,8.47-32.45,12.9-19.2,8.02-39.05,16.33-59.87,21.13-40.47,9.34-81.79,1.31-116.43-22.62-13.01-8.99-24.4-20.82-35.4-32.25-15.26-15.85-31.03-32.25-50.87-40.47-2.45-1.01-6.82-2.52-11.2-2.52Z"/>
      <path class="cls-9" d="m1188.52,679.43c1.06-1.91,1.46-3.96,1.4-6.06-.29-.06-.61-.09-.9-.15-8.16-1.64-16.3-4.39-23.6-8.41-5.3-2.92-9.03-6.7-13.2-10.97-10.6-10.84-21.43-21.48-30.93-33.33-8.77-10.94-18.41-24.32-19.5-38.8-.07-.92.04-1.76.05-2.65-30.85-24.03-63.1-46.88-89.43-75.75-13.45-14.75-27.35-31.53-32.86-51.06-4.64-16.45-4.21-33.94.13-50.4,20.59-78.26,109.73-109.38,180.58-123.42,11.26-2.23,28.37-5.3,31.79-18.32.6-2.29-.47-3.66-2.36-4.81-.2-.12-.41-.19-.61-.3-8.46,4.5-20.3,5.11-28.58,5.7-12.9.92-26.01-.17-38.85,1.19-22.91,2.43-45.85,10.33-66.84,19.53-20.1,8.81-38.68,20.68-59.07,28.84-17.23,6.9-35.86,11.79-54.56,10.52-3.97-.27-7.81-.95-11.55-1.85-8.64,3.84-17.33,7.58-26.15,10.96-2.65,1.02-5.22,1.83-7.74,2.53-.84-.92-2.16-1.61-4.02-1.75-8.5-.65-16.75-2.26-25-3.66-1.39-1.29-2.76-2.73-4.1-4.43-.9-1.14-3.89-.64-2.92,1.06.57,1,1.24,1.68,1.84,2.57-8.81-1.35-17.66-2.25-26.86-1.11-16.44,2.03-32.57,6.63-48.14,12.19-30.67,10.96-59.93,26.52-91.81,33.88-39.65,9.16-79.31,1.22-112.82-21.94-29.93-20.68-50.83-56.55-84.36-71.9,9.81,10.34,19.25,21.03,28.44,31.91,8.64,10.22,17.88,20.24,25.83,31,9.24,12.51,18.04,28.01,14.72,44.15-1.39,6.76-4.52,12.82-8.54,18.38,22.71,20.43,43.49,42.98,59.29,69.24,21.37,35.52,27.72,75.04,37.1,114.7,7.98,33.72,20.56,69.77,49.22,91.49,25.42,19.26,58.17,24.42,89.3,22.06,32.26-2.45,64.26-12.83,92.51-28.45,30.91-17.08,59.07-37.31,93.45-47.41,17.53-5.15,36.02-7.65,54.24-5.41,22.58,2.78,44.16,12.6,63.94,23.38,23.16,12.61,42.94,36.73,69.02,43.25,7.33,1.83,18.28,1.32,22.45-6.2Z"/>
      <path class="cls-7" d="m1139.61,767.01c-5.78-20.08-19.5-39.26-33.75-55.19-22.95-25.65-49.95-52.16-52.66-86.48-3.26-41.34,31.33-77,69.27-93.75,37.94-16.75,80.28-20.56,119.51-33.99,11.09-3.8,24.24-14.43,18.17-24.46-4.2-6.94-14.27-6.5-22.24-4.99-35.84,6.79-73.64,18.11-110.24,10.11-55.22-12.07-62.22-67.11-102.2-97.56-28.27-21.53-62.87-33.42-96.19-44.61-19.97-6.71-40.46-13.71-56.55-27.31-26.61-22.51-35.8-60.23-33.48-93.79,2.56-37,17.45-72.36,32.28-105.89,3.59-8.12,9.04-27.85-.55-34.34-11.29-7.64-26.48,9.68-33.89,17.52-22.78,24.1-34.38,57.3-41.53,89.06-9.79,43.51-13.94,89.61-36.82,127.89-7.51,12.56-17.3,24.3-30.37,30.88-10.73,5.39-22.88,6.97-34.59,9.65-38.67,8.87-74.16,31.02-99.13,61.85-7.78,9.62-14.75,20.22-24.82,27.41-15.01,10.73-34.48,12.27-52.86,13.89-80.25,7.06-164.27,24.66-223.75,78.99-9.71,8.87-18.74,24.6-9.32,33.77,8.24,8.03,21.81,2.06,31.8-3.64,48.62-27.7,105.12-41.37,161.02-38.96,27.5,1.18,56.37,6.91,76.87,25.27,16.71,14.97,25.79,36.44,34.37,57.18,11.02,26.65,22.04,53.29,33.06,79.94,2.64,6.37,5.33,13.17,4.18,19.97-1.1,6.51-5.53,11.9-9.86,16.89-46,53.04-100.43,103.78-118.43,171.64-1.75,6.59-2.88,14.39,1.55,19.58,8.17,9.6,23.53.28,31.73-9.28,36.48-42.52,63.73-92.92,104.39-131.47,9.91-9.4,21.66-18.46,35.31-18.89,8.93-.28,17.49,3.21,25.74,6.64,29.67,12.32,59.33,24.64,89,36.97,12.98,5.39,26.25,10.97,36.54,20.54,31.87,29.68,22.19,80.83,21.33,124.37-.07,3.62.22,7.82,3.17,9.91,3.48,2.46,8.3.41,11.82-1.99,29.87-20.31,39.59-61.33,33.32-96.9-2.99-16.99-8.84-35.31-1.07-50.7,3.97-7.86,11-13.67,17.82-19.23,18.26-14.89,36.53-29.78,54.79-44.66,9.14-7.45,18.7-15.12,30.16-17.89,18.86-4.57,38.2,5.1,53.82,16.61,22.97,16.94,42.43,38.62,56.8,63.29,5.31,9.13,12.97,20.21,23.31,18.11,6.76-1.38,11-8.15,13.15-14.7,4.08-12.39,3.51-24.99-.02-37.24Z"/>
      <path class="cls-6" d="m849.34,957.99c-2.31,0-4.42-.65-6.27-1.96-5.28-3.74-5.14-10.71-5.08-13.7.14-7.56.55-15.34.98-23.22,1.94-36.68,3.95-74.62-20.87-97.74-9.83-9.16-22.72-14.5-35.19-19.67l-88.99-36.97c-7.4-3.07-15.72-6.56-23.86-6.3-12.59.4-23.89,9.64-32.32,17.65-23.91,22.66-43.58,50.12-62.61,76.67-13.07,18.24-26.59,37.11-41.47,54.46-5.89,6.88-16.34,14.9-26.36,14.9h-.03c-4.88-.01-9.12-1.96-12.24-5.63-5.99-7.05-4.28-16.9-2.47-23.7,15.24-57.48,56.13-102.88,95.67-146.78,8-8.89,15.97-17.74,23.71-26.66,4.31-4.96,7.95-9.5,8.82-14.67.89-5.29-1.15-10.81-3.91-17.47l-33.06-79.94c-7.94-19.19-16.93-40.94-33.2-55.52-16.51-14.8-40.74-22.68-74.03-24.13-54.74-2.39-111.03,11.28-158.59,38.38-6.28,3.57-25.36,14.46-37.22,2.94-3.58-3.48-5.42-8.03-5.34-13.17.15-10.25,7.73-20.77,14.76-27.21,65.44-59.76,160.56-74.37,226.41-80.16,18.61-1.63,36.88-3.22,50.61-13.06,7.35-5.25,12.96-12.48,18.89-20.15,1.67-2.15,3.35-4.31,5.05-6.42,25.71-31.76,61.81-54.28,101.64-63.42,2.67-.62,5.34-1.17,8.03-1.72,9.13-1.88,17.74-3.65,25.53-7.56,10.66-5.36,19.99-14.89,28.52-29.15,17.14-28.7,23.69-62.8,30.03-95.77,1.98-10.32,3.96-20.63,6.25-30.8,9.28-41.24,22.84-70.21,42.65-91.18l1.27-1.35c8.61-9.16,24.61-26.16,38.47-16.81,12.08,8.18,6.69,29.7,2.16,39.93-15.41,34.88-29.46,69.11-31.9,104.38-2.59,37.29,9.32,70.94,31.88,90,15.66,13.25,36.59,20.28,55.06,26.48,31.85,10.69,67.94,22.8,97.49,45.3,16.22,12.36,27.12,28.46,37.65,44.03,15.91,23.53,30.93,45.75,62.79,52.71,29.12,6.35,59.62-.02,89.08-6.2,6.49-1.36,12.94-2.72,19.34-3.93,13.45-2.58,22.54-.19,26.96,7.1,2.41,3.99,2.84,8.43,1.24,12.86-3.09,8.49-13.18,15.27-21.82,18.23-16.92,5.79-34.58,9.86-51.67,13.79-22.65,5.21-46.09,10.6-67.48,20.05-35.41,15.63-69.73,49.29-66.58,89.23,2.33,29.55,23.99,53.42,44.93,76.52l6.58,7.29c17.94,20.06,29.63,39.23,34.74,56.97h0c4.06,14.08,4.05,27.51-.03,39.9-1.89,5.76-6.55,15.7-16.55,17.74-14.51,3.01-24.09-13.31-28.14-20.27-14.01-24.04-33.22-45.44-55.58-61.92-18.95-13.97-35.79-19.29-50.06-15.86-10.71,2.6-20.08,10.25-28.36,17.01l-54.79,44.66c-6.42,5.24-13.05,10.66-16.63,17.75-5.78,11.44-2.94,25.56-.2,39.21.58,2.91,1.17,5.81,1.67,8.67,6.07,34.44-2.46,79.15-35.23,101.45-3.82,2.58-7.47,3.89-10.74,3.89Zm-178.41-208.64c9.61,0,18.55,3.71,26.48,6.99l88.99,36.97c12.58,5.22,26.86,11.14,37.89,21.41,27.92,26.01,25.79,66.1,23.74,104.86-.42,7.76-.82,15.46-.97,22.92-.06,3.41.36,5.47,1.26,6.11,1.05.72,3.71-.05,6.66-2.03,29.4-20.01,36.95-60.81,31.38-92.36-.49-2.79-1.06-5.61-1.63-8.45-3.05-15.17-6.2-30.85,1-45.09,4.45-8.82,12.17-15.13,18.99-20.7l54.79-44.66c9.02-7.36,19.26-15.71,31.97-18.79,17.02-4.13,36.38,1.74,57.58,17.37,23.34,17.2,43.4,39.56,58.02,64.65,4.78,8.21,11.36,17.47,18.49,15.94,5.72-1.16,8.72-8.55,9.75-11.67,3.48-10.64,3.46-22.26-.07-34.57h0c-4.73-16.41-15.76-34.39-32.79-53.42l-6.54-7.25c-21.97-24.22-44.67-49.27-47.25-81.89-3.51-44.39,33.62-81.33,71.95-98.26,22.18-9.79,46.05-15.28,69.13-20.59,16.85-3.88,34.28-7.89,50.76-13.54,7.55-2.59,14.52-8.06,16.22-12.74.66-1.83.51-3.44-.47-5.07-2.8-4.59-11.05-4.11-17.51-2.87-6.34,1.2-12.74,2.54-19.18,3.89-30.38,6.39-61.81,12.99-92.88,6.19-35.4-7.73-52.16-32.52-68.37-56.49-10.11-14.96-20.57-30.44-35.62-41.89-28.37-21.59-63.71-33.44-94.89-43.9-19.24-6.47-41.04-13.79-58.04-28.16-24.74-20.92-37.85-57.4-35.06-97.57,2.54-36.73,16.89-71.77,32.64-107.42,4.22-9.51,6.92-24.78,1.07-28.75-7.47-5.04-20.49,8.83-26.76,15.51l-1.3,1.38c-18.64,19.73-31.49,47.36-40.39,86.93-2.26,10.08-4.22,20.3-6.19,30.52-6.48,33.75-13.19,68.65-31.15,98.71-9.45,15.79-20,26.44-32.23,32.59-8.85,4.46-18.47,6.44-27.77,8.35-2.63.54-5.24,1.09-7.84,1.67-37.86,8.69-72.18,30.1-96.62,60.29-1.67,2.06-3.29,4.16-4.92,6.27-6.07,7.85-12.36,15.96-20.79,21.98-15.75,11.27-35.27,12.98-54.15,14.64-65.49,5.75-158.63,20-222.03,77.9-5.79,5.3-11.7,13.74-11.8,20.64-.04,2.64.81,4.78,2.61,6.52,4.68,4.53,13.3,3.13,26.39-4.33,49.02-27.94,106.99-42.07,163.47-39.56,35.49,1.54,61.56,10.18,79.7,26.43,17.81,15.97,27.23,38.74,35.54,58.83l33.06,79.94c2.61,6.31,5.87,14.18,4.46,22.46-1.26,7.48-5.88,13.3-10.91,19.09-7.77,8.96-15.79,17.87-23.82,26.79-38.82,43.1-78.96,87.68-93.63,143.04-2.04,7.68-1.85,12.6.6,15.48,1.42,1.66,3.12,2.44,5.35,2.44h.01c6.18,0,14.46-5.9,19.47-11.73,14.62-17.04,28.02-35.75,40.98-53.83,19.27-26.9,39.21-54.72,63.73-77.97,9.61-9.12,22.63-19.64,38.3-20.13.38-.02.77-.02,1.15-.02Z"/>
      <path class="cls-10" d="m581.58,550.72c-10.2-18.99-26.18-34.93-45.92-43.81-20.1-9.05-42.65-9.97-64.31-7.98-21.43,1.97-42.4,6.98-63.37,11.6-16.68,3.67-32.09,11.22-47.77,17.78-14.87,6.22-30.97,12.89-47.39,12.39-6.74-.21-14.6-.85-19.85-5.61-.53-.48-.83-1.08-1.26-1.61-9.06,9.05-16.68,23.53-7.77,32.2,8.24,8.03,21.81,2.06,31.8-3.64,48.62-27.69,105.12-41.37,161.02-38.96,27.5,1.18,56.37,6.91,76.87,25.27,16.71,14.97,25.79,36.44,34.37,57.18,2.25,5.44,4.5,10.89,6.75,16.33-.34-24.47-1.15-48.75-13.17-71.13Z"/>
      <path class="cls-10" d="m784.14,781.31c-16.05-17.37-35.57-32.01-56.51-42.95-16.58-8.66-35.02-15.9-53.87-17.17-17.92-1.21-34.05,8.63-47.01,20.04-27.82,24.5-44.77,58.23-69.85,85.1-9.36,10.03-18.76,20.14-29.38,28.86-5.91,4.86-13.73,10.84-21.95,13.51-3.4,8.17-6.32,16.56-8.62,25.25-1.75,6.59-2.88,14.39,1.55,19.58,8.17,9.6,23.53.28,31.73-9.28,36.48-42.52,63.73-92.92,104.39-131.47,9.91-9.4,21.66-18.46,35.31-18.89,8.93-.28,17.49,3.21,25.74,6.64l89,36.96c6.13,2.55,12.31,5.17,18.22,8.2-5.39-8.78-11.87-16.95-18.74-24.39Z"/>
      <path class="cls-10" d="m890.84,853.44c-2.99-16.99-8.84-35.31-1.07-50.7,3.97-7.86,11-13.67,17.82-19.23,18.26-14.89,36.53-29.78,54.79-44.66,9.14-7.45,18.7-15.12,30.16-17.89,15.57-3.77,31.43,2.2,45.29,10.86-6.18-8.27-13.45-15.76-21.04-22.22-16.31-13.88-37.13-26.19-58.97-27.79-17.7-1.3-36.15,6.55-51.17,15.14-16.71,9.57-32.33,22.11-44.09,37.45-10.61,13.86-16.22,29.9-14.35,47.45,1.94,18.27,9.66,35.33,15.66,52.51,5.99,17.14,10.3,34.54,8.51,52.81-1.29,13.2-7.53,25.81-15.65,36.15-3.9,4.96-8.64,9.88-14.05,13.73-.06,1.8-.13,3.6-.16,5.37-.07,3.62.22,7.82,3.17,9.91,3.48,2.46,8.29.41,11.82-1.99,29.87-20.31,39.59-61.33,33.32-96.9Z"/>
      <path class="cls-10" d="m835.7,187.55c-11.98,28.31-22.81,59.97-22.89,91.02-.06,23.1,6.65,45.85,24.56,61.35,17.19,14.87,39.95,21.98,61.68,27.14,26.85,6.38,53.78,10.38,79.16,21.86,23.54,10.65,44.02,26.27,63.36,43.19,19.57,17.13,36.94,35.76,62.55,43.52,11.03,3.34,22.2,4.56,33.3,4.16-3.25-.42-6.51-.81-9.74-1.51-55.22-12.07-62.22-67.11-102.2-97.56-28.27-21.53-62.87-33.42-96.19-44.61-19.97-6.71-40.46-13.71-56.55-27.31-26.61-22.51-35.8-60.23-33.48-93.79,1.65-23.86,8.46-47.03,17.04-69.48-7.27,13.8-14.51,27.63-20.6,42.04Z"/>
      <path class="cls-10" d="m569.86,439.02c-3.5,2.51-7.27,4.47-11.19,6.09,7.59,1.58,15.12,1.64,22.63-2.52,6.92-3.84,12.4-9.84,18.13-15.2,5.69-5.33,11.46-10.59,17.5-15.52,10.62-8.65,22.26-16.08,35.11-20.96,15.22-5.78,30.91-6.95,46.8-9.55,16.19-2.65,32.34-7.81,45.49-17.9,26.48-20.32,30.9-53.88,29.15-85.02-.02-.38-.06-.76-.08-1.15-3.89,11.06-8.58,21.79-14.65,31.94-7.51,12.56-17.3,24.3-30.37,30.88-10.73,5.39-22.88,6.97-34.59,9.65-38.67,8.87-74.16,31.02-99.13,61.85-7.78,9.62-14.75,20.22-24.82,27.41Z"/>
      <path class="cls-10" d="m1139.63,804.25c4.08-12.39,3.51-24.99-.02-37.24-5.78-20.08-19.5-39.26-33.75-55.19-22.95-25.65-49.95-52.16-52.66-86.48-3.26-41.34,31.33-77,69.27-93.75,3.65-1.61,7.37-3.01,11.09-4.4-13.94-1.24-27.86-2.71-41.81-3.88-26.55-2.23-53.48-2.08-77.5,11.13-21.63,11.89-35.3,33.67-29.19,58.66,4.28,17.51,15.1,30.8,27.51,42.98,12.72,12.5,25.82,24.62,38.59,37.08,15.08,14.72,29.9,29.76,43.62,45.77,12.26,14.31,24.11,29.57,32.21,46.69,5.76,12.17,9.95,27.09,4.33,40.09-2.31,5.36-5.95,9.59-10.3,13.01,1.75.42,3.55.61,5.48.22,6.76-1.38,11-8.15,13.15-14.7Z"/>
      <path class="cls-1" d="m782.36,315.54c4.56-18.1,9.91-35.92,13.45-54.28,4.19-21.76,8.31-43.4,14.51-64.71,5.67-19.48,11.58-39.02,18.37-58.15,6.62-18.67,15.51-39.51,32.28-51.3,1.19-.84-.52-2-1.47-1.54-15.2,7.27-24.84,21.8-32.59,36.24-9.28,17.29-15.93,35.94-22.09,54.52-6.79,20.47-12.44,41.31-14.99,62.76-2.37,19.91-4.88,39.93-6.56,59.9-1.69,20.11-8.61,45.24-25.71,57.74-1.63,1.19.98,2.73,2.21,1.8,13.67-10.33,18.59-27.07,22.6-42.99Z"/>
      <path class="cls-1" d="m639.87,412.5c-13.1,7.97-26.71,15.06-38.23,25.31-10.48,9.33-22.69,17.66-36.5,21.09-5.24,1.3-2.77,6.67,1.9,5.94,14.48-2.3,27.07-10.17,37.87-19.8,5.88-5.25,11.57-10.58,17.7-15.55,6.4-5.18,13.06-10.04,19.52-15.14,1.67-1.31-.97-2.62-2.26-1.84Z"/>
      <path class="cls-1" d="m639.22,706.83c4.86-7.42,7.08-15.49,6.02-24.36-1.96-16.35-11.04-30.74-13.85-46.93-.18-1.03-2.58-1.01-2.52.11.87,15.14,6.71,29.55,7.42,44.74.38,8.1-.88,15.73-4.63,22.99-2.14,4.14-4.65,8.11-7.42,11.86-2.51,3.4-5.79,6.77-7.55,10.62-.93,2.05,2.76,2.96,3.99,1.95,3.43-2.83,6.33-6.46,9.31-9.76,3.27-3.6,6.56-7.16,9.23-11.23Z"/>
      <path class="cls-1" d="m854.93,877.21c-1.31-6.66-3.19-13.2-4.33-19.91-1.06-6.21-1.69-12.48-2.93-18.66-2.55-12.8-7.07-24.96-15.41-35.15-9.71-11.86-21.91-22.39-34.54-31.01-13.38-9.14-28.92-16.64-40.23-28.39-.8-.83-3.36-.09-2.41,1.19,9.06,12.1,20.52,20.4,32.67,29.18,12.61,9.12,24.6,19.71,34.71,31.56,8.73,10.23,14.33,21.59,18.02,34.49,3.5,12.25,4.99,25.61,9.88,37.37.81,1.94,5.04,1.83,4.56-.67Z"/>
      <path class="cls-1" d="m959.28,661.08c-16.11-3.33-32.09-2.19-47.51,3.77-7.56,2.92-15.23,6.88-21.46,12.11-6.13,5.14-10.71,11.7-14.56,18.65-1.41,2.54,3.85,3.58,5.22,1.91,4.72-5.77,10.42-10.43,16.43-14.8,6.04-4.4,12.05-8.5,18.9-11.57,12.96-5.82,28.16-9.23,42.4-7.67,1.71.19,2.49-2.01.58-2.41Z"/>
      <path class="cls-1" d="m1041.29,503.53c2.28-.14,1.69-2.87-.38-2.91-16.88-.32-34.01,2.45-48.11,12.33-15.46,10.84-24.48,27.77-28.69,45.89-.57,2.45,4.11,2.63,5.22,1.32,5.37-6.34,9.07-13.88,13.47-20.88,4.68-7.45,9.97-14.32,16.88-19.85,11.91-9.54,26.42-14.96,41.61-15.89Z"/>
      <path class="cls-1" d="m531.26,360.39c-8.9-11.98-20.96-21.26-30.78-32.45-9.74-11.1-19.77-22.95-19.44-38.5.03-1.43-2.44-1.8-3.2-.81-10.28,13.53,1.82,31.25,11.47,41.27,11.56,12,25.51,21.2,37.48,32.7,1.51,1.45,6.26.2,4.47-2.21Z"/>
      <path class="cls-1" d="m1222.47,479.73c-9.82-1.9-19.15,1.69-28.61,3.97-11.85,2.86-24.1,2.35-36.2,2.09-10.77-.23-21.57-.65-32.26-2.02-11.76-1.51-23.37-4.43-34.96-6.88-2.51-.53-6.1,2.38-2.59,3.97,20.87,9.5,44.05,12.22,66.8,12.64,12.15.23,24.23.21,36.1-2.78,10.61-2.68,20.57-8,31.61-8.89,1.38-.11,1.47-1.83.11-2.09Z"/>
      <path class="cls-1" d="m600.67,554.08c.34-2.72-1.29-5.61-2.38-8.05-1.13-2.54-2.33-5.03-3.6-7.5-2.55-4.96-5.69-9.63-8.48-14.45-.78-1.35-4.51-.79-3.68.92,1.22,2.53,2.3,5.04,3.1,7.73.74,2.51,1.42,5.02,2.24,7.5.83,2.51,1.71,4.98,2.63,7.45,1.05,2.81,2.09,5.78,4.35,7.82,1.61,1.46,5.52,1.1,5.83-1.43Z"/>
      <path class="cls-1" d="m870.53,369.65c-4.85-3.94-10.6-6.24-16.29-8.68-5.77-2.47-11.25-5.25-15.71-9.74-1.38-1.39-5.54-.27-4.06,2.01,1.72,2.64,3.8,4.93,6,7.18,2.27,2.31,4.88,4,7.67,5.63,5.5,3.21,11.44,5.57,17.35,7.89,1.65.65,3.74.8,5.16-.47,1.22-1.1,1.21-2.73-.11-3.81Z"/>
      <g>
        <path class="cls-5" d="m828.54,607.61c7.85-9.64,13.95-21.36,17.35-34.94,6.23-24.86,8.79-53.92,3.4-79.51-2.72-12.94-8.48-25.27-17.29-31.7-7.42-5.41-16.66-6.1-24.49-1.84-8.07,4.4-14.21,13.47-19.21,23.04-12.05,23.07-23.65,50.61-48.3,46.22-14.26-2.54-27.11-13.9-41.81-13.15-11.73.59-22.91,9.28-21.91,26.59.99,16.99,9.99,32.9,17.67,45.69,6.85,11.41,14.52,23.01,23.45,31.6,32.96,31.68,81.82,23.99,111.12-11.99Z"/>
        <path class="cls-11" d="m845.89,572.67c6.23-24.86,8.79-53.92,3.4-79.51-2.72-12.94-8.48-25.27-17.29-31.7-7.42-5.41-16.66-6.1-24.49-1.84-8.07,4.4-14.21,13.47-19.21,23.03-12.05,23.07-23.65,50.61-48.3,46.22-14.26-2.54-27.11-13.9-41.81-13.15-11.73.59-22.91,9.28-21.91,26.59.99,16.99,9.99,32.9,17.67,45.69,6.85,11.41,14.52,23.01,23.45,31.6,32.96,31.68,81.82,23.99,111.12-11.99,7.85-9.64,13.95-21.36,17.35-34.94Z"/>
        <path class="cls-4" d="m774.38,608.84c-20.61,3.58-41.16-8.33-58.03-23.18-6.37-5.61-12.11-12.16-17.33-19.61-2.78-3.97-5.38-8.18-7.54-12.8-1.83-3.92-3.44-8.36-3.68-13.04-.21-4.19.9-8.55,3.36-11.28,2.53-2.8,5.94-3.51,9.13-3.54,7.23-.07,14.14,3.22,21.11,5.34,5.54,1.68,10.91,3.52,16.59,4.22,6.05.75,12.14.61,18.18-.3,4.43-.68,8.57-2.44,12.24-5.91,3.47-3.27,6.33-7.5,8.87-12.02,7.03-12.49,12.74-29.22,22.25-38.54.4-.61.79-1.25,1.21-1.84,2.92-4.17,6.44-8.45,10.68-9.89,11.58-3.92,15.48,19.99,16.69,30.38,2.82,24.28-1.55,50.01-10.83,71.04-9.28,21.02-24.43,37.77-42.9,40.98Z"/>
        <path class="cls-8" d="m845.89,572.67c1.46-5.82,2.71-11.88,3.71-18.07-4.2,14.13-10.56,27.19-18.32,37.91-16,22.12-37.99,36.03-61.09,36.7-11.6.33-23.22-2.75-33.91-8.79-6.86-3.88-13.2-9.16-19.21-15.04-6.73-6.59-13.08-13.96-18.79-22.1-5.51-7.85-10.61-16.61-13.95-26.47-2.77-8.18-4.26-17.46-2.35-26.27.94-4.31,2.64-8.04,4.79-11.3-6.54,4.08-11.14,11.7-10.48,23.06.99,16.99,9.99,32.9,17.67,45.69,6.85,11.41,14.52,23.01,23.45,31.6,32.96,31.68,81.82,23.99,111.12-11.99,7.85-9.64,13.95-21.36,17.35-34.94Z"/>
        <path class="cls-2" d="m807.65,529.02c3.25-7.84,5.24-16.64,5.7-25.78.2-3.99.06-8.15-1.29-11.71-3.5-9.19-11.83-9.27-16.82-2.5-6.83,9.27-8.63,23.6-14.65,33.88-4.48,7.65-10.46,13.72-17.17,17.39-7.1,3.88-14.24,1.16-21.59,3.02-1.25.32-2.62.86-3.26,2.33-.9,2.07.17,4.72,1.49,6.33,2.17,2.65,5.02,4.06,7.84,5.15,13.12,5.08,28.51,5.2,40.85-3.37,8.08-5.61,14.6-14.33,18.91-24.74Z"/>
      </g>
      <g>
        <path class="cls-5" d="m843.52,418.72c-12.37,1.27-24.97,5.24-36.98,12.43-21.98,13.18-44.34,31.91-58.63,53.82-7.22,11.07-11.88,23.86-10.19,34.64,1.42,9.07,7.47,16.1,16.01,18.62,8.82,2.6,19.57.53,29.87-2.7,24.83-7.79,52.51-19.06,66.83,1.48,8.29,11.88,9.35,29,20.26,38.86,8.72,7.88,22.76,9.64,34.29-3.31,11.31-12.72,16.19-30.33,19.81-44.81,3.23-12.91,6.01-26.54,5.76-38.93-.91-45.71-40.89-74.82-87.06-70.09Z"/>
        <path class="cls-11" d="m806.54,431.15c-21.98,13.18-44.34,31.91-58.63,53.82-7.22,11.07-11.88,23.86-10.19,34.64,1.42,9.07,7.47,16.1,16.01,18.62,8.82,2.6,19.57.53,29.87-2.7,24.83-7.79,52.51-19.06,66.83,1.47,8.29,11.88,9.35,29,20.26,38.86,8.72,7.88,22.76,9.64,34.29-3.32,11.31-12.71,16.19-30.33,19.81-44.81,3.23-12.91,6.01-26.54,5.76-38.93-.91-45.71-40.89-74.82-87.06-70.09-12.37,1.27-24.97,5.24-36.98,12.43Z"/>
        <path class="cls-4" d="m882.68,456.14c17.1,12.04,23.21,34.99,24.64,57.43.54,8.47-.04,17.17-1.61,26.12-.84,4.77-1.98,9.59-3.72,14.38-1.48,4.07-3.47,8.34-6.62,11.82-2.82,3.11-6.68,5.42-10.35,5.6-3.77.19-6.68-1.72-8.96-3.95-5.16-5.06-7.72-12.28-11.15-18.7-2.73-5.1-5.23-10.21-8.75-14.72-3.75-4.81-8.15-9.02-13.07-12.64-3.61-2.66-7.78-4.33-12.83-4.48-4.76-.14-9.78.83-14.77,2.23-13.8,3.86-29.67,11.65-42.98,11.52-.72.15-1.44.32-2.16.45-5.01.89-10.53,1.43-14.55-.56-10.96-5.41,3.19-25.08,9.68-33.28,15.17-19.16,36.45-34.27,57.89-42.58,21.43-8.3,43.98-9.44,59.31,1.36Z"/>
        <path class="cls-8" d="m806.54,431.15c-5.15,3.09-10.32,6.49-15.4,10.16,12.96-7.03,26.69-11.76,39.76-13.86,26.95-4.33,52.34,1.39,69.15,17.25,8.44,7.97,14.48,18.37,17.76,30.19,2.11,7.6,2.86,15.81,2.95,24.21.1,9.42-.62,19.12-2.34,28.92-1.65,9.44-4.24,19.25-8.85,28.58-3.82,7.74-9.34,15.36-16.92,20.24-3.71,2.39-7.55,3.81-11.37,4.6,7.51,1.74,16.15-.4,23.71-8.9,11.31-12.71,16.19-30.33,19.81-44.81,3.23-12.91,6.01-26.54,5.76-38.93-.91-45.71-40.89-74.82-87.06-70.09-12.37,1.27-24.97,5.24-36.98,12.43Z"/>
        <path class="cls-2" d="m802.71,489.06c-7.84,3.25-15.47,8.06-22.26,14.2-2.96,2.68-5.81,5.72-7.37,9.19-4.02,8.98,1.81,14.92,10.12,13.66,11.39-1.72,22.79-10.58,34.32-13.6,8.57-2.24,17.09-2.31,24.44-.15,7.76,2.28,10.89,9.25,17.4,13.12,1.11.66,2.46,1.25,3.95.66,2.1-.83,3.22-3.45,3.42-5.53.33-3.41-.68-6.42-1.9-9.19-5.68-12.87-16.48-23.84-31.26-26.5-9.68-1.74-20.46-.19-30.86,4.12Z"/>
      </g>
    </g>
  </g>
</svg>