<?xml version="1.0" encoding="UTF-8"?>
<svg id="_Слой_1" data-name="Слой 1" xmlns="http://www.w3.org/2000/svg" viewBox="0 0 1000 1000">
  <defs>
    <style>
      .cls-1 {
        fill: #e9f3fe;
      }

      .cls-2 {
        fill: #9879c5;
      }

      .cls-3 {
        fill: #a198c1;
      }

      .cls-4 {
        fill: #c39fcf;
      }

      .cls-5 {
        fill: #d4cde9;
      }

      .cls-6 {
        fill: #d3cee6;
      }

      .cls-7 {
        fill: #6436ab;
      }
    </style>
  </defs>
  <path class="cls-1" d="m81.13,516.32c1.68,1.41,1.61,2.7-.28,3.86-1.78-1.42-1.55-2.7.28-3.86Z"/>
  <path class="cls-5" d="m342.48,641.76c-2.47,7.47-8.93,11.23-15.22,8.41-10.56-4.73-21.79-6.54-33.04-8.39-1.61-.26-3.52-.54-4.65-1.54-12.6-11.07-27.52-18.91-40.28-29.94-17.76-15.34-37.2-28.49-61.39-32.35-8.44-1.35-16.73-3.87-24.97-6.27-5.01-1.46-3.95-7.24-6.5-10.58-5.29-6.95-9.31-14.73-11.03-23.19-3.55-17.45-1.69-34.95,4.93-51.19,4-9.81,1.68-18.41-1.01-26.85-4.67-14.69-5.29-29.19-5.7-44.56-.57-21.32,7.28-38.19,19.25-53.26,10.14-12.77,18.95-26.54,29.68-38.82,1.29-1.48,2.54-3.35,4.22-4.05,4.09-1.7,8.95-6.01,12.64-2.72,3.5,3.12-1.35,6.95-3.13,10.27-.46.87-1.38,1.99-1.14,2.66,5.39,15.14-8.87,25.53-9.52,39.32-.2,4.31-.68,7.76,2.99,10.57,4.13,3.16,6.85-.25,9.62-2.28,16.72-12.28,31.96-26.31,47.72-39.73,19.85-16.9,35.18-38.08,55.33-54.62,5.98-4.91,11.8-11.34,14.28-19.68,2.92-9.82-2.08-15.64-12.09-15.32-27.84.89-47.57,18.33-68.93,32.58-2.45,1.63-4.31,6.75-7.93,2.99-3.89-4.04,1.7-5.22,3.48-7.45,13.47-16.85,28.37-32.08,47.51-42.68,3.86-2.14,7.55-4.66,12.02-3.73,9.49,1.96,18.84,2.7,28.51.73,3.35-.68,7.53,1.52,9.21,4.76,1.42,2.74-2.33,4.27-3.85,6.3-.96,1.28-2.55,2.21-2.15,4.34,2.42,2.65,5.51.38,7.06-.47,12.7-7,26.63-4.34,40.01-5.63,4.08-.4,7.81-.65,10.83-3.91,1.02-1.1,3.22-2.35,4.31-1.96,14.57,5.28,29.47-3.81,44.22,1.31,4.27,1.48,8.78,1.58,12.41,5.04,1.77,1.68,5.12,3.45,7.1,2.88,13.64-3.92,24.91,4.02,37.25,6.56,18.68,3.84,36.56,10.54,55.37,14.01,38.73,7.15,78.52,10.48,114.99,26.47,10.24,4.49,21.64,9.34,28.69,20.01,3.33,5.04,9.08,8.6,14.03,12.44,19.87,15.44,28.63,37.85,37.52,60.06,2.67,6.66,5.12,13.44,6.68,20.67,3.27,15.17,18.93,19.82,31.54,10.47,6.31-4.68,13.09-8.75,19.65-13.09.82-.54,2.4-1.19,2.34-1.6-1.49-9.87,10.48-14.03,9.83-23.8-.36-5.37,3.15-10.21,6.29-14.36,4.87-6.43,14.06-4.67,17.71,3.02,3,6.31,3.2,13.62.9,19.45-5.76,14.56-11.87,29.26-20.22,42.41-5.75,9.06-14.13,16.88-19.03,26.5-12.73,24.99-29.56,48.49-31.18,77.91-.19,3.51.67,7.28,1.88,10.63,6.53,18.13,5.81,36.43,1.46,54.77-1.8,7.59-6.21,14.24-9,21.55-4.74,12.43-3.91,24.63-2.66,36.94,1.32,12.98-3.83,24.7-8.3,35.6-3.32,8.07-9.31,16.3-15.73,23.61-19.17,21.86-42.77,37.64-66.88,53.24-21.34,13.81-43.78,24.78-68.67,29.09-24.61,4.26-48.35,14.31-73.53,13.67-25.28-.65-50.65-3.36-73.72-15.47-7.48-3.93-13.38-10.66-17.6-17.12-7.32-11.21-15.7-21.89-20.75-34.75-4.67-11.88-9.2-24.41-21.69-31.47-3.1-1.75-5.33-5.84-6.08-9.92-.24-1.29.45-3.24-.24-3.89-10.83-10.27-1.39-16.35,4.63-23.15,14.39,6.94,29.99,9.56,45.43,12.75,1.87,2.27,3.8,2.38,5.78.14,4.02.45,8.05.9,12.07,1.35,1.31,2.35,2.64,2.38,3.99.03,2,.02,4,.03,6,.05,2.64,3.09,5.28,3.07,7.94.02,12.17-1.03,24.36-1.89,36.51-3.12,22.44-2.26,42.18-12.93,62.53-21.21,42.55-17.3,69.94-48.83,82.6-93.04,4.21-1.15,4.99-3.1,1.42-6.07,1.37-12.59,2.57-25.18.12-37.79,3.17-2.9,3.2-5.61-.49-8.09-.09-1.66-.18-3.31-.28-4.97.8-3.44,2.62-7.14-2.36-9.07-.51-2.97-1.01-5.93-1.52-8.9.31-4.44.24-8.73-4.61-11.01-2.27-12.29-11.36-21.58-14.68-33.41-.53-6.46-3.24-12.2-6.59-17.51-15.29-24.21-34.66-44.85-56.39-63.34-20.14-17.14-43.65-27.09-69.6-30.75-10.05-1.42-20.53-6.05-30.7.15-3.68.11-7.36.23-11.03.34-2.09-.83-3.87-.69-4.91,1.63-2.65.5-5.3,1-7.95,1.5-13.11,1.36-25.39,5.8-37.71,10.09.04-1.32-.44-3.04.21-3.9,4.92-6.53,3.61-11.06-3.5-15.03-4.22-2.36-3.18-6.83-1.95-10.76,3.14-10.06,1.73-11.83-8.8-12.31-9.84-.45-18.74,2.54-27.96,5.53-31.72,10.27-54.74,30.6-70.15,59.6-6.32,11.89-7.16,26.78-1.75,37.58,6.17,12.32,7.15,24.28,8.11,36.94.45,5.93.36,12.02,6.04,15.95-11.12,26.88-16.63,54.8-13.95,83.87,1.33,14.45,1.75,29.48,11.74,41.62.18,3.99,1.5,7.59,3.29,11.16,6.21,12.46,15.61,22.42,24.94,32.46-.17,4.15,2.71,4.26,5.66,4.29.75.6,1.49,1.2,2.24,1.8Z"/>
  <path class="cls-6" d="m699.3,217.31c7.01-1.43,14.72,1.49,22.52,2.41,12.37,1.46,24.18,26.16,18.77,37.73-2.87,6.14-8.32,3.74-10.55.74-6.64-8.94-17.97-11.85-24.62-20.92-3.68-5.02-9.94-8.54-16.7-9.94-3.39-.7-6.88-2.49-6.45-6.3.51-4.45,4.82-3.57,8.02-3.7,2.65-.1,5.31-.02,9.01-.02Z"/>
  <path class="cls-2" d="m446.03,342.89c.46,6.96,7.22,12.29,5.92,19.37-1.55,8.43-4.89,16.69-10.12,23.39-3.91,5.01-6.67,10.1-9.33,15.82-8.24,17.7-14.97,36.46-33.98,46.96-5.09,2.81-7.84,10.26-12.03,15.39-7.33,8.95-18.37,14.53-23.53,25.13-9.57,19.64-21.73,38.07-22.89,61.28-.81,16.07-4.25,32.04-3.73,48.3.11,3.29-3,5.03-5.32,4.93-4.7-.2-10.09.22-13.14-4.8-1.89-3.11-3.14-6.71-5.46-9.42-4.53-5.3-5.61-1.61-6.04,2.8-9.99-12.15-10.41-27.18-11.74-41.62-2.68-29.06,2.83-56.98,13.95-83.87,6.83-7.81,10.07-17.7,15.33-26.42,21.46-35.53,48.82-65.33,84.42-87.16,12.32-4.29,24.6-8.73,37.71-10.09Z"/>
  <path class="cls-1" d="m408.32,352.97c-35.6,21.83-62.95,51.63-84.42,87.16-5.27,8.72-8.5,18.61-15.33,26.42-5.67-3.93-5.59-10.02-6.04-15.95-.96-12.66-1.93-24.61-8.11-36.94-5.41-10.8-4.57-25.69,1.75-37.58,15.4-29,38.43-49.33,70.15-59.6,9.22-2.99,18.12-5.97,27.96-5.53,10.53.48,11.94,2.25,8.8,12.31-1.23,3.93-2.27,8.41,1.95,10.76,7.11,3.97,8.41,8.51,3.5,15.03-.65.86-.17,2.58-.21,3.9Z"/>
  <path class="cls-5" d="m633.21,450.86c-9.39-7.35-12.01-19.28-19.28-28.21-24.16-29.65-50.11-57.16-86.23-72.19-16.5-6.86-34.42-8.41-52.2-9.58-1.97-.13-4,.12-5.57-1.48,10.17-6.2,20.65-1.57,30.7-.15,25.95,3.66,49.46,13.61,69.6,30.75,21.73,18.5,41.11,39.13,56.39,63.34,3.35,5.31,6.06,11.05,6.59,17.51Z"/>
  <path class="cls-4" d="m466.02,687.51c2.65-2.28,5.3-2.21,7.94.02-2.65,3.05-5.3,3.07-7.94-.02Z"/>
  <path class="cls-4" d="m438.17,685.94c1.99-2.41,3.92-2.53,5.78.14-1.98,2.25-3.91,2.13-5.78-.14Z"/>
  <path class="cls-4" d="m334.59,635.67c2.88.12,4.85,1.44,5.66,4.29-2.95-.03-5.83-.14-5.66-4.29Z"/>
  <path class="cls-4" d="m456.03,687.43c1.34-1.73,2.67-1.7,3.99.03-1.35,2.34-2.68,2.31-3.99-.03Z"/>
  <path class="cls-4" d="m458.89,339.75c-1.17,1.96-2.2,4.33-4.91,1.63,1.05-2.32,2.82-2.45,4.91-1.63Z"/>
  <path class="cls-7" d="m665.57,508.44c-7.5-36.25-45.84-76.77-45.84-76.77-1.71-3.14-3.53-6.23-5.8-9.02-24.16-29.65-50.11-57.16-86.23-72.19-16.5-6.86-34.42-8.41-52.2-9.58-1.97-.13-4,.12-5.57-1.48-3.68.12-7.36.23-11.03.35-1.17,1.96-2.2,4.33-4.91,1.63-2.65.5-5.3,1-7.95,1.51.46,6.96,7.22,12.29,5.92,19.37-1.55,8.43-4.89,16.69-10.12,23.39-3.91,5.01-6.67,10.1-9.33,15.82-8.24,17.7-14.97,36.46-33.98,46.96-5.09,2.81-7.84,10.26-12.03,15.39-7.33,8.95-18.37,14.53-23.53,25.13-9.57,19.64-21.73,38.07-22.89,61.28-.81,16.07-4.25,32.04-3.73,48.3.11,3.29-3,5.03-5.32,4.93-4.7-.2-10.09.22-13.14-4.8-1.89-3.11-3.14-6.71-5.46-9.42-4.53-5.3-5.61-1.61-6.04,2.8.17,3.99,1.5,7.59,3.29,11.16,2.33,4.67,5.11,8.99,8.16,13.1,2.88,16.94,34.22,39.01,73.99,56.18.32.24.64.46.95.7,4.9,2.36,9.95,4.22,15.08,5.77,21.42,8.08,44.37,14.52,66.14,17.95,69.64,10.97,140.36-40.97,168.69-70.59,28.33-29.62,30.42-81.63,22.92-117.88Z"/>
  <path class="cls-3" d="m841.6,539.53c-10.04-24.67-7.8-54.28-1.81-80.36,1.91-4.06,3.76-8.16,5.38-12.35,10.43-26.89,21.21-53.51,23.61-82.59,2.51-30.43-13.17-54.1-30.26-76.54-19.54-25.65-42.64-47.99-67.87-68.31-24.97-20.11-51.7-32.72-84.72-30.25-20.22,1.52-40.36-1.96-60.36-5.06-36.18-5.6-71.65-14.67-107.37-22.44-15.25-3.32-29.41-1.21-43.51,3.27-19.61,6.24-38.12,15.22-56.64,24.18-19.53,9.45-40.25,14.55-61.94,9.14-20.22-5.04-38.91-2.39-57.14,7.37-29.65,15.88-53.48,38.88-77.72,61.58-16.98,15.91-32.72,33.5-53.87,44.43-9.46,4.89-18.49,10.54-26.6,17.42-9.82,8.33-21.03,16.74-24.85,28.94-5.06,16.18-4.59,33.35,2.48,49.61,8.3,19.09,5.31,36.73-6.98,53.24-12.71,17.06-27.41,33.09-30.3,55.52,1.68,1.41,1.61,2.7-.28,3.86-5.63,45.42,16.41,83.24,34.27,121.97,5.81,12.59,12.89,24.48,16.19,38.16,4.27,17.76,4.01,36.17,7.87,53.9,3.18,14.62.91,30.26,9.54,43.95,11.27,17.85,24.15,31.73,47.66,31.47,7.61-.08,17-.82,22.43,7.6,10.6,6.69,19.09,15.5,25.97,25.91,10.79,6.25,18.55,16.49,30.89,21.14,12,4.52,23.79,6.74,36.29,5.31,8.9-1.02,17.14-1.3,23.1,7.1,7.08,9.98,18.41,14.1,28.9,18.23,41.1,16.15,83.72,26.28,128.14,23.76,32.15-1.82,64.36-3.82,95.86-12.44,18.44-5.05,37.26-8.27,53.99-18.31,4.69-2.82,8.75-6.28,11.76-10.52,4.47-6.3,8.04-12.81-.39-19.71-5.08-4.16-7.27-8.08,2.86-11.01,3.42-.99,6.88-1.71,10.36-2.26,14.44,4.84,31.28,10.21,45.58,14.03,32.77,8.76,83.48-42.51,151.56-114.84,68.09-72.34,1.92-145.17-22.05-204.08Zm-159.33-318.5c.51-4.45,4.82-3.57,8.02-3.7,2.65-.1,5.3-.02,9.01-.02,7.01-1.43,14.72,1.49,22.52,2.41,12.37,1.46,24.18,26.16,18.77,37.73-2.87,6.14-8.32,3.74-10.55.74-6.64-8.94-17.97-11.85-24.62-20.92-3.68-5.02-9.94-8.54-16.7-9.94-3.39-.7-6.89-2.49-6.45-6.3Zm-154.09,587.93c-25.28-.65-50.65-3.36-73.72-15.47-7.48-3.93-13.38-10.66-17.6-17.12-7.32-11.21-15.7-21.89-20.75-34.75-4.66-11.88-9.2-24.41-21.69-31.47-3.1-1.75-5.33-5.84-6.08-9.92-.24-1.29.45-3.24-.24-3.89-10.83-10.27-1.39-16.35,4.63-23.15-12.56-9.78-28.61-13.79-40.55-24.65-2.89-2.63-6.46-4.54-9.71-6.77-2.47,7.47-8.93,11.23-15.22,8.41-10.56-4.73-21.79-6.54-33.04-8.39-1.61-.26-3.52-.54-4.65-1.54-12.6-11.07-27.52-18.91-40.28-29.94-17.76-15.34-37.2-28.49-61.39-32.35-8.44-1.35-16.73-3.87-24.97-6.27-5.01-1.46-3.95-7.24-6.5-10.58-5.29-6.95-9.31-14.73-11.03-23.19-3.55-17.45-1.69-34.95,4.93-51.19,4-9.81,1.68-18.41-1.01-26.85-4.67-14.69-5.29-29.19-5.7-44.56-.57-21.32,7.28-38.19,19.25-53.26,10.14-12.77,18.95-26.54,29.68-38.82,1.29-1.48,2.54-3.35,4.22-4.05,4.09-1.7,8.95-6.01,12.64-2.72,3.5,3.12-1.35,6.95-3.13,10.27-.46.87-1.38,1.99-1.14,2.66,5.39,15.14-8.87,25.53-9.52,39.32-.2,4.31-.68,7.76,2.99,10.57,4.13,3.16,6.85-.25,9.62-2.28,16.72-12.28,31.96-26.31,47.72-39.73,19.85-16.9,35.18-38.08,55.33-54.62,5.98-4.91,11.8-11.34,14.28-19.68,2.92-9.82-2.08-15.64-12.09-15.32-27.84.89-47.57,18.33-68.93,32.58-2.45,1.63-4.31,6.75-7.93,2.99-3.9-4.04,1.7-5.22,3.48-7.45,13.47-16.85,28.37-32.08,47.51-42.68,3.86-2.14,7.55-4.66,12.02-3.73,9.49,1.96,18.84,2.7,28.51.73,3.35-.68,7.53,1.52,9.21,4.76,1.42,2.74-2.33,4.27-3.85,6.3-.96,1.28-2.55,2.21-2.15,4.34,2.42,2.65,5.51.38,7.06-.47,12.7-7,26.63-4.34,40.01-5.63,4.08-.4,7.81-.65,10.83-3.91,1.02-1.1,3.22-2.35,4.31-1.96,14.57,5.28,29.47-3.81,44.22,1.31,4.27,1.48,8.78,1.58,12.42,5.04,1.77,1.68,5.12,3.45,7.1,2.88,13.64-3.92,24.91,4.02,37.25,6.56,18.68,3.84,36.56,10.54,55.37,14.01,38.73,7.15,78.52,10.48,114.99,26.47,10.24,4.49,21.64,9.34,28.69,20.01,3.33,5.04,9.08,8.6,14.03,12.44,19.87,15.44,28.63,37.85,37.52,60.06,2.67,6.66,5.12,13.44,6.68,20.67,3.27,15.17,18.93,19.82,31.54,10.47,6.31-4.68,13.09-8.75,19.65-13.09.82-.54,2.4-1.19,2.34-1.6-1.49-9.87,10.48-14.03,9.83-23.8-.36-5.37,3.15-10.21,6.29-14.36,4.87-6.43,14.06-4.67,17.71,3.02,3,6.31,3.2,13.62.9,19.45-5.76,14.56-11.87,29.26-20.22,42.41-5.75,9.06-14.13,16.88-19.03,26.5-12.73,24.99-29.56,48.49-31.18,77.91-.19,3.51.67,7.28,1.88,10.63,6.53,18.13,5.81,36.43,1.46,54.77-1.8,7.59-6.21,14.24-9,21.55-4.74,12.43-3.91,24.63-2.66,36.94,1.32,12.98-3.83,24.7-8.3,35.6-3.32,8.07-9.31,16.3-15.73,23.61-19.17,21.86-42.77,37.64-66.88,53.24-21.34,13.81-43.78,24.78-68.67,29.09-24.61,4.26-48.35,14.31-73.53,13.67Z"/>
</svg>