<?xml version="1.0" encoding="UTF-8"?>
<svg xmlns="http://www.w3.org/2000/svg" viewBox="0 0 1000 1000">
  <defs>
    <style>
      .cls-1 {
        opacity: .49;
      }

      .cls-1, .cls-2 {
        fill: #a63c96;
      }

      .cls-1, .cls-3, .cls-4 {
        mix-blend-mode: screen;
      }

      .cls-5, .cls-6, .cls-3 {
        fill: #863e98;
      }

      .cls-6 {
        mix-blend-mode: multiply;
      }

      .cls-7 {
        isolation: isolate;
      }
    </style>
  </defs>
  <g class="cls-7">
    <g id="_Слой_1" data-name="Слой 1">
      <g>
        <g>
          <path class="cls-5" d="m593.94,857.4c2.56.01,5.02.16,7.58.4,2.6.22,5.16.57,7.63,1.06,2.48.49,4.88,1.11,7.16,1.89,1.14.39,2.25.82,3.33,1.3,1.17.45,2.31.95,3.41,1.49,8.72,4.39,15.63,11.55,20.82,23.8,1.81,4.19,2.51,8.42,2.86,12.6.94,8.03,1.85,16.42,1.53,24.67-.12,8.47-2.86,15.89-3.84,24.25-1.13,7.49.31,24.48,13.03,20.67,13.32-4.09,21.6-14.78,25.81-27.52,2.1-6.37,3.16-13.26,3.24-20.15.04-3.44-.18-6.89-.65-10.27-.33-3.43-.88-6.81-1.7-10.08-4.78-17.27-12.96-32.53-24.62-42.65-2.51-2.94-5.49-5.49-8.77-7.7-1.58-1-3.25-1.96-4.99-2.86l-2.66-1.33-2.48-1.29c-3.34-1.69-6.97-3.21-10.56-4.61-4.14-1.79-8.59-3.32-13.25-4.68-4.48-1.4-8.94-2.67-13.71-3.78-4.89-1.46-9.42-2.94-14.27-4.18-4.78-1.27-9.85-2.3-14.65-3.21-10.93-2.08-22.5-3.35-34.03-3.88-11.34-.59-22.7-.4-33.55.43-13.65,1.03-27.04,3.86-39.74,9.37-11.86,5.23-25.18,11.13-32.98,26.24-2.48,4.84-3.86,10.21-3.9,15.66-1.19,9.87.66,22.95,9.16,36.82,4.37,7.78,10.26,13.99,15.85,18.85,2.83,2.39,5.61,4.44,8.38,5.94,2.81,1.45,5.5,2.46,8,2.99,4.35.93,8.46-.44,10.53-3.89,1.04-1.73,1.57-3.97,1.37-6.73-.25-2.71-1.07-6.06-2.78-10.03-3.4-7.97-6.43-12.23-4.78-18.94.72-2.96,1.87-5.46,3.19-7.71,8.84-15.01,24-24.03,38.35-27.54,12.28-3.01,25-4.33,37.77-4.92,6.45-.31,12.66-.34,19.28-.45,6.57-.08,13.14-.07,19.63-.03Z"/>
          <path class="cls-6" d="m566.44,838.58c-6.79,3.62-15.79,2-23.51,1.2-9.5-.89-18.63-.48-27.67.71-7.67,1.01-15.54,2.52-22.83,5.63-7.2,3.09-14.19,7.9-19.05,15.44-2.19,3.35-4.19,7.39-5.6,12.08-.7,2.34-1.26,4.85-1.61,7.5-.33,2.64-.29,5.36-.08,8.24.42,5.16,1.83,10.36,3.98,15.24,2.36,4.73,5.43,9.18,8.89,13.09.95,1.08,1.94,2.04,2.92,3.04-.38-1.2-.82-2.44-1.4-3.76-3.4-7.97-6.43-12.23-4.78-18.94.72-2.96,1.87-5.46,3.19-7.71,8.84-15.01,24-24.03,38.35-27.54,11.71-2.87,23.83-4.19,36.01-4.81,6.11-.31,12.15-.41,18.33-.48,6.27-.1,12.54-.1,18.76-.08,3.13-3.56,6.17-7.17,9.15-10.73,3.14-3.83,6.44-7.72,9.77-11.51.23-.26.47-.54.7-.8-2.24-.62-4.54-1.21-6.87-1.76-4.89-1.46-9.42-2.94-14.27-4.18-4.78-1.27-9.85-2.3-14.65-3.21l-1.3-.2c.81,5.08-.87,10.6-6.45,13.54Z"/>
          <path class="cls-5" d="m618.53,854.75c1.56-2.92,2.93-5.85,4.1-8.75,1.29-2.92,2.54-5.84,3.51-8.68,1.05-2.85,1.67-5.6,2.48-8.35.83-2.75,1.44-5.41,1.82-7.99,1.93-10.47,1.28-19.44-2.61-29.02-.66-3.23-1.63-6.44-3.81-9.71-1.67-3.21-3.76-6.41-6.1-9.59-2.1-3.35-4.43-6.67-6.89-9.86-2.96-4.04-5.97-8.11-9.42-11.91-3.41-3.83-6.71-7.72-10.41-11.3-3.56-4-7.16-7.93-10.89-11.62-3.76-3.67-7.72-7.08-11.81-10.17-18.26-14.22-40.32-23.8-61.13-29.87-13.12-3.84-26.67-5.81-40.45-5.57-12.97.22-27.1.69-40.03,9.43-4.13,2.83-7.33,6.29-9.49,10.51-2.57,3.57-4.7,7.95-6.1,13.17-1.41,5.2-1.8,11.62-1.3,18.66,1.3,15.72,7.64,30.2,15.38,36.67,6.72,5.64,16.83,3.08,17.9-13.11.77-8.05.3-12.97,4.67-17.71,1.99-2.08,4.14-3.61,6.33-4.88,14.66-8.46,32.26-9.91,46.67-6.8,24.71,5.29,47.49,17.77,70.45,31.21,4.37,2.67,8.89,5.64,12.65,9.06,1.91,1.7,3.67,3.49,5.27,5.38,1.73,1.82,3.28,3.72,4.63,5.71,5.19,8.16,8.15,16.78,6.35,28.35-.41,4.67-2.35,9-4.45,13.06-2.05,4.04-4.73,7.94-7.38,11.89-.52.74-1.02,1.46-1.52,2.18-5.52,6.51-11.47,12.49-16.23,16.8-4.4,3.99-8.92,7.89-13.53,11.63-4.52,3.7-9.16,7.25-13.93,10.61-9.53,6.72-19.57,12.64-30.09,17.46-11.12,5.06-22.89,9.39-36.39,8.74-10.98-.63-23.83-9.09-34.77-11.01-6.18-1.12-7.41,4.62-5.26,12.13,2.04,7.54,6.96,16.98,12.43,22.7,5.01,5.39,9.87,10.09,15.16,13.39,5.23,3.38,10.43,5.92,15.53,7.73,2.56.9,5.07,1.65,7.59,2.18,2.56.48,5.08.81,7.57,1,4.97.37,9.8.19,14.44-.42,18.55-2.45,34.26-11.58,45.32-19.4,12.86-9.13,25.1-20.2,35.96-32.85,5.41-6.3,10.46-12.95,15.03-19.83,2.32-3.45,4.36-6.91,6.55-10.48,2.18-3.57,4.25-7.17,6.18-10.79Z"/>
          <path class="cls-5" d="m618.53,854.75c1.56-2.92,2.93-5.85,4.1-8.75,1.29-2.92,2.54-5.84,3.51-8.68,1.05-2.85,1.67-5.6,2.48-8.35.83-2.75,1.44-5.41,1.82-7.99,1.93-10.47,1.28-19.44-2.61-29.02-.66-3.23-1.63-6.44-3.81-9.71-1.67-3.21-3.76-6.41-6.1-9.59-2.1-3.35-4.43-6.67-6.89-9.86-2.96-4.04-5.97-8.11-9.42-11.91-3.41-3.83-6.71-7.72-10.41-11.3-3.56-4-7.16-7.93-10.89-11.62-3.76-3.67-7.72-7.08-11.81-10.17-18.26-14.22-40.32-23.8-61.13-29.87-13.12-3.84-26.67-5.81-40.45-5.57-12.97.22-27.1.69-40.03,9.43-4.13,2.83-7.33,6.29-9.49,10.51-2.57,3.57-4.7,7.95-6.1,13.17-1.41,5.2-1.8,11.62-1.3,18.66,1.3,15.72,7.64,30.2,15.38,36.67,6.72,5.64,16.83,3.08,17.9-13.11.77-8.05.3-12.97,4.67-17.71,1.99-2.08,4.14-3.61,6.33-4.88,14.66-8.46,32.26-9.91,46.67-6.8,24.71,5.29,47.49,17.77,70.45,31.21,4.37,2.67,8.89,5.64,12.65,9.06,1.91,1.7,3.67,3.49,5.27,5.38,1.73,1.82,3.28,3.72,4.63,5.71,5.19,8.16,8.15,16.78,6.35,28.35-.41,4.67-2.35,9-4.45,13.06-2.05,4.04-4.73,7.94-7.38,11.89-.52.74-1.02,1.46-1.52,2.18-5.52,6.51-11.47,12.49-16.23,16.8-4.4,3.99-8.92,7.89-13.53,11.63-4.52,3.7-9.16,7.25-13.93,10.61-9.53,6.72-19.57,12.64-30.09,17.46-11.12,5.06-22.89,9.39-36.39,8.74-10.98-.63-23.83-9.09-34.77-11.01-6.18-1.12-7.41,4.62-5.26,12.13,2.04,7.54,6.96,16.98,12.43,22.7,5.01,5.39,9.87,10.09,15.16,13.39,5.23,3.38,10.43,5.92,15.53,7.73,2.56.9,5.07,1.65,7.59,2.18,2.56.48,5.08.81,7.57,1,4.97.37,9.8.19,14.44-.42,18.55-2.45,34.26-11.58,45.32-19.4,12.86-9.13,25.1-20.2,35.96-32.85,5.41-6.3,10.46-12.95,15.03-19.83,2.32-3.45,4.36-6.91,6.55-10.48,2.18-3.57,4.25-7.17,6.18-10.79Z"/>
          <path class="cls-6" d="m571.43,759.52c1.83,1.1,3.62,2.3,5.45,3.51,7.35-5.11,14.76-10.08,21.55-15.64-2.31-2.67-4.7-5.31-7.22-7.8-1.61-1.86-3.27-3.66-4.97-5.43-1.63-1.81-3.3-3.56-5.02-5.26-3.44-3.4-7.04-6.58-10.76-9.51-.02.63-.03,1.25-.13,1.9-1.17,7.01-7.43,9.57-12.5,9.96-16.7,1.39-32.49-8.13-48.64-11.09-9.63-1.68-19.72-.96-29.52,1.5-7.94,1.94-16.33,5.18-23.26,12.39,14.23-7.45,30.83-8.69,44.57-5.73,24.71,5.29,47.49,17.77,70.45,31.21Z"/>
          <path class="cls-2" d="m618.53,854.75c4.35-8.57,8.02-17.31,9.94-25.3,1.29-4.07,1.98-7.91,2.39-11.63.33-1.89.53-3.73.58-5.52.08-1.8-.13-3.51-.08-5.32-2.22-3.27-6.29-5.8-10.29-7.13-7.37-2.22-14.63-.05-20.27,4.97-.31,5.07-1.29,9.59-3.42,14.07-1.77,4.35-4.29,8.51-7.3,12.49-3.08,4.01-6.2,7.69-9.52,11.14-3.31,3.45-6.7,6.62-9.81,9.44-4.4,3.99-8.92,7.89-13.53,11.63-4.52,3.7-9.16,7.25-13.93,10.61-9.53,6.72-19.57,12.64-30.09,17.46-11.12,5.06-22.89,9.39-36.39,8.74-10.98-.63-23.83-9.09-34.77-11.01-6.18-1.12-7.41,4.62-5.26,12.13,2.04,7.54,6.96,16.98,12.43,22.7,5.01,5.39,9.87,10.09,15.16,13.39,5.23,3.38,10.43,5.92,15.53,7.73,2.56.9,5.07,1.65,7.59,2.18,2.56.48,5.08.81,7.57,1,4.97.37,9.8.19,14.44-.42,18.55-2.45,34.26-11.58,45.32-19.4,12.86-9.13,25.1-20.2,35.96-32.85,5.41-6.3,10.46-12.95,15.03-19.83,2.32-3.45,4.36-6.91,6.55-10.48,2.18-3.57,4.25-7.17,6.18-10.79Z"/>
          <path class="cls-5" d="m594.26,769.59c22.19-15.2,36.4-37.51,37.48-68.57.59-4.78.97-9.85.37-15.27-.6-4.93-1.4-10.04-2.41-15.08-1.02-5.03-2.37-9.86-3.69-14.65-1.69-5.9-3.79-11.44-6.15-16.75-2.33-5.35-4.98-10.39-7.87-15.12-5.33-10.4-11.7-19.71-18.98-27.2-16.52-17.23-37.65-28.36-58.05-35.92-12.83-4.76-26.21-7.63-39.91-8.6-12.87-.9-26.99-1.77-40.32,4.25-4.27,1.91-7.6,4.59-10.13,7.76-5.7,5.25-9.89,13.25-10.53,25.03-.35,6.36.41,12.82,2.03,18.52,1.62,5.69,4.07,10.52,7.16,14.01,5.4,6.11,15.84,6.48,19.95-6.74,2.06-6.68,2.42-10.88,7.43-14.09,2.22-1.44,4.54-2.4,6.87-3.14,15.54-4.88,33.2-3.82,47.01,1.28,23.66,8.67,44.36,24.48,63.65,44.35,7.46,7.83,13.6,17.87,16.05,29.32,1.32,5.66,1.75,11.64.98,17.92-.53,6.1-2.55,12.69-5.55,19.23-5.19,10.93-13.35,16.69-21.62,22.49-.78.52-1.53,1.02-2.29,1.53-7.92,3.95-15.99,6.84-22.2,8.64-22.98,6.65-46.23,9.85-69.4,8.48-12.21-.75-24.56-2.46-36.22-8.91-9.59-5.26-17.07-17.23-26.27-23.07-5.18-3.26-8.51.67-10,7.4-.76,3.34-1.09,7.33-1.02,11.33.12,4.05.79,8.26,1.72,11.76,3.33,12.97,9.69,23.74,16.67,31.51,7.41,8.03,15.86,13.42,24.48,16.91,17.5,7.02,35.88,6.65,49.24,5.15,31.43-3.53,64.07-15.34,91.51-33.77Z"/>
          <path class="cls-6" d="m463.21,615.27c2.06-6.68,2.42-10.88,7.43-14.09,2.23-1.44,4.54-2.4,6.87-3.14,15.54-4.88,33.2-3.82,47.01,1.28,23.66,8.67,44.36,24.48,63.65,44.35.76.79,1.49,1.61,2.21,2.45,3.8-1.51,7.59-3.05,11.36-4.69,4.53-1.97,9.1-3.53,13.64-5.73.72-.37,1.46-.74,2.21-1.12-1.76-3.6-3.6-7.11-5.62-10.41-5.09-9.93-11.15-18.83-18.03-26.13-1.18,4.75-4.6,8.44-8.6,9.28-5.55,1.16-11.41-1.34-16.41-3.1-8.01-2.81-15.81-6.3-23.72-9.42-14.91-5.89-30.84-10.29-47.2-9.29-13.62.83-29.1,6.1-38.1,23.66-2.6,5.18-4.47,10.72-5.58,16.55,3.55-1.04,6.92-4.17,8.86-10.44Z"/>
          <path class="cls-2" d="m594.26,769.59c16.23-11.09,28.18-26.14,33.94-45.7-.59-5.76-2.8-11.25-6.17-14.79-5.81-6.41-13.49-6.32-20.69-2.62-2.17,5.97-5.39,10.97-9.01,15.07-3.54,4.06-7.72,7.38-12.17,10.15-8.78,5.47-18.45,8.71-26.61,11.09-22.98,6.65-46.23,9.85-69.4,8.48-12.21-.75-24.56-2.46-36.22-8.91-9.59-5.26-17.07-17.23-26.27-23.07-5.18-3.26-8.51.67-10,7.4-.76,3.34-1.09,7.33-1.02,11.33.12,4.05.79,8.26,1.72,11.76,3.33,12.97,9.69,23.74,16.67,31.51,7.41,8.03,15.86,13.42,24.48,16.91,17.5,7.02,35.88,6.65,49.24,5.15,31.43-3.53,64.07-15.34,91.51-33.77Z"/>
          <path class="cls-5" d="m607.66,660.68c25.92-12.86,46.42-42.18,50.59-78.78,1.19-5.76,1.91-11.48,1.71-17.77-.38-11.56-2.18-23.04-4.77-33.42-3.15-12.79-8.1-24.17-13.99-33.97-5.44-10.84-12.26-20.2-19.76-27.57-17.2-16.87-39.08-26.72-59.86-32.98-13.09-3.94-26.63-5.95-40.35-6.17-12.88-.22-27.02-.33-39.86,5.8-4.1,1.96-7.32,4.55-9.65,7.52-5.39,5-9.03,12.41-9.23,23.09-.09,11.63,3.82,23.27,10.08,29.68,5.44,5.6,15.9,6.5,19.74-5.85,1.96-6.22,2.17-10.05,7.04-13.14,2.17-1.37,4.44-2.3,6.74-3.02,15.34-4.78,33.05-4.3,47,.32,23.83,7.87,45.17,23.02,64.3,43.7,15,16.12,23.35,43.4,7.63,72.84-6.49,12.18-15.75,18.01-24.81,23.45-.86.48-1.69.95-2.54,1.43-8.63,3.39-17.12,5.28-23.56,6.2-23.87,3.4-47.42,1.61-69.83-4.15-11.84-3.04-23.65-7.11-34.05-14.69-8.64-6.28-14.56-17.72-22.96-23.91-9.56-7.07-14.68,11.17-13.11,23.17.73,5.61,2.04,10.79,3.82,15.56,1.79,4.82,4.09,9.31,6.74,13.35,5.29,8.08,12.08,14.65,19.56,19.99,14.92,10.6,32.31,15.95,45.52,18.69,15.45,3.19,31.94,4.78,48.53,3.61,8.29-.58,16.61-1.85,24.82-3.93,8.27-2.11,16.5-5.09,24.51-9.05Z"/>
          <path class="cls-6" d="m615.21,467.15c1.56,18.4-18.17,13.3-24.29,10.25-8.03-4-15.71-8.7-24.07-11.7-7.96-2.86-16.16-5.03-24.47-6.34-13.63-2.13-34.08-3.18-44.91,13.09-3.62,5.44-5.03,11.63-5.21,17.94l.05-.12c1.96-6.22,2.17-10.05,7.04-13.14,2.17-1.37,4.44-2.3,6.74-3.02,15.34-4.78,33.05-4.3,47,.32,23.83,7.87,45.18,23.02,64.3,43.7l1.16,1.34c4.32-1.33,8.65-2.66,12.98-3.99,4.8-1.39,9.56-2.85,14.29-4.96.65-.3,1.33-.61,2.02-.92-2.03-4.52-4.23-8.84-6.64-12.85-5.44-10.84-12.26-20.2-19.76-27.57-2.26-2.22-4.61-4.3-7.02-6.29.38,1.37.67,2.79.79,4.27Z"/>
          <path class="cls-2" d="m607.66,660.68c19.12-9.52,35.09-27.71,44.06-51.44.22-7.05-1.16-13.88-4.08-18.24-5.16-7.72-12.88-7.86-20.45-4.13-12,27.02-36.23,32.7-53.07,35.17-23.87,3.4-47.42,1.61-69.83-4.15-11.84-3.04-23.65-7.11-34.05-14.69-8.64-6.28-14.56-17.72-22.96-23.91-9.56-7.07-14.68,11.17-13.11,23.17.73,5.61,2.04,10.79,3.82,15.56,1.79,4.82,4.09,9.31,6.74,13.35,5.29,8.08,12.08,14.65,19.56,19.99,14.92,10.6,32.31,15.95,45.52,18.69,15.45,3.19,31.94,4.78,48.53,3.61,8.29-.58,16.61-1.85,24.82-3.93,8.27-2.11,16.5-5.09,24.51-9.05Z"/>
          <path class="cls-5" d="m636.65,536.11c26.48-14.18,47.34-47.99,49.39-87.34.92-7.8,1.3-15.58.67-23.7-.4-7.36-2.02-14.93-3.69-21.99-.85-3.54-1.78-6.98-2.77-10.31-.98-3.32-1.97-6.51-3.32-9.64-3.15-7.73-6.66-14.67-10.4-20.84-1.8-3.08-3.92-5.99-6.12-8.73-2.17-2.73-4.38-5.28-6.63-7.65-4.52-5.43-8.88-10.13-13.89-14.02-4.99-3.89-10.01-7.03-15-9.45-5.7-2.76-11.4-4.77-17.18-6.15-5.92-1.35-11.81-2.1-17.62-2.39-11.61-.59-22.91.63-33.58,2.6-13.42,2.49-26.34,7.03-38.84,12.6-11.78,5.18-24.55,10.93-34.3,18.96-3.29,2.6-5.49,5.09-6.76,7.46-1.83,2.23-2.74,4.51-3.34,7.08-.6,2.58-.35,5.31,1.11,8.34.89,1.63,1.69,3.32,2.74,4.94,1.06,1.61,2.36,3.16,3.83,4.6,2.94,2.89,6.64,5.4,10.15,7.2,3.17,1.53,7.37,2.2,10.98,1.24,1.81-.48,3.47-1.37,4.78-2.76,1.29-1.38,1.96-3.22,2.16-5.61.34-4.81-.21-7.59,3.76-10.93,1.66-1.48,3.55-2.7,5.53-3.8,13.23-7.31,30.17-12.77,44.83-13.1,24.93-.63,50.65,7.07,74.02,25.68,9.58,7.28,16.89,18.6,20.92,33.66,3.44,14.5,2.27,34.33-4.87,48.91-5.84,13.21-15.15,19.91-23.97,26-.85.55-1.67,1.07-2.5,1.61-8.61,3.94-17.09,6.16-23.52,7.3-23.83,4.21-47.38,2.53-69.86-2.97-11.88-2.91-23.72-6.76-34.35-13.87-8.83-5.91-15.13-16.48-23.8-22.03-9.84-6.32-14.11,10.38-12.13,21.18,3.53,20.24,15.72,35.04,30.39,45.54,14.68,10.49,31.76,16.71,44.85,20.04,30.58,7.77,65.51,9.88,98.32-7.66Z"/>
          <path class="cls-6" d="m621.74,343.13c-7.64-.53-15.11-2.92-22.93-3.95-9.55-1.32-19.04-1.88-28.39-1.32-15.34.86-30.87,4.51-44.42,11.8-2.92,1.54-5.74,3.4-8.72,5.58-2.95,2.18-5.71,4.6-7.96,7.21-2.26,2.61-3.95,5.39-4.83,8.38-1.19,3.06-1.53,6.33-.66,9.94.43,2.11,1.47,4.1,2.18,6.15,1.85-1.45,2.75-3.5,3.01-6.38.34-4.81-.21-7.59,3.76-10.93,1.66-1.48,3.55-2.7,5.53-3.8,13.23-7.31,30.17-12.77,44.83-13.1,24.93-.63,50.65,7.07,74.02,25.68,1.87,1.46,3.69,3.13,5.46,4.93,8.63-5.04,17.09-11.07,25.08-18.95-3.89-7.01-9.05-13.22-13.92-18.47-5.58-6.79-11.21-12.3-17.63-16.68-.24,5.47-2.4,9.09-5.15,11.25-2.73,2.16-6.08,2.88-9.27,2.66Z"/>
          <path class="cls-2" d="m636.65,536.11c19.43-10.51,35.92-31.4,44.05-57.54.02-7.54-1.76-14.78-4.86-19.18-5.53-7.82-13.28-7.32-20.67-2.87-10.71,29.28-35.17,36.4-51.95,39.37-23.83,4.21-47.38,2.53-69.86-2.97-11.88-2.91-23.72-6.76-34.35-13.87-8.83-5.91-15.13-16.48-23.8-22.03-9.84-6.32-14.11,10.38-12.13,21.18,3.53,20.24,15.72,35.04,30.39,45.54,14.68,10.49,31.76,16.71,44.85,20.04,30.58,7.77,65.51,9.88,98.32-7.66Z"/>
          <path class="cls-5" d="m659.75,394.71c2.92-2.99,5.93-6.33,8.34-10.14,2.43-3.81,4.66-7.99,6.68-12.51,2.02-4.52,3.83-9.37,5.39-14.51,1.31-5.16,2.28-10.61,3.01-16.27,3.28-22.64-.71-48.87-10.88-72.55-3-7.7-6.48-15.11-11.04-22.3-4.52-6.38-9.34-12.39-14.23-17.9-2.39-2.8-5.02-5.29-7.62-7.67-2.59-2.38-5.17-4.63-7.71-6.74-3.18-2.59-6.24-5.08-9.47-7.16-3.24-2.07-6.45-3.94-9.62-5.62-6.38-3.32-12.42-6.11-18.66-7.8-6.45-2.38-12.68-4.09-18.65-5.14-5.94-1.08-11.88-1.19-17.32-.93-24.86,1.31-46.04,13.27-63.38,26.16-10.94,8.19-20.55,17.94-29.13,28.6-8.16,10-16.71,20.93-21.28,33.38-1.51,3.99-2.05,7.44-1.8,10.39-.15,1.51-.11,2.98.07,4.43.09,1.47.37,2.9.86,4.28.9,2.78,3.02,5.23,5.67,7.57,2.89,2.57,6.84,4.37,10.84,5.58,3.85,1.23,8.14,1.77,12.26,1.46,7.21-.54,15.97-6.02,12.21-15.12-1.97-4.52-4.25-6.58-2.44-11.52.77-2.2,1.87-4.27,3.09-6.25,7.9-13.11,19.97-25.91,32.77-33.24,10.86-6.22,22.87-10.86,35.69-13.24,12.7-2.28,26.8-2.74,41.49-.47,11.32,1.88,24.28,7.62,34.67,19.33,2.62,2.9,5.28,6.02,7.53,9.6,2.19,3.62,4.23,7.55,6.05,11.77.91,2.11,1.77,4.3,2.56,6.55.38,1.13.76,2.28,1.15,3.43.28,1.19.56,2.4.85,3.62,1.06,4.89,1.84,10.05,2.28,15.43.18,2.22.26,4.34.25,6.38-.06,2.05-.32,4.04-.58,5.93-.56,3.8-1.4,7.27-2.43,10.49-2.11,6.45-4.71,11.86-8.03,16.98-.59.96-1.21,1.84-1.82,2.75-6.76,7.64-14.05,12.87-19.77,16.12-10.48,6.03-22.09,9.98-33.47,12.5-11.46,2.51-23.07,3.6-34.63,3.84-12.22.28-24.64-.34-36.55-3.14-10-2.36-19.28-7.68-28.95-8.67-5.54-.57-8.25,1.92-8.93,5.05-.33,1.58-.15,3.36.46,5.12.44,1.81,1.14,3.63,2.25,5.18,16.18,22.75,58.67,37.75,85.64,41.53,15.6,2.36,32.1,3.37,48.68.36,8.24-1.52,16.7-4.02,24.7-8.03,7.9-4.04,15.62-9.54,22.97-16.91Z"/>
          <path class="cls-6" d="m481.84,282.67c.77-2.2,1.87-4.27,3.09-6.25,7.9-13.11,19.97-25.91,32.77-33.24,10.86-6.22,22.87-10.86,35.69-13.24,12.7-2.28,26.8-2.74,41.49-.47.93.15,1.87.37,2.82.57,4.04-10.09,6.82-20.22,8.93-31.61-4.24-2-8.43-3.74-12.68-4.9-6.45-2.38-12.68-4.09-18.65-5.14-5.94-1.08-11.88-1.19-17.32-.93-.87.05-1.71.18-2.57.26.44.42.9.79,1.33,1.26,7.96,8.55,5.47,14.38.55,17.89-4.99,3.59-12.6,5.45-16.16,7-18.96,8.06-37.26,17.89-51.45,32.45-5.87,5.95-10.96,12.6-15.09,20-3.18,5.65-6.25,12.73-3.81,19,1.06,3.46,2.95,5.77,5.42,7.33,1.23.78,2.61,1.36,4.08,1.79,1.38.46,2.86.77,4.41.96-.12-.4-.24-.8-.41-1.22-1.97-4.52-4.25-6.58-2.44-11.52Z"/>
          <path class="cls-5" d="m621.93,232.92c2.04-8,2.85-17.24,2.1-27.02-.48-4.79-1.3-9.74-2.46-14.82-1.16-5.08-2.62-10.32-4.67-15.27-1.98-5.03-4.29-10.11-6.91-15.17-2.64-5.02-5.78-9.69-9.09-14.45-1.67-2.36-3.41-4.69-5.21-6.99-1.83-2.25-3.78-4.36-5.75-6.49-3.99-4.2-8.16-8.38-12.64-12.09-5.43-5.05-11.11-9.76-17.71-13.7-6.11-3.45-12.35-6.52-18.49-9.17-6.2-2.48-12.32-4.48-18.13-6.13-14.52-3.87-27.87-4.84-39.99-3.65-12.9.09-24.65,2.83-34.51,6.86-22.68,9.66-39.24,26.81-52.19,44.35-8.12,11.02-14.52,23.11-19.5,35.86-4.69,11.94-9.7,25.09-9.44,38.81.08,4.39,1.06,7.96,2.5,11.01.95,3.19,2.54,6.16,4.94,8.7,2.35,2.58,5.39,4.82,9.53,6.41,8.85,3.61,19.37,3.62,27.13.41,6.81-2.85,12.67-11.56,4.68-19.34-4.16-3.77-7.13-5.31-7.52-10.77-.2-2.42-.05-4.76.3-7.08,2.34-15.44,9.59-31.64,19.18-42.76,16.38-19.01,38.64-32.91,66.78-40.51,5.49-1.47,11.48-2.06,17.85-1.73,3.18.18,6.46.57,9.77,1.29,3.28.79,6.61,1.86,9.96,3.22,3.35,1.37,6.72,3.03,10.05,5.02,3.28,2.12,6.53,4.56,9.7,7.34,6.43,5.41,12.24,12.8,17.39,21.41,8.24,14.65,8.56,27.07,7.71,38.8-.1,1.08-.2,2.13-.3,3.19-2.32,9.69-6.14,17.62-9.76,23.34-13.16,20.94-31.53,35.63-51.47,47.38-10.53,6.23-21.71,11.77-33.66,15.13-4.98,1.41-10.03,1.84-15.09,2.45-5.18.65-10.21,1.42-14.85,3.21-5.27,2.06-6.26,5.67-5.03,9.01,1.27,3.34,4.09,6.68,7.83,8.36,1.76.78,3.4,1.5,5.06,2.13,1.7.63,3.47,1.16,5.31,1.6,3.61.91,7.82,1.4,11.62,1.8,7.84.72,16.55.43,25.33-.5,17.32-1.76,34.79-6.25,47.5-10.94,29.37-10.9,60.95-28.11,72.14-68.51Z"/>
          <path class="cls-6" d="m453.97,114.79c-9.58,9.25-21.13,16.81-30.67,26.01-8.91,8.55-16.18,18.61-21.31,29.78-4.62,10.02-7.85,22.37-4.17,34.17,1.24,4.19,3.29,7.17,5.9,9.24,2.59,2.09,5.58,3.39,8.92,3.97-2.26-2.05-3.76-3.95-4.03-7.71-.2-2.42-.05-4.76.3-7.08,2.34-15.44,9.59-31.64,19.18-42.76,16.14-18.73,38.03-32.51,65.6-40.16.95-10.32.73-21.44-2.2-32.73-2.9.05-5.75.19-8.52.44-6.71.07-13.05.8-19.04,2.12,2.5,10.43-3.46,18.35-9.97,24.69Z"/>
          <path class="cls-2" d="m521.24,112.01c-1.85-20.9-14.39-43.95-34.27-62.09-19.82-18.11-46.71-31.04-75.07-32.94-24.54-1.73-45.41,3.82-61.13,13.28-15.74,9.48-26.39,22.88-31.13,37.17-2.6,9.26,2.7,12.93,9.04,14.24,6.32,1.26,13.71.08,14.46-1.54,5.9-13.04,17.37-26.55,33.03-34.68,15.57-8.13,35.39-10.76,55.88-2.12,5.05,2.06,9.47,4.72,13.38,7.62,3.92,2.87,7.28,6.09,10.13,9.58,2.86,3.46,5.24,7.07,7.18,10.79,1.91,3.79,3.4,7.65,4.53,11.49,2.28,7.63,3.04,15.33,2.95,22.32-.08,6.96-.98,13.16-2.05,18-5.34,23.85-17.05,44.45-31.41,62.55-7.59,9.59-16.02,18.75-26.35,25.82-8.54,5.81-19.89,8.32-27.77,14.46-4.51,3.51-3.91,7.51-1.1,10.73,1.4,1.62,3.43,3.01,5.58,4.17,2.12,1.17,4.48,2.03,6.76,2.42,2.12.38,4.27.59,6.38.7,2.06.15,4.13.16,6.21.06,4.15-.2,8.38-.9,12.51-1.91,8.13-1.94,16.31-5.37,24.14-9.58,15.55-8.35,29.49-19.85,39.02-29.45,22.13-22.3,42.68-51.33,39.11-91.09Z"/>
          <path class="cls-2" d="m621.93,232.92c3.02-11.77,3.34-26.25-.16-40.95-.84-3.71-1.81-7.54-3.05-11.3-1.3-3.68-2.78-7.39-4.43-11.11-1.66-3.72-3.48-7.46-5.48-11.16-2.09-3.55-4.34-7.07-6.75-10.56-3.53-3.06-7.15-5.78-10.72-7.65-3.59-1.83-7.01-3.01-9.98-3.37-10.51-1.26-14.38,5.64-14.66,14.85,5.17,7.29,8.19,14.84,9.94,21.73.86,3.46,1.41,6.76,1.63,9.99.17,3.29.05,6.44-.28,9.44-1.36,12.03-6.03,21.48-10.75,28.96-13.16,20.94-31.53,35.63-51.47,47.38-10.53,6.23-21.71,11.77-33.66,15.13-4.98,1.41-10.03,1.84-15.09,2.45-5.18.65-10.21,1.42-14.85,3.21-5.27,2.06-6.26,5.67-5.03,9.01,1.27,3.34,4.09,6.68,7.83,8.36,1.76.78,3.4,1.5,5.06,2.13,1.7.63,3.47,1.16,5.31,1.6,3.61.91,7.82,1.4,11.62,1.8,7.84.72,16.55.43,25.33-.5,17.32-1.76,34.79-6.25,47.5-10.94,29.37-10.9,60.95-28.11,72.14-68.51Z"/>
          <path class="cls-2" d="m659.75,394.71c2.19-2.19,4.29-4.6,6.32-7.21,1.97-2.62,3.64-5.5,5.32-8.55,3.3-6.11,6.16-13,8.5-20.5,2.05-7.53,3.28-15.71,4.04-24.28.18-2.14.32-4.31.43-6.5.02-2.18-.07-4.39-.17-6.61-.21-4.44-.59-8.95-1.13-13.5-3.2-9.56-8.87-17.38-13.88-21.12-9.03-6.58-15.49-1.83-19.74,6.78.68,4.8,1.03,9.29.93,13.51-.27,4.26-.85,8.21-1.68,11.87-1.74,7.32-4.14,13.4-7.71,18.54-7.01,10.27-15.91,16.48-23.39,20.74-10.48,6.03-22.09,9.98-33.47,12.5-11.46,2.51-23.07,3.6-34.63,3.84-12.22.28-24.64-.34-36.55-3.14-10-2.36-19.28-7.68-28.95-8.67-5.54-.57-8.25,1.92-8.93,5.05-.33,1.58-.15,3.36.46,5.12.44,1.81,1.14,3.63,2.25,5.18,16.18,22.75,58.67,37.75,85.64,41.53,15.6,2.36,32.1,3.37,48.68.36,8.24-1.52,16.7-4.02,24.7-8.03,7.9-4.04,15.62-9.54,22.97-16.91Z"/>
        </g>
        <path class="cls-1" d="m469.3,177.32c9.39-12.15,16.85-25.8,21.28-41.26,3.25-11.28,5.48-24.53,4.2-38.92-1.29-14.29-6.26-29.48-17.26-43.42-11.3-14.23-27.76-24.48-45.58-26.15-1.55-.16-2.31,1.4-.17,2.07,16.43,5.04,27.96,15.4,35.58,26.87,7.61,11.62,11.35,24.34,12.89,35.37,2.19,14.76.61,28.79-3.16,41.56-3.77,12.78-9.73,24.39-16.67,35.05-8.94,13.66-19.6,25.87-29.19,38.98-.95,1.29,1.54,2.11,2.48,1.69,14.67-6.68,26.2-19.58,35.61-31.85Z"/>
        <path class="cls-1" d="m549.04,273.49c13.38-7.51,25.53-17.16,35.3-30.03,3.54-4.66,7.07-9.99,10.19-16.02,3.11-6.02,5.54-12.51,7.29-19.78,1.68-7.21,2.71-15.31,2.07-23.46-.27-4.13-.85-8.41-1.79-12.81-.47-2.19-1.01-4.45-1.68-6.67-.7-2.17-1.5-4.37-2.39-6.59-1.84-4.56-4.07-9.04-6.65-13.31-2.59-4.25-5.68-8.02-8.98-11.66-6.58-7.36-14.63-12.88-23.34-16.66-1.52-.66-2.67.64-.69,1.99,7.59,5.19,13.8,11.08,18.43,17.85,4.72,6.62,8.14,13.54,10.25,20.77,2.13,7.19,3.4,13.98,3.55,20.85.21,6.78-.32,13.1-1.22,18.71-5.31,30.89-24.45,50.93-45.25,65.46-13.41,9.3-27.87,16.63-41.7,25.15-1.37.84.54,2.34,1.55,2.27,15.89-1.16,31.64-8.39,45.06-16.03Z"/>
        <path class="cls-1" d="m575.67,391c7.69-.09,15.39-.78,23.06-2.28,7.73-1.49,15.24-3.8,22.5-7.11,10.55-4.8,22.41-12.01,32.57-23.36,9.43-11.33,17.94-27.03,19.29-47.52,1.17-10.58-.51-21.34-3.43-31.67-1.38-5.2-3.63-10.06-6.2-14.68-2.57-4.62-5.53-8.97-8.85-12.92-1.16-1.38-2.74-.66-1.42,1.62,2.51,4.36,4.6,8.78,6.3,13.16,1.67,4.4,3.11,8.7,3.73,13.12,1.42,8.76,1.63,17.14.57,24.9-2.68,15.72-8.68,28.54-16.01,37.93-4.76,6.37-9.96,11.65-15.46,16.04-5.41,4.39-11.68,7.88-17.75,10.67-12.29,5.58-25.1,8.38-37.67,9.76-16.19,1.73-32.41,1.23-48.62,2.07-1.6.08-.58,2.29.36,2.7,7.46,3.23,15,5.27,23.09,6.36,8.01,1.11,16.19,1.3,23.93,1.2Z"/>
        <path class="cls-1" d="m554.82,516.31c15.1,2.81,30.68,3.24,46.38.81,11.38-1.76,24.37-4.9,36.63-11.06,6.14-3.07,12.13-6.86,17.68-11.58,5.49-4.76,10.53-10.45,14.84-17.22,4.45-6.94,7.42-14.74,8.93-22.69.37-2,.65-3.99.81-6.03.17-2.53.22-5.07.16-7.59-.12-5.05-.69-10.06-1.77-14.91-.38-1.69-2.1-1.83-2.01.69.17,4.82-.05,9.48-.59,13.94-.27,2.23-.62,4.41-1.05,6.53-.43,1.9-.94,3.41-1.5,5.06-2.27,6.44-5.55,12.19-9.42,17.25-7.85,10.07-18.1,17.39-27.37,22.52-25.32,13.79-52.63,15.43-77.78,12.22-16.18-2.07-31.81-6.37-47.8-9.24-1.57-.28-1.27,2.62-.48,3.32,12.33,11.02,29.12,15.15,44.33,17.97Z"/>
        <path class="cls-1" d="m525.65,641.63c15.12,2.67,30.69,3,46.37.81,11.38-1.61,24.2-4.32,36.53-9.7,6.16-2.69,12.15-6.01,17.7-10.13,5.59-4.2,10.76-9.24,15.22-15.28,4.6-6.26,7.99-13.32,9.82-20.66,1.84-7.48,2.13-15.26.53-23.05-.28-1.37-1.98-1.73-2.02.25-.8,30.22-23.64,46.63-42.4,55.59-25.4,11.98-52.69,13.33-77.79,10.02-16.17-2.13-31.78-6.51-47.77-9.42-1.57-.29-1.31,2.78-.53,3.5,12.2,11.43,29.12,15.37,44.32,18.05Z"/>
        <path class="cls-1" d="m510.09,770.66c15.33-.98,30.57-4.36,45.26-9.26,10.86-3.63,22.91-8.26,33.93-14.29,5.63-3.09,10.98-6.53,15.71-10.42,4.89-4,9.3-8.55,12.83-13.75,7.64-11,10.18-23.81,6.19-37.64-.36-1.19-2.07-1.49-1.99.24.16,3.3-.11,6.48-.56,9.39-.43,2.89-1.18,5.62-2.18,8.22-2.09,5.26-4.88,9.67-8.43,13.75-3.6,4.11-7.61,7.63-11.86,10.78-4.23,3.15-8.89,6.05-13.07,8.41-23.14,13.04-49.32,19.67-74.69,21.65-16.28,1.29-32.45.23-48.7.76-1.61.05-.76,3.35.22,3.98,14.61,9.67,31.9,9.09,47.34,8.18Z"/>
        <path class="cls-1" d="m547.92,900.67c12.79-8.51,24.32-19.07,34.7-30.51,7.45-8.28,16.2-18.17,23.13-27.97,7.31-9.96,13.43-19.84,16.5-29.37,3.44-10,1.82-17.97-5.66-26.06-.68-.69-2.4-.46-1.84.67,1.1,2.13,1.67,4.28,2.08,6.31.49,1.98.62,3.96.44,5.95-.53,4.06-1.41,7.81-3.47,11.88-.49,1.01-1.03,2.02-1.61,3.04-.51.99-1.04,1.99-1.61,2.99-1.15,2-2.44,4.02-3.81,6.04-1.37,2.02-2.84,4.04-4.31,6.02-1.36,1.95-2.77,3.87-4.17,5.74-3.79,5.05-7.98,10.07-12.34,14.96-4.19,4.84-8.67,9.56-13.37,14.09-9.39,9.07-19.64,17.37-30.17,24.45-13.54,9.17-28.13,16.24-41.97,24.73-1.36.84,1.2,3.34,2.32,3.42,17.58,1.33,32.24-7.86,45.16-16.36Z"/>
        <path class="cls-1" d="m656.87,916.35c-.95,6.38-2.39,12.68-4.21,18.87-.51,3.44-1.02,6.99-.45,10.71.24,1.98,1.46,6.53,4.21,6.02,1.79-.33,3.19-1.87,4.33-3.41,1.71-5.02,3.19-10.24,4.58-15.7,1.4-5.46,2.53-11.05,3.24-16.64.75-5.6.88-11.13.73-16.63-.08-5.52-.73-10.89-2.19-16.03-.96-2.99-1.71-5.85-2.94-8.41-1.2-2.58-2.68-4.9-4.48-6.96-3.29-4.15-7.56-7.24-13.3-9.14-.93-.34-2.32.69-1.28,1.51,4.43,3.06,7.29,6.76,9.21,11,2.26,4.18,3.45,8.89,3.96,13.91.51,5.02.83,10.23.45,15.5-.28,5.24-1.12,10.54-1.84,15.39Z"/>
        <path class="cls-3" d="m403.51,154.24c.16-1.3.2-2.73-.23-4.12-.61-1.98-3.08-3.05-5.07-3.15-2.05-.07-4.13.43-5.41,1.6-1.12,1.02-1.78,2.24-2.2,3.68l-.1.47-.25.46c-.55,1.12-1.04,2.3-1.23,3.57-.16,1.09-.19,2.34.28,3.49.26.62.52,1.09,1.14,1.57.6.46,1.45.9,2.18.99,1.63.21,3.04.21,4.5-.2.8-.23,1.53-.6,2.17-1.03,1.21-.8,2.17-1.94,2.83-3.17.69-1.29,1.21-2.66,1.39-4.17Z"/>
        <path class="cls-3" d="m390.37,175.72c-1.98-1.19-5.49.54-2.9,2.1,1.95,1.17,5.51-.53,2.9-2.1Z"/>
        <path class="cls-3" d="m389.88,228.87c-.17.39-.45.7-.84.93l-.84.43h-.02s-.02.02-.02.02c-.27.15-.56.34-.85.44-1.05.36-2.16.49-3.29.27-.58-.11-1.19-.44-1.71-.85-.44-.18-.82-.42-1.14-.76-.36-.28-.63-.63-.8-1.05-.51-1.15-.62-2.32-.34-3.46.13-.52.42-1.02.69-1.47.28-.45.72-.83,1.12-1.18.38-.33.87-.57,1.33-.79.46-.22.99-.37,1.49-.42,1.83-.22,4.05.22,5.38,1.8.69.81,1,1.86.95,2.84-.03.54-.07,1.1-.26,1.59-.1.25-.23.48-.37.71l-.34.56c-.04.13-.04.28-.14.4Z"/>
        <path class="cls-3" d="m528.68,211.44c.27-1.2-.84-2.8-1.8-3.79-.54-.56-1.17-1.03-1.81-1.44l-.09-.1s-.08-.03-.12-.07l-.31-.17c-.39-.26-.77-.43-1.16-.47-.33-.12-.65-.32-.97-.39-2.22-.46-4.49-.23-6.35.47-1.75.66-3.46,1.65-4.32,3.32-.15.3-.19.63-.21.96-.14.12-.29.21-.42.34-.26.27-.59.6-.78.94-.12.17-.04.09.25-.25l-.46.53-.25.32c-.39.57-.19,1.69.27,2.43.59,1.04,1.41,1.74,2.34,2.41,1,.71,2.35,1.11,3.4,1.33.9.18,1.76.2,2.59.12,1.51-.15,2.93-.42,4.27-.96,2.6-1.04,5.21-2.45,5.9-5.53Z"/>
        <path class="cls-3" d="m495.3,233.84l-.11.02s-.06.04-.09.04c-.25.05-.64.14-.95.14h-.06s-.51.08-.51.08c-.55.05-1.12,0-1.69-.11-.46-.08-.9-.24-1.33-.49l-.57-.41c-.34-.27-.59-.62-.82-.98l-.21-.51c-.08-.27-.07-.52.03-.73.02-.1.11-.14.15-.22h-.08s.09-.16.09-.16c0-.19-.05-.39.03-.56.03-.22.13-.39.29-.51.18-.26.44-.43.77-.52h.04s.02-.03.02-.03c.39-.28.85-.43,1.37-.46.44-.04.89,0,1.35.14.49.08.94.27,1.38.54.41.23.78.52,1.1.89.33.29.59.64.79,1.03.25.48.35.96.29,1.43l-.22.61c-.13.19-.35.26-.53.39l.1.07c-.15.11-.33.16-.5.22-.04.02-.06.06-.11.08Z"/>
        <path class="cls-3" d="m455.77,283.6c.13-.33.16-.72.2-1.05.02-.16,0-.31-.02-.47-.03-.5-.18-.95-.47-1.35-.31-.46-.77-.81-1.3-1.06-.58-.28-1.2-.44-1.84-.48-.59-.04-1.15.04-1.7.24-.38.1-.71.3-1.05.49l-.15.1c-.18.14-.4.37-.56.54l-.05.06-.07.11c-.35.57-.34.57-.4,1.09-.02.23-.05.41-.02.63v.07s.05.17.05.17c-.06.23-.11.45-.2.67l-.06.52c.02.28.11.53.28.75.08.18.21.33.37.45.21.24.44.44.73.58.89.4,1.87.7,2.91.47.37-.08.76-.14,1.11-.31.32-.15.67-.3.96-.53.59-.48,1-.93,1.28-1.66Z"/>
        <path class="cls-3" d="m466.55,291.78c.2-.24.3-.52.3-.84l-.07-.6c-.13-.43-.36-.8-.68-1.12-.09-.09-.18-.17-.29-.23-.08-.09-.18-.17-.29-.23h-.03s-.05-.04-.05-.04l-.1-.06c-.5-.28-1.04-.45-1.62-.52-.52-.07-1.03-.02-1.53.12-.44.13-.81.36-1.12.7-.28.33-.42.71-.41,1.13.02.43.16.82.43,1.17.3.4.6.74,1.03.99.45.28.95.46,1.5.55.49.08.99.05,1.49-.09l.1-.02c.25-.04.42-.12.7-.27.29-.15.51-.36.65-.64Z"/>
        <path class="cls-3" d="m594.46,332.77c-2.59.25-5.46-1.17-7.2-4.41-.67-1.24-1.18-2.75-1.17-4.23,0-1.05.22-1.78.55-2.59.19-.46.53-.77.83-1.08.19-.19.4-.32.63-.41,1.55-.66,3.32-.5,5.08,0,.77.09,1.5.41,2.22.87l.19.11.15.12c.63.36,1.25.77,1.78,1.37.4.45.71,1.02.9,1.66.52.89.92,1.91,1.13,3.02.32,1.74.07,3.48-1.01,4.18-.41.27-.87.45-1.32.61-.88.33-1.81.69-2.76.77Z"/>
        <path class="cls-3" d="m523.83,342.42l.06-.06c.29-.35.45-.76.47-1.23.02-.52-.07-1.01-.26-1.48l-.04-.06-.14-.49-.31-.57c-.19-.3-.42-.55-.69-.74-.23-.23-.55-.38-.86-.48-.07-.02-.14-.05-.2-.08-.12-.05-.18-.05-.35-.08-.2-.07-.41-.09-.61-.06-.11,0-.21,0-.31.01h-.09s-.14.04-.14.04l-.11.04h-.07c-.38.08-.43.12-.63.23l-.15.09c-.07.04-.14.09-.22.12h0c-.29.15-.48.36-.6.65-.13.17-.17.35-.2.58-.1.33-.12.66-.04,1l.21.71.37.69c.23.36.52.66.86.9.29.27.63.48,1.01.61.34.11.63.18.97.22l.21.02h.05c.24.03.47.03.71,0,.44-.06.82-.26,1.13-.59Z"/>
        <path class="cls-3" d="m494.81,369.41c.13-.03.27-.07.39-.13.3-.14.61-.3.89-.47l.14-.1.09-.09c.18-.18.43-.46.58-.67l.04-.06c.38-.61.48-1.41.42-2.1-.07-.75-.39-1.56-.8-2.21v-.02c.08-.35.07-.68-.04-1.01-.06-.37-.2-.72-.42-1.04-.45-.66-1.08-1.27-1.88-1.55l-.64-.18c-.22-.06-.47-.14-.7-.18-.33-.05-.68-.03-1.01-.04h-.36c-.68.04-1.35.2-2.02.36-1.09.27-2.08.76-3.01,1.35-.51.33-.9.74-1.25,1.2-.08.1-.15.21-.2.33-.13.27-.25.55-.33.82l-.03.17c-.03.29-.07.59-.04.88.03.28.12.59.2.86l.03.08c.28.7.67,1.24,1.24,1.8.33.33.71.64,1.14.88.35.2.72.4,1.1.56l.28.1c.52.17,1.06.35,1.62.45.58.1,1.18.14,1.76.19.48.04.97.06,1.46,0,.46-.05.91-.12,1.36-.22Z"/>
        <path class="cls-3" d="m588.1,464.11l-.02-.02-.09-.08-.03-.02-.59-.58-.07-.1h0c-.1-.09-.21-.15-.29-.28-.38-.49-.67-1.08-.86-1.76-.08-.26-.08-.56-.12-.84-.05-.22-.15-.41-.18-.64-.07-.6-.05-1.21.07-1.82.11-.54.31-1.02.6-1.44.11-.15.26-.15.38-.25l.09-.09c.17-.22.36-.35.58-.39.18-.07.23-.13.35-.13h.06c.21.02.46.03.67.04.06,0,.12.03.17.05.12.05.5.22.71.36.12.08.23.22.33.31.23.17.41.4.56.7.1.13.18.27.26.42l.22.55c.06.17.14.37.21.56l.03.12c.16.52.24,1.07.24,1.65.05.52.01,1.05-.11,1.58l-.28.92-.43.75c-.25.36-.55.58-.88.66-.22.13-.43.17-.65.1-.35.02-.67-.09-.96-.34Z"/>
        <path class="cls-3" d="m572.17,460.05c.24-.06.46-.22.64-.48l.31-.55c.18-.45.28-.93.3-1.42v-.38s-.03-.89-.03-.89l-.18-.9c-.11-.44-.28-.81-.52-1.13-.12-.23-.27-.42-.45-.55-.14-.18-.31-.3-.5-.36-.16-.12-.34-.17-.53-.15-.18-.05-.35-.02-.53.09-.27.06-.51.24-.71.54l-.34.61-.23.74-.1.83.04.89.18.89c.11.44.28.81.51,1.13.11.23.26.42.44.55.21.25.46.41.75.49l.22.1c.24.09.47.07.71-.06Z"/>
        <g class="cls-4">
          <polygon class="cls-5" points="491.29 493.48 491.28 493.46 491.23 493.5 491.29 493.48"/>
          <path class="cls-5" d="m491.56,493.22l-.25.22c.09-.06.17-.13.25-.22Z"/>
          <polygon class="cls-5" points="491.28 493.46 491.3 493.44 491.27 493.45 491.28 493.46"/>
          <path class="cls-5" d="m489.66,495.41c.4-.52.64-1.12.83-1.74.06,0,.11.06.17.05.05,0,.09-.07.14-.08h.02c.15,0,.31-.09.45-.18l-.06-.06c.13-.08.28-.1.4-.24.09-.1.2-.2.27-.31.29-.47.38-.95.46-1.5.15-1.07-.02-2.09-.43-2.95l-.23-.43c-.32-.56-.65-1.14-1.03-1.62-.7-.87-1.54-1.64-2.4-2.25-1.7-1.21-3.92-2.09-6-1l-.72.62c-.35.41-.6.89-.74,1.44-.33.97-.48,2.13-.34,3.12.17,1.17.43,2.12.87,3.16.17.4.4.74.62,1.1.55.89,1.15,1.58,1.9,2.22.93.79,2.08,1.32,3.22,1.56.86.18,1.87.05,2.58-.89Z"/>
          <polygon class="cls-5" points="492.35 491.27 492.34 491.35 492.34 491.37 492.35 491.27"/>
          <path class="cls-5" d="m492.34,491.39v-.02c-.05.36-.12.86,0,.02Z"/>
          <path class="cls-5" d="m492.35,491.27v-.07c.04-.18.02-.09,0,.07Z"/>
          <path class="cls-5" d="m491.66,493.13s-.04.01-.05.03l-.05.06.11-.09Z"/>
          <polygon class="cls-5" points="491.68 493.11 491.66 493.13 491.67 493.12 491.68 493.11"/>
        </g>
        <path class="cls-3" d="m480,461.91l.59-.2h.02s.14-.1.14-.1c.28-.15.49-.39.65-.71.21-.29.35-.63.42-1.02l.1-.81c.01-.61-.07-1.19-.24-1.74l-.07-.24c-.1-.32-.19-.57-.37-.9-.14-.26-.29-.5-.47-.71-.31-.38-.69-.65-1.12-.79l-.1-.04-.42-.16-.57-.05c-.3.02-.57.16-.8.41-.18.12-.32.29-.42.52-.21.3-.35.65-.42,1.05l-.1.84.05.9c.06.48.17.93.36,1.33.14.42.34.78.6,1.08l.37.39.09.09c.31.39.68.65,1.11.8.2.07.4.09.61.05Z"/>
        <path class="cls-3" d="m570.82,600.95c-1.71-.24-3.34-.86-4.88-1.68-3.34-1.78-7.3-4.58-7.66-9.97-.09-1.33.26-3.01,1.33-3.71,1.25-.81,2.72-.8,4-.68,1.05-.4,2.17-.37,3.26-.2,1.51.24,2.9.94,4.22,1.76,2.58,1.59,5.3,4.45,6.01,8.31.31,1.69.3,4.59-1.39,5.52-.35.2-1.94.76-.85.33-.46.18-.92.33-1.39.4-.9.14-1.78.03-2.65-.09Z"/>
        <path class="cls-3" d="m533.53,575.98l-.5-.28-.45-.48-.37-.66-.28-.82c-.12-.42-.16-.87-.14-1.33,0-.19,0-.3,0-.46v-.05s.02-.11.02-.11c.04-.32.09-.65.16-.97l.03-.13c.21-.65.25-.79.62-1.31.13-.18.31-.33.48-.42.37-.21.66-.21,1.01-.11.19.05.36.15.52.29.07.08.17.17.22.23.06.07.14.15.22.23l.04.06c.15.22.28.47.41.72l.1.23c.15.31.24.66.28,1.04.06.23.08.47.06.73.02.23,0,.47-.06.7-.02.22-.07.44-.16.64l-.04.08c-.04.24-.06.49-.16.71-.06.25-.16.47-.31.65-.1.22-.24.39-.42.5-.15.17-.31.27-.5.29-.27.13-.53.14-.79.03Z"/>
        <path class="cls-3" d="m478.34,574.88c1.06-.8,1.65-2.04,1.89-3.44.26-.08.51-.15.79-.24.91-.31,1.09-2.11,1.07-2.99-.07-2.68-1.66-4.22-3.36-5.01-1.28-.59-2.76-.71-4.16-.64-1.5.07-3.01.46-4.5,1.07-1.18.48-2.48,1.32-3.41,2.56-1.59,2.13-1.28,5.04-.54,7.16,2.01,5.75,8.2,4.54,12.2,1.52Z"/>
        <g class="cls-4">
          <path class="cls-5" d="m446.92,591.7c-.41.06-.79-.04-1.12-.28-.4-.17-.73-.47-1.01-.9-.06-.08-.09-.17-.14-.26-.31-.45-.57-.95-.72-1.55-.24-.62-.38-1.3-.42-2.05v-1.39c.05-.44.13-.88.22-1.31.09-.4.22-.79.4-1.16l.57-.93.02-.02.03-.03.06-.07.11-.12c.08-.07.58-.53.66-.59h.01s.02-.03.02-.03l.03-.02h.01s.02-.01.02-.01h0s.02,0,.02,0c.04-.01.13-.05.26-.09.05-.02.07-.02.12-.04.15-.05.28-.1.3-.1h.02s.01,0,.01,0h.02s.03,0,.03,0c.11,0,.51.05.35.04-.07,0,.25.02.35.04l.07.02h.02c.18.11.46.27.64.37l.03.02.09.07c.21.21.42.44.62.67l.22.29c.32.46.55,1,.69,1.61.12.46.17.95.15,1.47,0,.1-.03.2-.03.3l.05.31c.07.89,0,1.78-.22,2.69-.19.79-.51,1.49-.96,2.08-.26.24-.51.49-.78.71-.24.19-.79.3-.79.3Z"/>
          <polygon class="cls-5" points="444.74 590.41 444.79 590.49 444.66 590.26 444.71 590.37 444.74 590.41"/>
          <polygon class="cls-5" points="444.66 590.26 444.66 590.25 444.24 589.51 444.66 590.26"/>
        </g>
        <path class="cls-3" d="m534.27,717.68c.7-.03,1.4-.16,2.09-.43.73-.28,1.63-.61,2.25-1.27.53-.41.92-.99,1.17-1.73.2-.61.33-1.23.33-1.87.12-1.8-.31-3.36-1.06-4.77-1.8-3.37-5.3-5.48-8.58-4.75-.6.13-1.08.52-1.48,1.03-.73.07-1.43.4-1.99,1.3-.45.71-.73,1.57-.84,2.46-.13,1.06-.15,2.31.06,3.31.39,1.87,1.2,3.64,2.38,4.77.94.89,1.89,1.43,3.04,1.75.85.24,1.76.23,2.64.2Z"/>
        <path class="cls-3" d="m501.44,705.45c.5-3.53-3.45-7.49-4.12-2.76-.51,3.58,3.46,7.46,4.12,2.76Z"/>
        <path class="cls-3" d="m445.73,711.12c-1.19-1.24-2.11-3.06-2.53-5.69-.22-1.43-.21-3.53.6-4.73,2.51-3.73,6.4-4.99,9.55-5.37,3.26-.4,7.25-.23,9.62,2.98.76,1.04,1.22,2.88.68,4.51-.2.61-.45,1.12-.7,1.6-.05.31-.09.61-.16.92-.62,2.42-2.2,4.21-3.69,5.29-1.75,1.26-3.65,2.09-5.52,2.46-1.16.23-2.35.29-3.51.14-.46.5-1.01.78-1.57.57-1.15-.43-2.08-1.31-2.76-2.69Z"/>
        <path class="cls-3" d="m439.94,725.59c.32-4.82-4.43-9.76-5-3.39-.36,4.89,4.54,9.79,5,3.39Z"/>
        <path class="cls-3" d="m430.86,755.65l.22-.19.33-.55.22-.72.09-.84c.02-.48-.01-.94-.11-1.39-.04-.34-.11-.65-.22-.94-.08-.33-.19-.62-.33-.87-.11-.29-.25-.53-.41-.72-.2-.33-.43-.57-.69-.73l-.28-.21c-.33-.22-.66-.26-1.01-.14-.33.14-.6.44-.81.92-.2.5-.31,1.06-.33,1.66-.03.52.01,1.01.11,1.48.07.54.19,1.04.38,1.49.23.61.52,1.12.87,1.52.31.35.65.56,1.02.62.34.05.65-.08.94-.4Z"/>
        <path class="cls-3" d="m547.44,833.98c1.05-.87,1.16-2.38.63-3.85-.62-1.74-1.91-3.08-3.37-3.77-2.63-1.24-5.37-1.46-8.05-1.4-1.11.02-2.21.13-3.3.31-1.26.21-2.4.71-3.53,1.3-.63.33-1,1.45-.93,2.36.08.98.4,1.89.86,2.74,1.07,1.95,2.88,3.43,4.61,3.17l1.03-.17c.24.11.44.29.69.38,1.4.52,2.77.76,4.17.77,2.41,0,5.2-.19,7.17-1.82Z"/>
        <path class="cls-3" d="m510.47,833.48c-.76-2.82-4.96-4.67-3.93-.86.78,2.89,4.95,4.62,3.93.86Z"/>
        <path class="cls-3" d="m464.17,856.83c.87-.73,1.86-1.37,2.59-2.36l.47-.57c1.3-.14,2.52-.65,3.71-1.28,1.99-1.06,3.75-2.71,5.23-4.84.69-.99.13-3.31-.4-4.63-.73-1.8-2.02-3.56-3.28-4.27-1.72-.96-3.34-1.25-4.89-.79-1.42.42-2.73,1.15-3.93,2.13-1.05.86-2.04,1.89-2.99,2.97-1.03,1.17-1.75,2.76-2.56,4.3-.91,1.72.43,5.1,1.53,6.79,1.25,1.93,3.24,3.63,4.53,2.54Z"/>
        <path class="cls-3" d="m445.77,886.58h-.02c-.11.04-.28.01-.38.01-.11,0-.24.01-.37-.02h-.03s-.73-.31-.73-.31l-.03-.02c-.28-.15-.57-.37-.85-.63l-.82-.87-.03-.03-.03-.03-.04-.05c-.2-.28-.58-.8-.78-1.08-.26-.4-.52-.87-.73-1.31l-.02-.03c-.28-.54-.48-1.11-.61-1.7-.13-.36-.19-.71-.2-1.05l-.05-.5v-.15s.02-.24.02-.24c.04-.42.08-.85.18-1.21.03-.12.08-.22.13-.31.22-.39.39-.74.71-.93.33-.19.65-.35,1-.47.38-.06.78.05,1.21.31l.7.53c.38.33.73.74,1.06,1.23.23.28.43.6.61.96.28.46.51.96.69,1.51l.26.97c.11.48.12.9.04,1.25,0,.17-.1.25-.15.38.1.3.23.58.28.89.12.53.13.99.04,1.38-.02.45-.14.78-.37.98-.04.07-.08.13-.13.17l-.06.04c-.15.09-.35.23-.51.29Z"/>
        <path class="cls-3" d="m473.78,917.68c-2.21-4.31-8.59-6.32-5.62-.47,2.26,4.43,8.58,6.23,5.62.47Z"/>
      </g>
    </g>
  </g>
</svg>