<?xml version="1.0" encoding="UTF-8"?>
<svg xmlns="http://www.w3.org/2000/svg" viewBox="0 0 1000 1000">
  <defs>
    <style>
      .cls-1 {
        opacity: .49;
      }

      .cls-1, .cls-2 {
        fill: #3eab81;
      }

      .cls-1, .cls-3, .cls-4 {
        mix-blend-mode: screen;
      }

      .cls-5, .cls-6, .cls-3 {
        fill: #68c5b3;
      }

      .cls-6 {
        mix-blend-mode: multiply;
      }

      .cls-7 {
        isolation: isolate;
      }
    </style>
  </defs>
  <g class="cls-7">
    <g id="_Слой_1" data-name="Слой 1">
      <g>
        <g>
          <path class="cls-5" d="m596.51,824.13c17.06,9.93,30.71,29.43,23.37,56.41-1.26,4.62-3.23,8.47-5.57,11.89-4.55,6.63-9.22,13.24-14.8,18.6-5.79,5.56-12.56,8.51-18.83,13.04-5.58,4.04-16.75,14.68-6.23,20.87,22.15,13.03,50.49-.85,63.8-24.49,8.81-15.65,12.57-35.24,9.56-54.11-.24-4.79-.92-9.51-2.53-14.39-2.94-8.96-7.17-17.61-11.73-25.16-5.68-9.38-12.47-17.26-19.87-23.88-7.19-7.5-15.14-13.64-23.45-18.22-18.94-10.44-40.63-14.95-60.83-16.75-12.7-1.14-25.47-.64-38.08,1.48-11.84,1.99-24.81,4.28-35.46,11.99-3.42,2.47-5.8,5.31-7.36,8.36-3.93,5.37-5.86,12.66-3.78,21.93,2.28,10.16,8.45,19.19,15.51,23.34,6.16,3.61,15.85,2.16,16.64-8.98.4-5.6-.18-8.92,3.61-12.49,1.69-1.59,3.57-2.82,5.51-3.87,12.96-7.02,29.19-9.86,42.85-8.64,23.36,2.09,45.82,10.41,67.65,23.09Z"/>
          <path class="cls-6" d="m579.59,795.32c-7.08,1.16-14.61-3.06-21.21-5.68-8.09-3.21-16.55-4.85-24.99-5.8-14.35-1.61-29.86-1.34-43.02,6.54-5.82,3.49-11.82,8.64-15.07,15.71-2.92,6.35-2.49,13.47.03,19.94.35.89.77,1.73,1.17,2.6.18-.8.34-1.64.4-2.58.4-5.6-.18-8.92,3.61-12.49,1.69-1.59,3.57-2.82,5.51-3.87,12.96-7.02,29.19-9.86,42.85-8.64,22.28,1.99,43.73,9.71,64.61,21.42,4.08-1.87,8.1-3.95,12.06-6.15,4.28-2.38,8.47-4.98,12.62-7.68.29-.19.59-.39.88-.58-1.74-1.79-3.53-3.5-5.35-5.13-7.19-7.5-15.14-13.64-23.45-18.22-.37-.2-.76-.37-1.13-.57-.52,5.36-3.78,10.26-9.52,11.2Z"/>
          <path class="cls-5" d="m617.89,834.57c20.9-16.39,32.59-46.02,27.86-75.7-.24-4.79-.92-9.51-2.53-14.39-2.94-8.96-7.17-17.61-11.74-25.16-5.68-9.38-12.47-17.26-19.87-23.88-7.19-7.5-15.14-13.64-23.45-18.22-18.94-10.44-40.63-14.95-60.83-16.76-12.7-1.14-25.47-.64-38.08,1.48-11.84,1.99-24.81,4.28-35.46,11.99-3.42,2.47-5.8,5.31-7.36,8.36-3.93,5.37-5.86,12.66-3.78,21.93,2.28,10.16,8.45,19.2,15.51,23.34,6.15,3.61,15.84,2.16,16.64-8.98.4-5.6-.18-8.92,3.61-12.49,1.69-1.59,3.57-2.82,5.51-3.87,12.96-7.02,29.19-9.86,42.85-8.64,23.36,2.09,45.82,10.41,67.65,23.09,17.06,9.93,30.71,29.43,23.37,56.41-3.03,11.13-10.06,17.98-16.99,24.3-.65.59-1.31,1.14-1.97,1.7-7.04,4.64-14.29,7.96-19.91,10.06-20.82,7.77-42.6,11.05-64.2,10.93-11.42-.07-23-.92-34.14-4.83-9.25-3.25-17.21-11.04-26.23-14.19-10.28-3.59-10.71,11.78-6.65,20.7,15.16,33.25,57.62,38.99,82.82,38.94,29.46-.06,61.5-5.83,87.35-26.11Z"/>
          <path class="cls-5" d="m617.89,834.57c20.9-16.39,32.59-46.02,27.86-75.7-.24-4.79-.92-9.51-2.53-14.39-2.94-8.96-7.17-17.61-11.74-25.16-5.68-9.38-12.47-17.26-19.87-23.88-7.19-7.5-15.14-13.64-23.45-18.22-18.94-10.44-40.63-14.95-60.83-16.76-12.7-1.14-25.47-.64-38.08,1.48-11.84,1.99-24.81,4.28-35.46,11.99-3.42,2.47-5.8,5.31-7.36,8.36-3.93,5.37-5.86,12.66-3.78,21.93,2.28,10.16,8.45,19.2,15.51,23.34,6.15,3.61,15.84,2.16,16.64-8.98.4-5.6-.18-8.92,3.61-12.49,1.69-1.59,3.57-2.82,5.51-3.87,12.96-7.02,29.19-9.86,42.85-8.64,23.36,2.09,45.82,10.41,67.65,23.09,17.06,9.93,30.71,29.43,23.37,56.41-3.03,11.13-10.06,17.98-16.99,24.3-.65.59-1.31,1.14-1.97,1.7-7.04,4.64-14.29,7.96-19.91,10.06-20.82,7.77-42.6,11.05-64.2,10.93-11.42-.07-23-.92-34.14-4.83-9.25-3.25-17.21-11.04-26.23-14.19-10.28-3.59-10.71,11.78-6.65,20.7,15.16,33.25,57.62,38.99,82.82,38.94,29.46-.06,61.5-5.83,87.35-26.11Z"/>
          <path class="cls-6" d="m594.44,716.66c1.77,1.03,3.49,2.19,5.17,3.42,6.75-5.32,13.4-10.82,19.41-17.26-2.39-2.6-4.84-5.1-7.4-7.39-6.61-6.9-13.88-12.58-21.47-17.02.06.58.12,1.16.1,1.77-.25,6.65-5.73,9.67-10.38,10.53-15.31,2.82-31.06-3.89-46.36-4.5-9.12-.36-18.37,1.28-27.17,4.07-7.08,2.24-14.68,5.35-20.52,11.02,12.64-6.32,27.96-8.89,40.98-7.73,23.36,2.09,45.82,10.41,67.65,23.09Z"/>
          <path class="cls-2" d="m617.89,834.57c15.37-12.06,25.75-31.27,28.3-52.4-1.44-5.76-4.28-10.94-7.93-13.83-6.46-5.13-13.47-3.62-19.45.98-4.55,24.28-25.17,34.33-39.87,39.82-20.82,7.77-42.6,11.05-64.2,10.93-11.42-.07-23-.92-34.14-4.83-9.25-3.25-17.21-11.04-26.23-14.19-10.28-3.59-10.71,11.78-6.65,20.7,15.16,33.25,57.62,38.99,82.82,38.94,29.46-.06,61.5-5.83,87.35-26.11Z"/>
          <path class="cls-5" d="m615.82,727.11c20.9-16.4,32.59-46.02,27.86-75.7-.24-4.79-.92-9.51-2.53-14.39-2.94-8.96-7.17-17.61-11.73-25.16-5.68-9.38-12.47-17.26-19.87-23.88-7.19-7.5-15.14-13.64-23.45-18.22-18.94-10.44-40.63-14.95-60.83-16.76-12.71-1.14-25.47-.64-38.08,1.48-11.84,1.99-24.81,4.28-35.46,11.99-3.42,2.47-5.8,5.31-7.36,8.36-3.93,5.37-5.86,12.66-3.78,21.93,2.28,10.16,8.45,19.19,15.51,23.34,6.16,3.61,15.84,2.16,16.65-8.98.4-5.6-.18-8.92,3.61-12.49,1.69-1.59,3.57-2.82,5.51-3.87,12.96-7.02,29.19-9.86,42.85-8.64,23.36,2.09,45.82,10.41,67.65,23.1,17.06,9.93,30.71,29.43,23.37,56.41-3.03,11.13-10.06,17.98-16.99,24.3-.65.59-1.31,1.14-1.97,1.7-7.04,4.64-14.29,7.96-19.91,10.06-20.82,7.77-42.6,11.05-64.2,10.93-11.42-.07-23-.92-34.14-4.83-9.25-3.25-17.21-11.04-26.23-14.19-10.28-3.59-10.71,11.78-6.65,20.7,15.16,33.25,57.62,38.99,82.82,38.94,29.45-.06,61.5-5.83,87.35-26.11Z"/>
          <path class="cls-6" d="m472.74,611.11c.4-5.6-.18-8.92,3.61-12.49,1.69-1.59,3.57-2.82,5.51-3.87,12.96-7.02,29.19-9.86,42.85-8.64,23.36,2.09,45.82,10.41,67.65,23.09.86.5,1.71,1.04,2.55,1.59,3.11-2.05,6.22-4.12,9.27-6.29,3.67-2.61,7.49-4.91,11.08-7.68.58-.44,1.16-.92,1.74-1.4-2.41-2.63-4.88-5.15-7.46-7.46-6.87-7.16-14.44-13.04-22.34-17.55.04,4.11-2.2,7.84-5.62,9.37-4.75,2.12-10.63,1.31-15.56.95-7.89-.59-15.75-1.77-23.63-2.63-14.85-1.62-30.27-1.81-44.83,2.41-12.13,3.52-24.88,10.99-29.13,26.47-1.24,4.51-1.67,9.22-1.47,13.89,3.03-1.43,5.4-4.51,5.78-9.77Z"/>
          <path class="cls-2" d="m615.82,727.11c15.37-12.06,25.75-31.27,28.29-52.4-1.44-5.76-4.28-10.94-7.93-13.83-6.46-5.13-13.47-3.62-19.45.98-4.55,24.28-25.17,34.33-39.87,39.82-20.82,7.77-42.6,11.05-64.2,10.93-11.42-.07-23-.92-34.14-4.83-9.25-3.25-17.21-11.04-26.23-14.19-10.28-3.59-10.71,11.78-6.65,20.7,15.16,33.25,57.62,38.99,82.82,38.94,29.45-.06,61.5-5.83,87.35-26.11Z"/>
          <path class="cls-5" d="m613.75,619.64c20.9-16.39,32.59-46.02,27.86-75.7-.24-4.79-.92-9.51-2.53-14.39-2.94-8.96-7.17-17.61-11.74-25.16-5.68-9.38-12.47-17.26-19.87-23.88-7.19-7.5-15.14-13.64-23.45-18.22-18.94-10.44-40.63-14.95-60.83-16.75-12.7-1.14-25.47-.64-38.08,1.48-11.84,1.99-24.81,4.28-35.46,11.99-3.41,2.47-5.8,5.31-7.36,8.36-3.93,5.37-5.86,12.66-3.78,21.93,2.28,10.16,8.45,19.19,15.51,23.34,6.16,3.61,15.84,2.16,16.64-8.99.4-5.6-.18-8.92,3.61-12.49,1.69-1.59,3.57-2.82,5.51-3.87,12.96-7.02,29.19-9.86,42.85-8.64,23.36,2.09,45.82,10.41,67.65,23.09,17.06,9.93,30.71,29.43,23.37,56.41-3.03,11.13-10.06,17.98-16.99,24.3-.65.59-1.31,1.14-1.97,1.7-7.04,4.64-14.29,7.96-19.91,10.06-20.82,7.77-42.6,11.05-64.2,10.93-11.42-.07-23-.92-34.14-4.83-9.25-3.25-17.21-11.04-26.23-14.19-10.28-3.59-10.71,11.78-6.65,20.7,15.16,33.25,57.62,38.99,82.82,38.94,29.46-.06,61.5-5.83,87.35-26.11Z"/>
          <path class="cls-6" d="m577.96,461.74c4.99,14.31-14.01,13.79-20.19,12.43-8.11-1.78-16.03-4.23-24.25-5.2-7.83-.92-15.73-1.26-23.58-.86-12.8.65-31.86,3.51-38.33,19.45-2.16,5.32-2.19,10.89-.95,16.2,0-.04.01-.07.01-.11.4-5.6-.18-8.92,3.61-12.49,1.69-1.59,3.57-2.82,5.51-3.87,12.96-7.02,29.19-9.86,42.85-8.64,23.36,2.09,45.82,10.41,67.65,23.09.45.26.89.56,1.34.84,3.62-1.89,7.24-3.8,10.92-5.63,4.05-2.01,8.1-4.02,11.97-6.53.54-.35,1.09-.71,1.65-1.09-2.79-3.14-5.67-6.12-8.7-8.82-7.19-7.5-15.14-13.64-23.45-18.22-2.5-1.38-5.05-2.64-7.63-3.81.61,1.03,1.15,2.11,1.55,3.26Z"/>
          <path class="cls-2" d="m613.75,619.64c15.37-12.06,25.75-31.27,28.3-52.4-1.44-5.76-4.28-10.94-7.93-13.83-6.46-5.13-13.47-3.62-19.45.98-4.55,24.28-25.17,34.33-39.87,39.82-20.82,7.77-42.6,11.05-64.2,10.93-11.42-.07-23-.92-34.14-4.83-9.25-3.25-17.21-11.04-26.23-14.19-10.28-3.59-10.71,11.78-6.65,20.7,15.16,33.25,57.62,38.99,82.82,38.94,29.46-.06,61.5-5.83,87.35-26.11Z"/>
          <path class="cls-5" d="m611.68,512.17c20.9-16.4,32.59-46.02,27.86-75.7-.24-4.79-.92-9.51-2.53-14.39-2.94-8.96-7.17-17.61-11.73-25.16-5.68-9.38-12.47-17.26-19.87-23.88-7.19-7.5-15.14-13.64-23.45-18.22-18.94-10.44-40.63-14.95-60.83-16.76-12.7-1.14-25.47-.64-38.08,1.48-11.84,1.99-24.81,4.28-35.46,11.99-3.41,2.47-5.8,5.31-7.36,8.36-3.93,5.37-5.86,12.66-3.78,21.93,2.28,10.16,8.45,19.19,15.51,23.34,6.16,3.61,15.85,2.16,16.64-8.99.4-5.6-.18-8.92,3.61-12.49,1.69-1.59,3.57-2.82,5.51-3.87,12.96-7.02,29.19-9.86,42.85-8.64,23.36,2.09,45.82,10.41,67.65,23.09,17.06,9.93,30.71,29.43,23.37,56.41-3.03,11.13-10.06,17.98-16.99,24.3-.65.59-1.31,1.14-1.97,1.7-7.04,4.64-14.29,7.96-19.91,10.06-20.82,7.77-42.6,11.05-64.21,10.93-11.42-.07-23-.92-34.14-4.83-9.25-3.25-17.21-11.04-26.23-14.19-10.28-3.59-10.71,11.78-6.65,20.7,15.16,33.25,57.62,38.99,82.82,38.94,29.46-.06,61.5-5.83,87.35-26.11Z"/>
          <path class="cls-6" d="m575.93,368.94c-6.99-.99-13.88-3.44-20.78-5.12-8.54-2.07-17.15-3.8-25.83-4.7-14.23-1.48-29.1-1.24-42.78,4.13-11.59,4.54-25.81,15.73-22.79,33.17.44,2.53,1.15,4.96,2.04,7.29,1.51-1.72,2.56-4.18,2.8-7.53.4-5.6-.18-8.92,3.61-12.49,1.69-1.59,3.57-2.82,5.51-3.87,12.96-7.02,29.19-9.86,42.85-8.64,23.36,2.09,45.82,10.41,67.65,23.09,1.72,1,3.39,2.12,5.02,3.32,8.13-3.55,16.12-7.51,23.78-12.3-3.64-4.48-7.52-8.58-11.62-12.24-4.49-4.68-9.3-8.77-14.28-12.34-2.48,7.23-9.32,9.08-15.2,8.24Z"/>
          <path class="cls-2" d="m611.68,512.17c15.37-12.06,25.75-31.27,28.3-52.4-1.44-5.76-4.28-10.94-7.93-13.83-6.46-5.13-13.47-3.62-19.45.98-4.55,24.28-25.17,34.33-39.87,39.82-20.82,7.77-42.6,11.05-64.21,10.93-11.42-.07-23-.92-34.14-4.83-9.25-3.25-17.21-11.04-26.23-14.19-10.28-3.59-10.71,11.78-6.65,20.7,15.16,33.25,57.62,38.99,82.82,38.94,29.46-.06,61.5-5.83,87.35-26.11Z"/>
          <path class="cls-5" d="m609.61,404.71c20.9-16.4,32.59-46.02,27.86-75.7-.24-4.79-.92-9.51-2.53-14.39-2.94-8.96-7.17-17.61-11.74-25.16-5.68-9.38-12.47-17.26-19.87-23.88-7.19-7.5-15.14-13.64-23.45-18.22-18.94-10.44-40.63-14.95-60.83-16.75-12.71-1.14-25.47-.64-38.08,1.48-11.84,1.99-24.81,4.28-35.46,11.99-3.41,2.47-5.8,5.31-7.36,8.36-3.93,5.37-5.86,12.66-3.78,21.93,2.28,10.16,8.45,19.19,15.51,23.34,6.16,3.61,15.84,2.16,16.64-8.98.4-5.6-.18-8.92,3.61-12.49,1.69-1.59,3.57-2.82,5.51-3.87,12.96-7.02,29.19-9.86,42.85-8.64,23.36,2.09,45.82,10.41,67.65,23.09,17.06,9.93,30.71,29.43,23.37,56.41-3.03,11.13-10.06,17.98-16.99,24.3-.65.59-1.31,1.14-1.97,1.7-7.04,4.64-14.29,7.96-19.91,10.06-20.82,7.77-42.6,11.05-64.2,10.93-11.42-.07-23-.92-34.14-4.83-9.25-3.25-17.21-11.04-26.23-14.19-10.28-3.59-10.71,11.78-6.65,20.7,15.16,33.25,57.62,38.99,82.82,38.94,29.46-.06,61.5-5.83,87.35-26.11Z"/>
          <path class="cls-6" d="m470.14,276.22c1.69-1.59,3.57-2.82,5.51-3.87,12.96-7.02,29.19-9.86,42.85-8.64,23.36,2.09,45.82,10.41,67.65,23.09.69.4,1.37.85,2.06,1.29,7.64-4.74,15.16-9.72,22.43-15.23-2.36-2.56-4.78-5.02-7.3-7.28-7.19-7.5-15.14-13.64-23.45-18.22-.66-.36-1.34-.66-2.01-1.01.08.44.19.86.22,1.32,1.25,16.95-18.78,9.2-25.88,7.75-18.64-3.79-37.58-7.32-56.45-4.89-7.72.99-15.43,3.02-22.61,6.64-5.45,2.75-11.62,7.1-13.14,14.66-1.63,8.1,1.51,14.07,6.33,18.33.07-.47.15-.94.18-1.46.4-5.6-.18-8.92,3.61-12.49Z"/>
          <path class="cls-5" d="m606.86,297.25c20.9-16.39,32.59-46.02,27.86-75.7-.24-4.79-.92-9.51-2.53-14.39-2.94-8.96-7.17-17.61-11.74-25.16-5.68-9.38-12.47-17.26-19.87-23.88-7.19-7.5-15.14-13.64-23.45-18.22-18.94-10.44-40.63-14.95-60.83-16.76-12.7-1.14-25.47-.64-38.08,1.48-11.84,1.99-24.81,4.28-35.46,11.99-3.41,2.47-5.8,5.31-7.36,8.36-3.93,5.37-5.86,12.66-3.78,21.93,2.28,10.16,8.45,19.19,15.51,23.34,6.16,3.61,15.84,2.16,16.64-8.99.4-5.6-.18-8.92,3.61-12.49,1.69-1.59,3.57-2.82,5.51-3.87,12.96-7.02,29.19-9.86,42.85-8.64,23.36,2.09,45.82,10.41,67.65,23.09,17.06,9.93,30.71,29.43,23.37,56.41-3.03,11.13-10.06,17.98-16.99,24.3-.65.59-1.31,1.14-1.97,1.7-7.04,4.64-14.29,7.96-19.91,10.06-20.82,7.77-42.6,11.05-64.2,10.93-11.42-.07-23-.92-34.14-4.83-9.25-3.25-17.21-11.04-26.23-14.19-10.28-3.59-10.71,11.78-6.65,20.7,15.16,33.25,57.62,38.99,82.82,38.94,29.46-.06,61.5-5.83,87.35-26.11Z"/>
          <path class="cls-6" d="m564.5,152.07c-12.15-1.98-24.01-6.25-36.11-8.69-11.26-2.27-22.85-2.88-34.18-1.22-10.14,1.49-21.49,5.23-28.57,14.84-4.96,6.74-4.53,13.63-1.6,19.61.21-3.04.75-5.39,3.35-7.85,1.69-1.59,3.57-2.82,5.51-3.87,12.96-7.02,29.19-9.86,42.85-8.64,23.03,2.06,45.18,10.2,66.72,22.58,8.21-4.32,16.14-9.42,23.08-15.95-1.62-1.65-3.27-3.25-4.96-4.76-3.73-3.89-7.67-7.4-11.76-10.53-6.8,5.95-16.03,5.83-24.34,4.48Z"/>
          <path class="cls-2" d="m604.8,190.27c27.27-21.39,38.9-65.31,18.77-102.48-17.42-32.17-49.16-48.53-77.28-47.99-17.97.35-6.49,21.06-3.14,21.12,26.71.48,62.96,16.65,67.38,48.58,4.35,31.44-27.66,48.99-44.68,55.34-20.82,7.77-42.6,11.05-64.21,10.93-11.42-.07-23-.92-34.14-4.83-9.25-3.25-17.21-11.04-26.23-14.19-10.28-3.59-10.71,11.78-6.65,20.7,15.16,33.25,57.62,38.99,82.82,38.94,29.46-.06,61.5-5.83,87.35-26.11Z"/>
          <path class="cls-2" d="m606.86,297.25c15.37-12.06,25.75-31.27,28.3-52.4-1.44-5.76-4.28-10.94-7.93-13.83-6.46-5.13-13.47-3.62-19.45.98-4.55,24.28-25.17,34.33-39.87,39.82-20.82,7.77-42.6,11.05-64.2,10.93-11.42-.07-23-.92-34.14-4.83-9.25-3.25-17.21-11.04-26.23-14.19-10.28-3.59-10.71,11.78-6.65,20.7,15.16,33.25,57.62,38.99,82.82,38.94,29.46-.06,61.5-5.83,87.35-26.11Z"/>
          <path class="cls-2" d="m609.61,404.71c15.37-12.06,25.75-31.27,28.3-52.4-1.44-5.76-4.28-10.94-7.93-13.83-6.46-5.13-13.47-3.62-19.45.98-4.55,24.28-25.17,34.33-39.87,39.82-20.82,7.77-42.6,11.05-64.2,10.93-11.42-.07-23-.92-34.14-4.83-9.25-3.25-17.21-11.04-26.23-14.19-10.28-3.59-10.71,11.78-6.65,20.7,15.16,33.25,57.62,38.99,82.82,38.94,29.46-.06,61.5-5.83,87.35-26.11Z"/>
        </g>
        <path class="cls-1" d="m526.94,193.1c14.32-.75,28.56-3.53,42.29-8.51,19.9-7.22,44.37-20,54.9-43.59,5.41-12.12,5.7-25.42-.74-37.09-.56-1.02-2.18-.96-1.77.61,6.19,23.93-10.56,42.37-25.48,53.67-20.23,15.31-44.71,22-68.22,24.32-15.14,1.49-30.27,1.07-45.41,1.88-1.49.08-.58,2.44.29,2.86,13.59,6.67,29.73,6.6,44.15,5.85Z"/>
        <path class="cls-1" d="m529.01,300.5c14.32-.75,28.56-3.53,42.29-8.51,19.9-7.22,44.37-20,54.9-43.59,5.41-12.12,5.7-25.42-.74-37.09-.56-1.02-2.18-.96-1.77.61,6.19,23.93-10.56,42.37-25.48,53.67-20.23,15.31-44.71,22-68.21,24.32-15.14,1.49-30.27,1.07-45.41,1.88-1.49.08-.58,2.44.29,2.86,13.59,6.67,29.73,6.6,44.15,5.85Z"/>
        <path class="cls-1" d="m531.02,405.17c14.32-.75,28.56-3.53,42.29-8.51,19.9-7.22,44.37-20,54.9-43.59,5.41-12.12,5.7-25.42-.74-37.09-.56-1.02-2.18-.96-1.77.61,6.19,23.93-10.56,42.37-25.48,53.67-20.23,15.31-44.71,22-68.21,24.32-15.14,1.49-30.27,1.07-45.41,1.88-1.49.08-.58,2.44.29,2.86,13.59,6.67,29.73,6.6,44.15,5.85Z"/>
        <path class="cls-1" d="m533.09,512.57c14.32-.75,28.56-3.53,42.29-8.51,19.9-7.22,44.37-20,54.9-43.59,5.41-12.12,5.7-25.42-.74-37.09-.56-1.02-2.18-.96-1.77.61,6.19,23.93-10.56,42.37-25.48,53.67-20.23,15.31-44.71,22-68.22,24.32-15.14,1.49-30.27,1.07-45.41,1.88-1.49.08-.58,2.44.29,2.86,13.59,6.67,29.73,6.6,44.15,5.85Z"/>
        <path class="cls-1" d="m535.16,619.97c14.32-.75,28.56-3.53,42.29-8.51,19.9-7.22,44.37-20,54.9-43.59,5.41-12.12,5.7-25.42-.74-37.09-.56-1.02-2.18-.96-1.77.61,6.19,23.93-10.56,42.37-25.48,53.67-20.23,15.31-44.71,22-68.22,24.32-15.14,1.49-30.27,1.07-45.41,1.88-1.49.08-.58,2.44.29,2.86,13.59,6.67,29.73,6.6,44.15,5.85Z"/>
        <path class="cls-1" d="m537.23,727.37c14.32-.75,28.56-3.53,42.29-8.51,19.9-7.22,44.37-19.99,54.9-43.59,5.41-12.12,5.7-25.42-.74-37.09-.56-1.02-2.18-.96-1.77.61,6.19,23.93-10.56,42.37-25.48,53.67-20.23,15.31-44.71,22-68.21,24.32-15.14,1.49-30.27,1.07-45.41,1.88-1.49.08-.58,2.44.29,2.86,13.59,6.67,29.73,6.6,44.15,5.85Z"/>
        <path class="cls-1" d="m539.38,838.77c14.32-.75,28.56-3.53,42.29-8.51,19.9-7.22,44.37-20,54.9-43.59,5.41-12.12,5.7-25.42-.74-37.09-.56-1.02-2.18-.96-1.77.61,6.19,23.93-10.56,42.37-25.48,53.67-20.23,15.31-44.71,22-68.22,24.32-15.14,1.49-30.27,1.07-45.41,1.88-1.49.08-.58,2.44.29,2.86,13.59,6.67,29.73,6.6,44.15,5.85Z"/>
        <path class="cls-1" d="m610.64,911.25c-4.92,3.72-10.09,6.91-15.43,9.68-2.64,1.88-5.37,3.79-7.5,6.48-1.12,1.41-3.57,4.97-1.53,6.49,1.34,1,3.28,1.02,5.05.84,18.2-7.6,38.17-19.97,47.41-40.68,5.41-12.12,5.7-25.42-.74-37.09-.56-1.02-2.18-.96-1.77.61,6.19,23.93-10.56,42.37-25.48,53.67Z"/>
        <path class="cls-3" d="m507.85,135.39c1.1-.49,2.26-1.13,3.15-2.1,1.26-1.37.88-3.68-.02-5.21-.93-1.56-2.31-2.89-3.86-3.33-1.35-.38-2.65-.33-4,.01-.15.04-.28.1-.43.14-.16,0-.33,0-.49.02-1.16.09-2.34.26-3.46.71-.95.38-1.97.93-2.68,1.83-.38.49-.62.91-.69,1.62-.07.68,0,1.54.3,2.14.65,1.35,1.34,2.43,2.39,3.34.58.5,1.23.87,1.9,1.15,1.24.53,2.61.71,3.91.61,1.36-.1,2.7-.36,3.98-.94Z"/>
        <path class="cls-3" d="m484.35,135.75c-.04-2.13-3.16-4.07-3.1-1.24.04,2.13,3.16,4.06,3.1,1.24Z"/>
        <path class="cls-3" d="m443.44,164.57c.2-.01.41-.03.61-.06.25-.03.5-.05.74-.13.48-.15.93-.46,1.35-.76.77-.55,1.39-1.45,1.63-2.52.46-2.07-.43-4.19-1.6-5.63-.33-.4-.71-.76-1.12-1.02-.41-.26-.85-.54-1.3-.66-.48-.13-1-.28-1.5-.26-.49.03-1.03.07-1.5.27-1.02.44-1.9,1.21-2.47,2.36-.22.41-.34.85-.35,1.34-.08.49-.05.97.05,1.46-.02.7.06,1.44.3,2.01.46,1.12,1.16,1.99,2.01,2.67.24.19.53.32.8.46,0,0,.02,0,.02.01,0,0,.01.01.02.01.26.15.53.3.79.44.38.18.77.23,1.16.14.14.01.25-.08.37-.13Z"/>
        <path class="cls-3" d="m544.56,247.8c.9-.62,1.04-2.18.93-3.29-.06-.63-.25-1.24-.46-1.83,0-.04,0-.07,0-.11,0-.04-.04-.06-.05-.1-.04-.09-.08-.17-.12-.26-.13-.36-.31-.66-.57-.89-.17-.24-.28-.54-.47-.74-1.37-1.44-3.01-2.51-4.76-3.07-1.63-.52-3.42-.84-5.07-.25-.29.1-.53.29-.74.5-.17,0-.33-.03-.5-.01-.34.03-.78.06-1.13.17-.19.05-.08.04.33-.02l-.65.08c-.13.02-.25.04-.38.07-.63.15-1.2.98-1.33,1.72-.18.99,0,1.9.29,2.84.31,1,1.05,2,1.69,2.69.54.59,1.16,1.07,1.81,1.45,1.18.69,2.38,1.26,3.66,1.6,2.5.67,5.22,1.06,7.53-.54Z"/>
        <path class="cls-3" d="m507.3,244.73c.16.05.32.13.5.14-.01-.04-.02-.07-.03-.11.21.01.41.1.62.04.17-.1.35-.2.52-.3.32-.3.53-.69.63-1.17.09-.39.1-.79.03-1.18-.02-.44-.11-.87-.28-1.27-.16-.45-.38-.85-.66-1.19-.23-.37-.51-.67-.85-.9-.38-.29-.79-.45-1.24-.49,0,0-.02,0-.03,0,0,0-.02-.01-.03-.02-.28-.14-.57-.17-.86-.1-.19-.01-.36.04-.52.18-.16.07-.25.24-.37.37-.05.02-.1.04-.16.05.02.02.03.03.05.05-.08.03-.17,0-.24.06-.21.09-.37.25-.48.49-.06.16-.12.33-.17.49-.08.39-.07.79,0,1.18.06.21.12.42.18.63.17.44.4.82.68,1.15.35.42.74.79,1.17,1.08.13.09.28.16.42.24.01.01.03.03.04.04.23.19.56.34.78.46.03.02.06.01.09.03.03.02.06.04.09.05.04.02.08,0,.12,0Z"/>
        <path class="cls-3" d="m449.5,260.04c.28-.23.51-.57.71-.87.1-.14.17-.3.23-.46.25-.5.36-1.04.35-1.63-.01-.67-.14-1.31-.37-1.92-.26-.67-.61-1.26-1.05-1.77-.4-.46-.86-.8-1.37-1.01-.33-.19-.69-.24-1.05-.31-.06-.01-.11-.02-.17-.02-.21,0-.51.06-.72.09-.02,0-.05,0-.07.01-.04.01-.08.03-.11.04-.59.27-.58.28-.93.72-.15.2-.28.35-.39.58l-.03.07c-.02.06-.04.13-.07.19-.17.17-.34.35-.53.49-.11.15-.23.3-.35.45-.15.28-.23.59-.24.92-.05.23-.04.47,0,.7.02.39.1.76.25,1.11.47,1.07,1.07,2.08,1.99,2.63.33.19.66.41,1.02.5.33.08.68.2,1.02.18.71-.04,1.26-.19,1.87-.68Z"/>
        <path class="cls-3" d="m453.51,275.47c.27-.12.49-.33.64-.65.08-.22.15-.43.23-.65.1-.52.1-1.05,0-1.57-.03-.15-.07-.29-.12-.43-.02-.15-.06-.29-.12-.43v-.03s-.03-.04-.04-.06c-.02-.04-.04-.08-.05-.12-.23-.6-.54-1.13-.94-1.58-.36-.41-.77-.71-1.23-.91-.4-.17-.81-.19-1.23-.07-.39.14-.7.41-.93.83-.22.45-.33.93-.32,1.46.01.6.12,1.17.33,1.71.23.6.54,1.13.94,1.58.36.41.77.71,1.23.91.03.02.06.03.09.05.22.12.39.15.69.18.3.04.58-.03.83-.22Z"/>
        <path class="cls-3" d="m554.92,358.15c.44-.07.89-.14,1.32-.29,1.11-.39,1.64-1.67,1.64-3.02,0-.87-.2-1.68-.51-2.43-.06-.51-.24-.99-.53-1.39-.39-.53-.89-.94-1.4-1.32-.04-.04-.08-.08-.12-.11-.05-.04-.1-.07-.16-.11-.58-.46-1.21-.83-1.87-1.03-1.46-.68-3.02-1.12-4.58-.88-.23.04-.45.1-.67.21-.35.19-.73.37-1.01.7-.49.57-.79,1.1-.97,1.93-.26,1.16-.05,2.43.35,3.51,1.04,2.82,3.43,4.31,5.85,4.47.88.06,1.8-.1,2.66-.23Z"/>
        <path class="cls-3" d="m485.76,355.17s.04-.03.06-.04c.32-.3.54-.7.63-1.19.1-.54.1-1.08,0-1.61,0-.02-.02-.04-.03-.07-.02-.18-.04-.36-.05-.54-.06-.23-.13-.45-.19-.67-.13-.36-.3-.67-.52-.94-.18-.29-.41-.53-.67-.71-.06-.03-.11-.09-.16-.13-.1-.08-.15-.09-.3-.17-.16-.12-.34-.2-.53-.21-.09-.03-.19-.05-.29-.06-.03,0-.05,0-.08,0-.04,0-.09,0-.13,0-.04,0-.07.01-.11.01-.02,0-.04-.02-.06-.01-.36-.02-.42.01-.62.08-.05.02-.11.04-.16.06-.07.03-.15.06-.22.07,0,0,0,0,0,0-.29.08-.53.26-.7.55-.16.15-.26.34-.31.57-.15.33-.21.69-.19,1.07.03.27.05.54.08.81.08.28.16.55.24.83.16.44.37.83.65,1.16.23.36.5.65.83.88.3.19.55.33.85.44.06.02.13.05.19.07.01,0,.03.01.04.02.21.08.43.13.65.15.42.03.79-.1,1.13-.39Z"/>
        <path class="cls-3" d="m455.56,381.91c.13-.03.26-.07.38-.12.29-.15.59-.32.87-.51.05-.03.1-.07.14-.11.03-.03.06-.07.09-.1.19-.21.44-.54.6-.79.02-.02.03-.05.05-.07.42-.73.58-1.73.58-2.6,0-.96-.22-2.01-.55-2.89,0,0,0-.02,0-.02.1-.43.11-.85.04-1.28-.02-.48-.12-.94-.31-1.38-.37-.9-.91-1.77-1.64-2.27-.19-.13-.39-.23-.58-.34-.2-.11-.43-.26-.64-.35-.3-.12-.63-.16-.94-.23-.11-.02-.22-.04-.34-.06-.64-.08-1.28,0-1.91.1-1.03.15-2,.62-2.9,1.25-.5.35-.89.84-1.26,1.39-.08.13-.15.26-.21.41-.14.34-.28.7-.37,1.06-.02.07-.03.15-.04.23-.05.39-.11.8-.11,1.19,0,.38.06.83.12,1.2,0,.04.01.08.02.12.2.99.52,1.78,1,2.62.28.49.6.95.98,1.33.31.31.63.62.97.88.08.06.16.12.25.17.47.28.95.58,1.46.77.53.2,1.08.3,1.62.43.44.1.9.17,1.35.15.43-.02.86-.07,1.28-.16Z"/>
        <path class="cls-3" d="m553.55,464.06c.21.02.4-.05.57-.19.29-.12.51-.35.67-.69.08-.23.16-.46.24-.68.03-.26.05-.53.08-.79,0-.45-.07-.88-.21-1.3-.11-.47-.29-.9-.54-1.3-.02-.03-.04-.06-.06-.09-.1-.14-.21-.29-.3-.42-.1-.14-.19-.28-.3-.41-.1-.11-.21-.21-.32-.29-.19-.21-.4-.37-.64-.47-.11-.06-.23-.15-.36-.2-.22-.08-.6-.15-.72-.17-.06-.01-.11-.01-.17-.01-.2.01-.43.05-.62.08-.02,0-.04,0-.05,0-.11.02-.15.08-.3.16-.2.07-.35.21-.47.42-.03.03-.05.06-.07.09-.09.1-.23.13-.3.27-.19.39-.28.81-.28,1.27,0,.52.11,1.02.29,1.49.07.19.2.32.29.49.09.22.15.46.27.66.31.52.68.94,1.13,1.28.09.09.21.12.32.17h0s.05.05.08.07c.22.12.44.25.65.37.01,0,.02,0,.03.01.03.01.07.03.1.05,0,0,.02,0,.02.01.31.15.62.19.94.11Z"/>
        <path class="cls-3" d="m537.27,463.41c.21-.09.38-.26.49-.5l.18-.5c.08-.4.08-.81,0-1.21-.02-.1-.05-.21-.07-.32-.07-.24-.14-.48-.2-.72-.11-.23-.23-.47-.34-.7-.19-.34-.42-.62-.69-.84-.15-.17-.32-.3-.51-.38-.16-.12-.34-.19-.52-.21-.17-.07-.34-.08-.51-.03-.17-.01-.33.04-.47.16-.24.1-.42.29-.55.56-.07.19-.13.37-.2.56-.02.22-.04.43-.06.65.02.23.05.47.07.7.07.24.14.48.2.72.11.23.23.47.34.7.19.34.42.62.69.84.15.17.32.3.51.38.24.17.5.26.78.27.07.01.15.03.22.04.23.03.45-.02.64-.17Z"/>
        <g class="cls-4">
          <path class="cls-5" d="m470.45,506.56s-.01,0-.02-.01c-.01.01-.02.03-.03.04.02-.01.03-.02.05-.03Z"/>
          <path class="cls-5" d="m470.64,506.28c-.06.08-.12.16-.18.24.07-.07.13-.15.18-.24Z"/>
          <path class="cls-5" d="m470.43,506.55s.01-.02.02-.03c0,0-.02.01-.03.02,0,0,0,0,0,0Z"/>
          <path class="cls-5" d="m469.39,508.51c.25-.52.34-1.07.38-1.64.05-.01.11.03.16.01.05-.02.06-.08.11-.1,0,0,.01,0,.02,0,.14-.03.26-.14.37-.25-.02-.01-.04-.03-.07-.04.1-.1.23-.14.31-.28.06-.11.13-.2.17-.31.16-.46.14-.87.09-1.35-.1-.93-.47-1.75-1.03-2.39-.1-.11-.2-.22-.3-.32-.41-.41-.84-.83-1.29-1.16-.83-.59-1.76-1.07-2.67-1.41-1.8-.68-4.01-.97-5.66.36l-.51.67c-.23.42-.35.87-.36,1.37-.09.89.03,1.9.38,2.7.41.96.85,1.71,1.48,2.49.24.3.53.54.8.8.69.64,1.39,1.09,2.21,1.48,1.02.47,2.18.69,3.26.65.82-.03,1.71-.34,2.15-1.28Z"/>
          <path class="cls-5" d="m470.93,504.49s0,.04,0,.07c0,0,0,.01,0,.02,0-.03,0-.06,0-.08Z"/>
          <path class="cls-5" d="m470.95,504.59s0-.01,0-.02c.03.31.08.75,0,.02Z"/>
          <path class="cls-5" d="m470.93,504.49s0-.04,0-.06c-.02-.15,0-.07,0,.06Z"/>
          <path class="cls-5" d="m470.71,506.18s-.03.02-.04.04c-.01.02-.02.04-.03.06.03-.03.05-.07.08-.1Z"/>
          <path class="cls-5" d="m470.73,506.17s0,.01-.01.02c0,0,0,0,0,0v-.02Z"/>
        </g>
        <path class="cls-3" d="m453.52,481.95c.16-.1.33-.19.49-.29,0,0,.01,0,.01-.01.04-.03.08-.07.11-.1.22-.19.37-.43.45-.73.13-.29.19-.61.17-.96-.02-.24-.05-.48-.07-.72-.11-.53-.29-1.02-.56-1.46l-.11-.19c-.15-.25-.28-.45-.51-.71-.17-.2-.36-.38-.57-.53-.36-.27-.75-.43-1.17-.47-.03,0-.07,0-.1-.01-.14-.02-.28-.04-.42-.05-.18.02-.35.04-.53.07-.27.08-.49.24-.65.51-.14.14-.24.31-.28.53-.14.31-.19.64-.17.99.03.25.05.5.08.75.07.26.15.51.22.77.14.41.34.77.6,1.08.21.33.47.61.77.82.14.09.28.18.42.27.03.02.07.04.1.06.36.27.75.43,1.17.47.2.02.39,0,.57-.07Z"/>
        <path class="cls-3" d="m569.39,577.21c.4-.16.79-.38,1.16-.62-.89.58.42-.22.69-.45,1.31-1.12.65-3.48-.02-4.78-1.54-2.99-4.66-4.72-7.36-5.46-1.39-.38-2.8-.65-4.23-.52-1.03.09-2.05.31-2.9.85-1.18.17-2.51.47-3.46,1.39-.81.79-.73,2.22-.34,3.28,1.58,4.29,5.81,5.72,9.24,6.46,1.58.34,3.2.5,4.8.33.81-.08,1.64-.18,2.41-.49Z"/>
        <path class="cls-3" d="m528.16,565.19c.16-.06.29-.17.38-.34.13-.13.22-.29.26-.49.09-.18.13-.38.13-.6.03-.2,0-.41-.02-.61,0-.03.02-.05.02-.08.04-.18.03-.37,0-.55,0-.2-.04-.4-.11-.58-.04-.21-.12-.4-.22-.58-.12-.3-.29-.56-.5-.78-.05-.06-.1-.11-.15-.16-.17-.17-.35-.35-.54-.49-.02-.01-.03-.03-.05-.04-.08-.05-.18-.1-.25-.14-.06-.04-.17-.1-.25-.14-.17-.08-.35-.12-.54-.13-.34,0-.6.06-.89.31-.13.11-.26.27-.33.44-.21.5-.22.62-.26,1.19,0,.04,0,.07,0,.11.02.27.04.55.08.82,0,.03,0,.06.02.09,0,.02,0,.03,0,.04.02.13.06.22.1.37.09.38.23.73.43,1.05.14.21.29.41.44.61.16.15.33.3.49.45.17.1.34.19.52.29.17.04.34.08.52.12.26.04.49-.03.7-.19Z"/>
        <path class="cls-3" d="m477.29,576.12c.77-.86,1.02-1.98.92-3.15.21-.11.43-.22.66-.35.75-.44.5-1.92.27-2.62-.68-2.15-2.48-3.07-4.2-3.34-1.29-.21-2.65.01-3.91.36-1.33.38-2.62,1.01-3.81,1.82-.96.65-1.94,1.59-2.49,2.77-.94,2.04,0,4.29,1.17,5.84,3.15,4.18,8.47,1.92,11.39-1.33Z"/>
        <g class="cls-4">
          <path class="cls-5" d="m453.38,595.53c.19-.22.37-.47.55-.71.28-.56.41-1.17.4-1.83-.01-.75-.15-1.47-.42-2.15-.04-.08-.08-.16-.11-.23-.02-.08-.01-.17-.04-.24-.09-.41-.25-.78-.47-1.12-.27-.46-.6-.83-.99-1.13-.09-.07-.17-.13-.27-.19-.23-.14-.47-.28-.71-.4-.03-.02-.06-.03-.1-.04-.01,0-.02,0-.04-.01-.19-.05-.48-.12-.66-.16,0,0-.01,0-.02,0-.02,0-.04,0-.06,0-.1,0-.4.05-.33.04.14-.02-.23.02-.33.04-.01,0-.02,0-.03,0,0,0-.01,0-.02,0h-.01s-.01.01-.01.01c-.02,0-.13.07-.25.14-.04.02-.06.03-.1.06-.1.06-.18.11-.21.13,0,0-.01,0-.02,0,0,0,0,0,0,0,0,0-.02.01-.02.01,0,0,0,0-.01,0,0,0-.02.01-.02.02,0,0-.01.01-.02.02,0,0,0,0,0,0-.06.06-.41.52-.46.6-.03.04-.05.08-.07.12-.01.02-.02.04-.03.06,0,.01-.01.02-.02.03,0,0,0,.01-.01.02-.1.28-.2.56-.3.85-.08.33-.11.66-.1.99.01.36.05.71.11,1.07.1.36.21.73.31,1.09.2.58.49,1.09.85,1.52.28.44.62.78,1.01,1.07.06.06.12.12.19.17.34.28.72.45,1.12.51.35.13.71.13,1.07,0,.01,0,.48-.2.65-.39Z"/>
          <path class="cls-5" d="m450.46,595.35s.04.03.06.05c-.06-.05-.11-.1-.17-.15.03.02.04.06.07.08.01,0,.02.02.03.02Z"/>
          <path class="cls-5" d="m450.36,595.25s0,0,0,0c-.18-.16-.36-.33-.54-.5.18.17.36.34.55.5Z"/>
        </g>
        <path class="cls-3" d="m556.45,681.39c.65-.1,1.28-.3,1.88-.61.64-.33,1.43-.72,1.94-1.36.45-.42.74-.97.88-1.64.13-.55.14-1.1.05-1.65-.16-1.55-.78-2.83-1.68-3.93-2.16-2.63-5.7-3.9-8.61-2.84-.53.19-.92.59-1.22,1.06-.66.16-1.26.53-1.64,1.35-.31.66-.44,1.4-.41,2.16.03.9.21,1.94.55,2.75.63,1.51,1.56,2.9,2.79,3.71.98.64,1.92.98,3.02,1.13.82.11,1.66,0,2.47-.14Z"/>
        <path class="cls-3" d="m524.51,675.29c-.06-2.89-4.28-5.51-4.21-1.68.06,2.89,4.28,5.51,4.21,1.68Z"/>
        <path class="cls-3" d="m476.54,687.35c.54.1,1.02-.16,1.39-.56,1.09,0,2.19-.16,3.24-.44,1.69-.45,3.36-1.24,4.83-2.34,1.26-.95,2.51-2.43,2.8-4.28.04-.24.04-.47.04-.7.18-.38.33-.8.43-1.28.26-1.29-.43-2.62-1.28-3.31-2.65-2.12-6.35-1.75-9.3-1.07-2.85.66-6.25,2.05-8.04,5.04-.57.97-.36,2.45.02,3.45.69,1.83,1.76,3.04,3.01,3.82.79.92,1.75,1.47,2.86,1.67Z"/>
        <path class="cls-3" d="m469.81,696.47c-.07-3.39-5.02-6.46-4.93-1.97.06,3.39,5.02,6.46,4.93,1.97Z"/>
        <path class="cls-3" d="m463.14,717.53c.06-.04.13-.09.19-.13.1-.13.19-.25.29-.38.06-.16.12-.33.17-.49.02-.19.04-.38.06-.57,0-.32-.05-.63-.15-.93-.05-.23-.12-.43-.24-.62-.08-.22-.2-.41-.34-.57-.11-.19-.25-.34-.41-.47-.2-.21-.42-.36-.68-.46-.09-.04-.18-.09-.27-.13-.31-.13-.63-.15-.94-.06-.3.1-.54.32-.71.64-.17.34-.25.72-.24,1.12,0,.34.05.67.16.99.08.36.22.69.41.98.24.4.53.73.87.99.3.23.62.35.97.39.32.02.61-.07.86-.3Z"/>
        <path class="cls-3" d="m564.01,785.77c1.15-.5,1.59-1.81,1.44-3.25-.17-1.69-1.03-3.18-2.19-4.1-2.1-1.67-4.53-2.4-6.96-2.88-1.01-.2-2.03-.32-3.06-.38-1.19-.07-2.33.14-3.49.42-.65.16-1.24,1.01-1.38,1.78-.15.83-.07,1.63.15,2.43.52,1.83,1.82,3.44,3.45,3.62.33.04.65.05.98.09.19.15.33.34.54.47,1.15.76,2.34,1.28,3.61,1.62,2.18.58,4.76,1.11,6.92.18Z"/>
        <path class="cls-3" d="m530.66,777.55c-.04-2.31-3.42-4.4-3.36-1.34.04,2.3,3.42,4.4,3.36,1.34Z"/>
        <path class="cls-3" d="m483.36,785.7c.95-.31,2-.55,2.89-1.06.18-.1.37-.19.56-.29,1.2.13,2.43,0,3.66-.2,2.05-.35,4.02-1.13,5.86-2.3.85-.54.89-2.19.71-3.15-.25-1.32-1.01-2.7-1.99-3.35-1.34-.89-2.75-1.3-4.26-1.21-1.37.09-2.72.38-4.03.86-1.15.42-2.27.94-3.38,1.5-1.2.61-2.22,1.52-3.3,2.37-1.21.95-.79,3.27-.2,4.5.68,1.41,2.07,2.81,3.49,2.34Z"/>
        <path class="cls-3" d="m459.05,800.11s.04,0,.06-.01c.06-.02.11-.04.16-.07.26-.07.47-.24.62-.49.2-.21.32-.47.38-.8.04-.19.01-.38.02-.57.08-.07.18-.09.24-.19.18-.19.29-.43.34-.73l.06-.61c0-.35-.05-.68-.16-1-.05-.24-.13-.47-.25-.67-.14-.34-.33-.64-.57-.9-.16-.14-.31-.29-.47-.43-.3-.23-.63-.36-.98-.39-.35,0-.68.04-1.03.1-.33.05-.59.22-.9.41-.07.04-.14.09-.21.16-.19.19-.36.42-.52.65-.03.04-.06.09-.08.13-.02.03-.03.06-.05.08-.03.1-.07.2-.1.29-.1.19-.14.4-.14.63-.06.36-.04.71.04,1.07,0,0,0,.01,0,.02.05.28.14.6.25.87.08.2.27.57.36.76,0,.01.01.02.02.03,0,0,0,.02.01.02,0,0,0,.02.02.02.16.21.31.43.47.65.17.2.36.38.56.52,0,0,.02.01.03.02.18.1.37.21.55.31,0,0,.01,0,.02.01.1.04.23.06.32.08.08.02.23.07.33.07,0,0,.02,0,.02,0,.16,0,.38-.04.54-.07Z"/>
        <path class="cls-3" d="m470.99,824.55c-.06-3.09-4.58-5.9-4.51-1.8.06,3.09,4.58,5.9,4.51,1.8Z"/>
      </g>
    </g>
  </g>
</svg>