<?xml version="1.0" encoding="UTF-8"?>
<svg xmlns="http://www.w3.org/2000/svg" viewBox="0 0 1000 1000">
  <defs>
    <style>
      .cls-1, .cls-2, .cls-3 {
        fill: #fbc41d;
      }

      .cls-4 {
        fill: #c3591b;
      }

      .cls-2, .cls-5 {
        mix-blend-mode: multiply;
      }

      .cls-5 {
        fill: #f7b224;
      }

      .cls-3, .cls-6 {
        mix-blend-mode: screen;
      }

      .cls-7 {
        isolation: isolate;
      }
    </style>
  </defs>
  <g class="cls-7">
    <g id="_Слой_1" data-name="Слой 1">
      <g>
        <g>
          <path class="cls-1" d="m484.62,919.76c-8.6.88-18.19.71-28.22-.98-4.96-1-10.04-2.39-15.16-4.2-5.1-1.88-10.32-3.87-15.32-6.97-5.04-2.97-10.03-6.43-14.88-10.36-4.8-4.1-9.35-9.06-13.68-14.32-8.55-10.83-15.77-24.6-20-40.89-5.17-20.93-4.28-41.1,1.49-57.61-9.08-15.26-15.09-34.37-17.01-54.64-2.41-25.44,1.74-50.19,9.16-70.03,7.46-20.1,18.06-35.64,30.38-47.23-1.74-19.6,1.22-39.02,6.96-56.38,5.77-17.45,14.54-33.31,25.45-46.99,4.31-5.43,8.76-10.27,13.53-14.65-2.42-5.96-4.53-12.18-5.73-18.7-4.01-20.23-2.05-37.75,3.74-53.81,1.46-4.01,3.24-7.9,5.24-11.7,1.89-3.83,4.05-7.56,6.44-11.18,2.35-3.56,5.12-7.31,7.76-10.45,2.62-3.1,5.46-6.15,8.47-9.14-1.99-2.62-3.71-5.33-5.53-8.1-17.88-28.21-18.18-55.75-6.87-85.26,1.13-2.88,2.5-5.73,3.64-8.52-10.66-6.3-19.94-13.76-27.92-21.99-7.75-8.33-14.34-17.39-18.84-27.8-5.48-12.37-7.27-25.05-6.91-38.42-14-4.89-25.79-12.76-33.83-25.05-7.28-11.17-11.32-25.21-11.85-39.44-.42-14.26,2.63-28.77,11.85-40.5.86-3.25,5.31-4.07,9.14-2.86,3.81,1.16,6.83,4.15,5,7.78-4.97,10.01-5.51,22.8-3.68,35.2,1.89,12.41,6.17,24.43,12.57,33.17,1.89,2.66,3.93,4.89,6.15,6.73,2.16,1.89,4.44,3.45,6.9,4.66,3.14-17.15,8.89-35.06,16.06-52.34,7.18-17.26,15.67-33.71,24.56-47.33,5.79-8.86,12.49-18.63,21.09-25.99,8.63-7.36,19.21-12.26,32.88-10.71,14.03,1.64,28.25,10.59,38.81,23.21,10.53,12.65,17.27,28.84,17.71,43.67.25,8.29-1.08,16.08-3.32,23.15-2.33,7.14-5.76,13.68-9.72,19.56-7.9,11.75-18.46,21.21-28.19,28.56-11.06,8.34-23.82,14.43-37.23,18.39-6.71,1.98-13.56,3.42-20.47,4.37-6.99.98-14.02,1.45-20.97,1.41-1.04-.04-2.09-.07-3.14-.11-.27,2.77-.38,5.53-.29,8.28.24,5.75,1.02,11.38,2.83,16.53,1.5,5.29,4.16,10.08,6.99,14.67,1.48,2.27,3.15,4.43,5.01,6.48,1.73,2.09,3.63,4.06,5.71,5.9,4.25,3.65,8.82,6.89,13.96,9.44,6.39-10.86,13.24-21.28,21.12-31.52,7.51-10.1,16.11-20.06,24.59-29.38,11.13-12.06,26.77-25.62,44.3-31.19,17.4-5.5,37.76-2.77,55.62,20.05,4.1,5.45,7.43,10.79,9.64,16.09,2.19,5.3,3.58,10.44,4.28,15.35,1.27,9.86-.55,18.84-3.81,26.55-7.19,15.62-20.5,26.24-32.16,32.94-15.96,9.33-33.65,16.21-51.77,19.01-18.11,2.85-36.69,1.7-54.23-3.82-1.87,3.5-3.56,7.01-5.05,10.54-.75,1.76-1.44,3.53-2.08,5.3-.7,1.78-1.41,3.58-2.02,5.37-3.85,11.62-4.89,21.1-3.11,29.38,1.39,8.3,5.91,15.37,11.45,21.64,17.43-14.12,36.86-26.96,54.83-35.28,14.04-6.38,31.41-12.82,48.3-13.57,16.96-.71,33.67,4.54,46.07,22.99,5.49,8.67,8.93,18.04,9.95,27.17.87,9.1.1,18.13-2.67,26.2-2.8,8.06-7.06,15.32-12.31,21.25-5.37,5.5-11.75,9.69-18.61,12.48-19.37,7.87-41.53,9.69-62.97,5.97-21.33-3.69-42.03-12.82-58.79-26.57-4.15,4.25-7.95,8.78-11.44,13.58-3.62,4.77-6.88,9.83-9.68,15.2-4.89,9.29-7.73,17.56-8.39,25.23-.92,7.61.18,14.57,2.74,20.97,29.3-17.49,64.07-22.5,97.23-22.65,18.62-.03,42.04.52,55.5,17.73,14.9,18.68,10.68,52.14-6.55,72.72-27.4,32.57-74.03,23.74-101.26,13.09-16.99-6.69-33.73-18.28-47.02-33.24-5.6,4.77-10.84,10.17-15.46,16.07-10.77,13.97-20.81,32.85-22.7,52.15,12.7-5.98,26.88-10.31,41.39-12.73,14.57-2.43,29.38-3.01,43.49-1.24,14.08,1.79,27.35,5.98,38.52,13.28,11.17,7.28,20.24,17.83,25.86,31.75,6.51,16.22,5.45,33.27-.37,47.33-5.96,14.26-16.22,24.87-29.73,31.35-13.49,6.4-28.33,7.82-43.58,6.84-15.16-1.07-30.26-5.17-42.99-11.07-9.88-4.56-19.42-10.56-27.94-18.46-4.21-3.89-8.12-8.19-11.71-12.98-3.59-4.81-6.82-10.09-9.55-15.6-8.34,8.61-15.31,19.84-19.82,33.42-4.23,13.95-6.21,30.28-2.83,48.58,1.24,7.27,3.65,14.21,6.14,20.25,15.89-17.56,35.8-25.3,52.13-28.72,12.93-2.64,26.21-3.19,39.22-1.81,13.02,1.37,25.8,4.65,37.82,9.14,5.64,2.07,10.85,4.85,15.89,7.47,5.01,2.64,9.08,5.66,12.86,8.08,1.84,1.25,3.25,2.57,4.61,3.75,1.42,1.15,2.51,2.29,3.18,3.48,1.72,2.32,1.81,4.66.95,7.97-4.44,13.31-19.89,34.67-42.86,49.7-11.28,7.54-24.45,13.64-37.63,17.05-13.13,3.43-26.5,4.13-38.13,1.98-4.99-1.03-10.04-2.56-15.2-4.55-5.12-2.02-10.48-4.39-15.4-7.68-1.11,4.64-1.49,9.21-1.46,14.03.08,4.75.4,9.99,1.68,14.8,1.28,5.07,3.12,9.61,5.37,13.59,2.23,4.01,5.11,7.01,8.1,9.77,3.03,2.69,6.3,4.88,9.71,6.62,3.49,1.58,7.12,2.71,10.76,3.5,7.3,1.55,14.64,1.74,21.4,1.11,6.81-.71,12.96-2.06,17.74-3.31,26.66-6.94,52.05-22.7,72.49-39.97,6.43-5.35,17.35-3.04,24.54,2.14,7.71,5.19,11.92,13.61,4.55,21.03-13.36,13.31-29.01,26.04-46.44,36.08-17.39,9.96-36.78,17.57-57.05,19.74Zm-25.36-783.11c-4.73,11.23-9.77,23.2-13.47,35.34,21.61-4.01,44.51-16.65,56.43-28.09,6.35-6.04,12.63-12.7,17.9-20.35,5.24-7.63,9.64-16.36,11.6-26.14.68-3.32.97-7.63.69-12.18-.36-4.48-1.28-9.18-2.85-13.28-3.23-8.13-9.08-13.73-17.7-10-13.21,5.7-23.29,18.13-31.78,32.11-4.25,7.02-8.07,14.42-11.5,21.65-3.48,7.28-6.63,14.44-9.33,20.94Zm63.61,109.85c-4.77,5.52-9.81,11.66-14.18,17.95,19.14,1.19,39.16-2.73,55.41-9.26,11.57-4.61,23.58-11.23,33.5-20.04,2.06-1.84,4.7-4.89,7.02-8.56,2.26-3.66,4.25-7.96,5.26-12.28,2.15-8.65-.13-17.24-11.57-19.64-15.25-3.18-29.29,5.31-42,16.44-6.37,5.6-12.29,11.86-17.93,18.01-5.7,6.18-10.95,12.2-15.51,17.38Zm-1.32,135.95c8.67,3.81,17.88,6.59,26.6,8.06,18.07,3.05,36.97,2.58,55.11-4.51,2.66-1.01,9-3.68,14.38-7.6,5.42-3.89,10.01-9.05,9.18-14.45-1.85-11.28-27.19-9.66-32.63-9.22-11.89,1.03-24.33,4.29-36.79,9.1-6.19,2.41-12.33,5.2-18.29,8.33-2.98,1.56-5.92,3.2-8.8,4.92-2.95,1.72-5.9,3.51-8.75,5.37Zm61.88,117.26c-24.04-1.96-50.69-.93-75.17,4.4-.48.13-2.51.67-4.34,1.34-2.41.88-4.83,1.76-7.27,2.73l-.47.21c18.59,11.96,42.51,18.58,60.4,18.39,11.5-.09,24.58-.76,35.65-8.31,5.47-3.74,7.67-8.12,11.76-13.51-1.13-.64-2.33-1.38-2.65-1.52-5.57-2.46-11.89-3.23-17.9-3.73Zm-95.62,121.22c-15.26.55-32.52,4.25-48.64,12.12,10.02,15.43,26.04,27.4,43.43,34.04,17.32,6.63,35.83,8.14,50.85,2.76,5.96-2.18,23.65-11.47,23.63-21.18-.06-5.71-10.54-13.47-13.87-15.83-15.73-11.27-36.22-12.56-55.41-11.9Zm-26.93,145.63c-4.88,2.18-10.28,5.06-15.8,8.83-5.45,3.76-11.29,8.49-16.03,14.11,20.93,9.63,43.41,6.65,61.26.69,7.45-2.49,15.67-6.1,22.74-10.51,3.63-2.2,7.1-4.58,10.03-7.08,2.98-2.5,5.22-5.11,7.34-7.87,1.03-1.38,1.8-4.5,2.76-5.76-.3-.09-.62-.17-.91-.18-7.47-.4-14.09-1.61-21.86-1.67-17.13-.1-33.37,2.3-49.52,9.43Z"/>
          <path class="cls-5" d="m484.62,919.76c-8.6.88-18.19.71-28.22-.98-4.96-1-10.04-2.39-15.16-4.2-5.1-1.88-10.32-3.87-15.32-6.97-5.04-2.97-10.03-6.43-14.88-10.36-4.8-4.1-9.35-9.06-13.68-14.32-8.55-10.83-15.77-24.6-20-40.89-5.17-20.93-4.28-41.1,1.49-57.61-9.08-15.26-15.09-34.37-17.01-54.64-2.41-25.44,1.74-50.19,9.16-70.03,7.46-20.1,18.06-35.64,30.38-47.23-1.74-19.6,1.22-39.02,6.96-56.38,5.77-17.45,14.54-33.31,25.45-46.99.76-.88,1.48-1.71,2.23-2.58-5.44,7.01-10.49,15.27-10.97,24.49-.1,2.34,1.55,3.93,3.64,3.46,7.36-1.66,12.71-8.28,18.46-13.3,7.39-6.33,15.84-11.52,24.06-16.08,8.57-4.69,17.11-8.69,26.01-11.9,8.9-3.2,17.97-5.63,27.02-7.22,15.95-2.77,32.44-3.56,48.23-2.09,14.79,1.4,30.48,4.99,41.51,17.16,6.06,6.68,11.38,16.44,10.5,28.33-.06.94-.23,1.83-.36,2.73-2.34,5.02-5.25,9.72-8.77,13.86-27.4,32.57-74.03,23.74-101.26,13.09-16.99-6.69-33.73-18.28-47.02-33.24-5.6,4.77-10.84,10.17-15.46,16.07-10.77,13.97-20.81,32.85-22.7,52.15,6.83-3.2,14.12-5.95,21.66-8.18-12.68,4.84-25.07,11.85-36.95,21.95-4.88,4.3-9.67,8.87-14.34,13.76-2.2,2.35-4.31,4.82-6.07,7.56-1.77,2.72-3.19,5.75-4,9.42-.67,2.98,1.67,4.51,3.5,3.93,16.69-5.5,31.87-18.05,48.13-23.49,17.52-5.74,35.56-6.44,52.59-4.53,15.35,1.73,30.33,5.77,43.84,13.1,12.22,6.6,23.7,16.78,29.22,31.49,1.39,3.87,2.61,8.57,3.21,13.45.29,2.45.43,4.96.36,7.43-.04,2.43-.22,4.72-.7,6.95-1.42,1.79-2.94,3.52-4.58,5.17-1.63,1.64-3.24,3.05-5.03,4.47-3.52,2.77-7.59,5.38-11.69,7.27-13.49,6.4-28.33,7.82-43.58,6.84-15.16-1.07-30.26-5.17-42.99-11.07-9.88-4.56-19.42-10.56-27.94-18.46-4.21-3.89-8.12-8.19-11.71-12.98-3.59-4.81-6.82-10.09-9.55-15.6-8.34,8.61-15.31,19.84-19.82,33.42-4.23,13.95-6.21,30.28-2.83,48.58,1.24,7.27,3.65,14.21,6.14,20.25,3.04-3.3,6.22-6.21,9.45-8.88-2.75,2.88-5.47,5.92-8.11,9.21-2.5,3.32-4.83,6.92-7.05,10.85-2.17,3.84-4.88,8.83-6.26,14.6-1.41,5.72-2.36,12.36-.42,18.65.74,2.66,2.61,5.72,4.26,4.88,8.46-4.3,13.78-14.26,21.46-21.22,7.94-7.42,16.13-13.65,25.37-17.9,18.51-8.71,38-12.23,57.79-12.1,11.18,0,27.01,1.26,40.04,3.8,3.25.63,6.31,1.33,9.07,2.11,2.92.75,5.55,1.56,7.74,2.49,1.09.47,2.08.96,2.93,1.5.88.54,1.84,1.11,2.54,1.74,1.58,1.28,2.12,2.69,2.94,4.68.35,1.05.4,2.11.22,3.19-.09.54-.23,1.09-.43,1.64-.1.58-.26,1.16-.46,1.75-1.94,3.64-4.93,7.34-7.9,11.24-2.95,3.89-6.48,7.8-10.46,11.62-8.02,7.63-17.47,14.88-28.01,20.72-10.52,5.84-22.23,10.37-33.64,12.72-11.46,2.39-22.92,2.66-33.04.8-4.99-1.03-10.04-2.56-15.2-4.55-5.12-2.02-10.48-4.39-15.4-7.68-1.11,4.64-1.49,9.21-1.46,14.03.08,4.75.4,9.99,1.68,14.8,1.28,5.07,3.12,9.61,5.37,13.59,2.23,4.01,5.11,7.01,8.1,9.77,3.03,2.69,6.3,4.88,9.71,6.62,3.49,1.58,7.12,2.71,10.76,3.5,7.3,1.55,14.64,1.74,21.4,1.11,6.81-.71,12.96-2.06,17.74-3.31,26.66-6.94,52.05-22.7,72.49-39.97,6.43-5.35,17.35-3.04,24.54,2.14,7.71,5.19,11.92,13.61,4.55,21.03-13.36,13.31-29.01,26.04-46.44,36.08-17.39,9.96-36.78,17.57-57.05,19.74Zm48.83-249.91c5.96-2.18,23.65-11.47,23.63-21.18-.06-5.71-10.54-13.47-13.87-15.83-15.73-11.27-36.22-12.56-55.41-11.9-15.26.55-32.52,4.25-48.64,12.12,10.02,15.43,26.04,27.4,43.43,34.04,17.32,6.63,35.83,8.14,50.85,2.76Zm23.12-143.06c11.5-.09,24.58-.76,35.65-8.31,5.47-3.74,7.67-8.12,11.76-13.51-1.13-.64-2.33-1.38-2.65-1.52-5.57-2.46-11.89-3.23-17.9-3.73-24.04-1.96-50.69-.93-75.17,4.4-.48.13-2.51.67-4.34,1.34-2.41.88-4.83,1.76-7.27,2.73l-.47.21c18.59,11.96,42.51,18.58,60.4,18.39Zm-66.26,263.41c7.45-2.49,15.67-6.1,22.74-10.51,3.63-2.2,7.1-4.58,10.03-7.08,2.98-2.5,5.22-5.11,7.34-7.87,1.03-1.38,1.8-4.5,2.76-5.76-.3-.09-.62-.17-.91-.18-7.47-.4-14.09-1.61-21.86-1.67-17.13-.1-33.37,2.3-49.52,9.43-4.88,2.18-10.28,5.06-15.8,8.83-5.45,3.76-11.29,8.49-16.03,14.11,20.93,9.63,43.41,6.65,61.26.69Z"/>
          <path class="cls-5" d="m427.71,875.68c5.63,6.92,12.44,11.71,19.15,15.6,6.69,3.96,13.8,5.95,20.3,7.13,4.26.72,8.47,1.19,12.61,1.44,4.16.22,8.35.1,12.41-.12,8.16-.48,16.03-1.68,23.56-3.38,27.7-6.46,52.07-19.68,74.45-34.98,4.56-7.19-.42-14.76-7.92-19.32-7.09-4.55-17.19-6.34-23.23-1.28-20.44,17.27-45.83,33.03-72.49,39.97-7.99,2.06-19.9,4.61-31.99,3.31-6.07-.61-12.29-2.02-18.11-4.71-5.69-2.93-11.02-7.15-15.39-12.85,1.91,3.15,4.13,6.24,6.65,9.2Z"/>
          <path class="cls-5" d="m430.66,584.09c-5.17,2.21-10.2,4.82-15.15,7.87-4.97,3.13-9.83,6.66-14.55,10.49.03,3.34.13,6.74.43,10.07-1.5,1.4-2.96,2.85-4.39,4.35,13.36-8.48,26.07-18.07,39.09-25.89-2.44.99-4.84,2.01-7.18,3.1.31-3.33.96-6.67,1.75-10Z"/>
          <path class="cls-5" d="m391,740.4c-3.42,4.59-6.76,9.49-9.99,14.69-3.03,5.26-5.81,10.9-8.5,16.85,1.72,4.37,4.13,8.54,6.35,12.48-.67,2.02-1.3,4.1-1.87,6.23,3.47-6.48,6.62-12.95,10.27-19.33.96-1.95,1.93-3.76,2.82-5.34,1.08-1.92,2.27-3.62,3.41-5.39l2.89-4.86,3.15-4.71c-1.26,1.21-2.52,2.45-3.74,3.77-1.86-4.4-3.42-9.26-4.79-14.39Z"/>
          <path class="cls-2" d="m490.31,790.19c-17.22,5.75-38.81,8.68-59.08.17,3.04,3.62,8.26,6.09,10.48,7.18,5.68,2.72,11.74,4.43,17.45,5.14,14.94,1.8,28.69-3.21,41.63-9.81,9.12-4.65,18.59-9.74,25.85-16.06,3.49-3.04,6.91-6.28,8.19-9.63.82-2.09,2.62-5.6-.62-6.85-.48-.19-1.04-.3-1.6-.41-.65,1.47-1.4,3.71-2.19,4.81-2.13,2.76-4.36,5.37-7.34,7.87-2.93,2.5-6.41,4.88-10.03,7.08-7.07,4.4-15.28,8.02-22.74,10.51Z"/>
          <path class="cls-2" d="m447.4,648.09c3.46,6.13,8.02,11.32,13.03,15.63,19.96,17.13,49.24,23.34,74.97,14.92,8.57-2.89,24.02-10.25,21.83-23.51-.18-1.08-.49-2.09-.84-3.07-1.68,4.24-6.11,8.23-10.74,11.32-4.65,3.13-9.62,5.57-12.2,6.47-14.18,5.08-31.5,4-47.96-1.72-16.52-5.73-32.11-16.27-42.77-30.14,1.11,4.03,3.62,8.24,4.68,10.1Z"/>
          <path class="cls-2" d="m562.27,533.49c13.2.14,27.86-2.88,39.34-14.97,1.82-1.83,8.91-9.42,8.34-12.7-.31-1.97-4.59-2.09-6.09-2.16-.66-.03-1.33.05-1.99.06.53.31,1.34.78,2.11,1.23-4.09,5.39-6.29,9.77-11.76,13.51-11.07,7.55-24.14,8.22-35.65,8.31-16.81.18-38.88-5.73-56.92-16.36l-.9.09c1.69,1.29,3.43,2.49,5.21,3.63,3.59,2.29,7.66,4.49,10.8,6.12,14.69,7.63,30.74,13.06,47.51,13.23Z"/>
          <path class="cls-5" d="m447.12,493.94c-2.34-5.79-4.35-11.82-5.52-18.13-4.01-20.23-2.05-37.75,3.74-53.81,1.46-4.01,3.24-7.9,5.24-11.7,1.89-3.83,4.05-7.56,6.44-11.18,2.35-3.56,5.12-7.31,7.76-10.45,2.62-3.1,5.46-6.15,8.47-9.14-1.99-2.62-3.71-5.33-5.53-8.1-17.88-28.21-18.18-55.75-6.87-85.26,1.13-2.88,2.5-5.73,3.64-8.52-10.66-6.3-19.94-13.76-27.92-21.99-7.75-8.33-14.34-17.39-18.84-27.8-5.48-12.37-7.27-25.05-6.91-38.42-14-4.89-25.79-12.76-33.83-25.05-7.28-11.17-11.32-25.21-11.85-39.44-.42-14.26,2.63-28.77,11.85-40.5.86-3.25,5.31-4.07,9.14-2.86,3.81,1.16,6.83,4.15,5,7.78-4.97,10.01-5.51,22.8-3.68,35.2,1.89,12.41,6.17,24.43,12.57,33.17,1.89,2.66,3.93,4.89,6.15,6.73,2.16,1.89,4.44,3.45,6.9,4.66,2.04-11.33,5.34-23.03,9.34-34.64-3.61,14.88-5.86,29.9-6.76,44.66-.22,5.66-.48,11.45.16,16.85.38,5.55,1.66,10.76,3.55,15.89.84,2.13,4.15,1.68,5.3-.04,4.11-6.16,5.47-13.61,6.61-20.89.7-3.93,1.46-7.84,2.3-11.72.85-3.89,1.93-7.85,3-11.72,4.89-17.44,11.15-35.26,18.95-51.76,7.58-15.98,16.44-32.02,27.28-45.5,8.44-10.39,19.25-21.78,35.43-20.85,2.25.13,6.26.53,10.82,1.47,3.73,1.63,7.45,3.66,11.01,6.04,5.18,3.45,9.33,7.77,12.97,12.41.41,1.45,1.33,2.66,2.42,3.45,2.22,3.42,4.16,7,5.89,10.67,1.62,5.45,2.63,10.94,2.84,16.21.25,8.29-1.08,16.08-3.32,23.15-2.33,7.14-5.76,13.68-9.72,19.56-7.9,11.75-18.46,21.21-28.19,28.56-11.06,8.34-23.82,14.43-37.23,18.39-6.71,1.98-13.56,3.42-20.47,4.37-6.99.98-14.02,1.45-20.97,1.41-1.04-.04-2.09-.07-3.14-.11-.27,2.77-.38,5.53-.29,8.28.24,5.75,1.02,11.38,2.83,16.53,1.5,5.29,4.16,10.08,6.99,14.67,1.48,2.27,3.15,4.43,5.01,6.48,1.73,2.09,3.63,4.06,5.71,5.9,4.25,3.65,8.82,6.89,13.96,9.44.8-1.39,1.68-2.73,2.52-4.11-1.67,4.46-2.93,8.87-4.49,13.29-1.5,4.24-3.03,8.64-3.97,13.03-1.11,4.44-1.76,8.91-1.14,13.31.43,2.8,4,3.17,5.64,1.21,4.23-5.4,8.11-11.28,12.04-17.35,3.68-6.01,7.35-12.19,11.46-18.27,4.3-6.63,9.24-12.88,14.61-18.84,5.38-5.96,10.85-11.5,16.65-16.83,5.46-5.04,11.33-10.09,17.54-14.72,6.14-4.59,12.63-8.76,19.49-11.96,13.67-6.38,29.01-9.08,45.2-2.65,3.43,1.35,7.46,3.34,11.48,6.01,4.01,2.67,7.79,6.11,11.03,10.18,1.08,4.14,1.79,8.12,1.88,11.99.07,3.87-.28,7.58-.97,11.11-.69,3.53-1.72,6.87-3.03,10.02-1.35,3.16-3.07,6.14-4.93,8.92-7.52,11.15-18.01,19.11-27.43,24.54-15.96,9.33-33.65,16.21-51.77,19.01-18.11,2.85-36.69,1.7-54.23-3.82-1.87,3.5-3.56,7.01-5.05,10.54-.75,1.76-1.44,3.53-2.08,5.3-.7,1.78-1.41,3.58-2.02,5.37-3.71,11.27-4.86,20.53-3.22,28.62,1.13,8.13,5.43,15.06,10.57,21.25-3.24,3.19-6.31,6.52-9.21,9.92-2.83,3.39-5.98,6.88-8.69,10.34-1.42,1.77-2.88,3.62-4.26,5.54-.69.96-1.36,1.94-2,2.93-.66,1.04-1.36,2.2-1.98,3.33-2.49,4.56-4.23,9.43-4.3,14.65-.04,2.8,3.17,3.6,4.9,2.31,6.9-5.16,12.46-12.81,18.97-18.74,7.03-6.36,15.03-12.05,22.98-17.61,7.6-5.42,15.71-10.38,24.14-14.75,8.4-4.36,16.78-8.13,25.55-11.09,15.2-5.15,31.18-8.12,46.91-7.05,14.3.98,30.81,5.61,40.92,22.39,3.62,6.22,5.15,14.14,4.88,21.96-2.38,9.12-6.73,17.37-12.23,24.11-5.58,6.52-12.55,11.04-20.02,14.15-19.37,7.87-41.53,9.69-62.97,5.97-21.33-3.69-42.03-12.82-58.79-26.57-4.15,4.25-7.95,8.78-11.44,13.58-3.62,4.77-6.88,9.83-9.68,15.2-4.67,8.92-7.53,16.9-8.27,24.32-1.02,7.36-.18,14.11,2.06,20.35-7.73,4.95-14.95,10.69-21.49,17.26Zm156.15-107.95c2.66-1.01,9-3.68,14.38-7.6,5.42-3.89,10.01-9.05,9.18-14.45-1.85-11.28-27.19-9.66-32.63-9.22-11.89,1.03-24.33,4.29-36.79,9.1-6.19,2.41-12.33,5.2-18.29,8.33-2.98,1.56-5.92,3.2-8.8,4.92-2.95,1.72-5.9,3.51-8.75,5.37,8.67,3.81,17.88,6.59,26.6,8.06,18.07,3.05,36.97,2.58,55.11-4.51Zm-39.15-130.81c11.57-4.61,23.58-11.23,33.5-20.04,2.06-1.84,4.7-4.89,7.02-8.56,2.26-3.66,4.25-7.96,5.26-12.28,2.15-8.65-.13-17.24-11.57-19.64-15.25-3.18-29.29,5.31-42,16.44-6.37,5.6-12.29,11.86-17.93,18.01-5.7,6.18-10.95,12.2-15.51,17.38-4.77,5.52-9.81,11.66-14.18,17.95,19.14,1.19,39.16-2.73,55.41-9.26Zm-61.89-111.29c6.35-6.04,12.63-12.7,17.9-20.35,5.24-7.63,9.64-16.36,11.6-26.14.68-3.32.97-7.63.69-12.18-.36-4.48-1.28-9.18-2.85-13.28-3.23-8.13-9.08-13.73-17.7-10-13.21,5.7-23.29,18.13-31.78,32.11-4.25,7.02-8.07,14.42-11.5,21.65-3.48,7.28-6.63,14.44-9.33,20.94-4.73,11.23-9.77,23.2-13.47,35.34,21.61-4.01,44.51-16.65,56.43-28.09Z"/>
          <path class="cls-5" d="m469.47,252.86c-5.06,6.29-9.31,12.59-13.95,18.95,2.85,2.05,5.84,4.01,8.98,5.84-.36.91-.73,1.85-1.08,2.77,1.92-3.12,3.93-6.27,5.61-9.67,3-5.85,5.43-11.83,8.37-17.77-.68,1.1-1.39,2.18-2.03,3.3-2.07-1.02-4.02-2.19-5.9-3.42Z"/>
          <path class="cls-5" d="m407.67,165.59c-1.42,7.2-2.31,14.34-2.92,21.42,1.72.74,3.51,1.42,5.25,2.08,1.94-7.92,3.7-16.14,4.04-24.52-.32,1.52-.69,3.03-.96,4.54-1.91-.95-3.7-2.16-5.41-3.52Z"/>
          <path class="cls-5" d="m467.76,371.46c1.75,2.66,3.39,5.25,5.29,7.77,2.45-2.26,5.03-4.62,7.36-6.97,2.39-2.38,4.77-4.75,7.14-7.11,1.18-1.25,2.36-2.5,3.59-3.71-2.21-2.52-3.98-5.22-5.73-8.03-6.22,5.57-12.23,11.91-17.65,18.05Z"/>
          <path class="cls-5" d="m454.17,474.66c-3.89,1.88-7.74,3.81-11.56,5.78,1.14,4.65,2.77,9.14,4.5,13.5,6.53-6.58,13.75-12.31,21.49-17.26-.96-2.67-1.6-5.45-2.01-8.31-4.26,2.01-8.39,4.31-12.42,6.3Z"/>
          <path class="cls-2" d="m552.1,269.03c14.89-2.3,28.85-8.38,42.08-16.51,10.05-6.17,22.6-14.99,24.61-32.35.7-7.76-1.57-14.04-5.43-18.33-3.96-4.27-9.3-6.63-14.48-7.04,5.5,1.3,8.78,4.1,10.45,7.62,1.68,3.52,1.49,7.85.49,12.11-1.03,4.28-3.02,8.53-5.26,12.14-2.3,3.63-4.91,6.64-6.96,8.47-9.92,8.82-21.93,15.43-33.5,20.04-16.26,6.53-36.27,10.44-55.41,9.26l.31-.43-2.82,2.19c5.45,1.9,12.14,1.98,16.91,2.76,9.67,1.57,19.47,1.55,29.01.06Z"/>
          <path class="cls-2" d="m557.96,400.92c15.17,2.18,31.52,2.14,46.89-1.06,5.86-1.22,12.87-3.67,18.91-8.38,6.15-4.66,10.9-11.73,12.39-21.79,1.97-12.69-10.23-14.19-15.91-14.19-1.35,0-2.79.07-4.25.19,5.52,1.27,10.2,3.74,10.84,8.25.83,5.4-3.76,10.56-9.18,14.45-5.38,3.92-11.72,6.59-14.38,7.6-18.13,7.09-37.03,7.56-55.11,4.51-8.72-1.48-17.93-4.25-26.6-8.06l.94-.56c-2.3.46-4.55,1.09-6.74,1.96,1.33,1,2.78,1.83,3.99,2.56,3.31,1.99,6.78,3.67,10.23,5.38,9.05,4.51,18.15,7.72,27.98,9.13Z"/>
          <path class="cls-2" d="m499.04,70.27c3.94-3.45,8.19-6.33,12.83-8.33,8.61-3.73,14.46,1.87,17.7,10,1.57,4.1,2.49,8.8,2.85,13.28.28,4.55,0,8.86-.69,12.18-1.96,9.79-6.36,18.52-11.6,26.14-5.28,7.65-11.55,14.31-17.9,20.35-11.92,11.44-34.81,24.08-56.43,28.09l.26-.77-1.68,1.5c3.99.66,12.09-1.05,13.73-1.31,8.71-1.52,17.35-3.69,25.6-6.82,15.39-5.84,29.19-14.88,40.24-27.36,4.53-5.11,8.85-10.83,12.28-17.38,3.32-6.48,5.72-13.77,6.48-22.07.44-6.15-.24-16.09-3.69-24.86-3.31-8.85-9.26-16.55-17.8-18.28-9.3-1.79-15.76,4.64-19.67,10.9-.93,1.5-1.73,3.1-2.49,4.73Z"/>
          <path class="cls-4" d="m441.1,209.62c.64-4.98-.12-9.86.75-14.95.82-5.39,1.99-10.68,3.29-16.1,1.18-5.18,2.19-10.37,3.93-15.48,1.75-5.12,3.72-9.94,5.14-15.22.05-.18-.29-.31-.36-.15-2.25,5.03-4.56,9.94-6.57,15.02-2.05,5.08-3.52,10.32-4.73,15.54-1.26,5.04-2.52,9.97-2.74,15.05-.39,5.37.07,10.69.02,15.92-.02.6,1.18,1.11,1.27.38Z"/>
          <path class="cls-4" d="m482.08,317.52c.93-2.98,1.38-6.05,2.53-9.07,1.13-2.82,2.1-5.54,3.28-8.32,2.37-5.75,5.36-11.81,8.39-17.2,6.68-11.18,13.87-22.16,22.66-31.89.13-.15-.18-.44-.31-.35-5.38,3.77-9.63,9.26-13.58,14.61-2.01,2.63-4.01,5.25-6.02,7.88-2.07,2.64-4.04,5.33-5.75,8.2-1.68,2.82-3.03,5.77-4.17,8.78-1.29,3.04-2.38,6.15-3.37,9.23-.9,2.72-2.18,5.65-3.32,8.64-1.18,3.01-2,6.04-1.58,9,.08.56,1,1.3,1.25.48Z"/>
          <path class="cls-4" d="m481.4,420.86c3.5-5.43,7.49-9.84,12.06-14.01,4.75-4.39,9.81-8.92,14.67-13.01,9.57-8.15,20.62-15.79,31.23-22.28.11-.06-.02-.31-.13-.25-11.44,5.89-23.23,12.02-33.24,20.73-1.13,1-2.27,2-3.42,3.01l-3.54,3.23-6.92,6.56c-4.5,4.28-8.65,9.11-11.63,14.88-.29.57.5,1.85.93,1.16Z"/>
          <path class="cls-4" d="m457.77,534.55c4.87-5.7,10.76-10.12,16.61-14.54,5.84-4.51,12.23-7.83,18.85-10.35,6.7-2.53,13.36-4.47,20.14-5.86,6.53-1.34,13.14-1.82,19.68-3.61.18-.05.12-.38-.03-.39-6.73-.35-13.74.94-20.49,2.26-6.77,1.32-13.48,3.05-20.11,5.8-6.44,2.69-12.68,6.12-18.4,10.47-2.98,2.25-5.96,4.67-8.91,6.98-2.89,2.26-6.16,4.74-7.82,8.34-.16.34.08,1.38.5.9Z"/>
          <path class="cls-4" d="m408.51,657.01c6.27-6.23,12.22-12.74,18.95-17.47,6.26-4.57,12.94-7.75,19.64-10.04,6.45-2.23,12.98-3.76,19.47-4.95,6.78-1.27,13.57-2.65,20.33-3.49.21-.03.19-.47,0-.46-6.72.65-13.39.71-20.13,1.65-6.71.92-13.4,2.36-20.07,4.69-6.5,2.27-12.9,5.29-19,9.67-3.45,2.47-7.01,5.06-10.39,8.13-3.37,3.11-6.6,6.56-9.45,10.41-.56.74-.18,2.7.65,1.84Z"/>
          <path class="cls-4" d="m412.5,824.96c.79-3.73,1.81-7.02,3.06-10.23,2.26-5.83,4.58-11.38,7.87-16.4,3.1-4.82,6.42-9.14,9.97-13.02,4.01-4.26,8.23-8.33,12.79-11.28.1-.07-.03-.3-.12-.25-4.76,2.45-9.42,5.1-13.68,9.01-4.14,3.74-7.42,8.26-10.53,13.47-1.53,2.62-3.05,5.36-4.46,8.26-1.34,2.87-2.44,5.83-3.4,9.02-.9,3.03-1.79,6.17-2.07,9.75-.37,4.17-.19,8.06-.37,12.15,0,.11.17.25.18.13.16-3.64.11-7.26.76-10.61Z"/>
        </g>
        <path class="cls-3" d="m430.66,142.14c6-8.98,9.87-19.46,14.73-29.2,5.08-10.03,9.89-20.28,15.63-29.83,5.69-9.46,12.83-17.68,20.29-25.51,7.06-7.38,14.92-15.51,25.86-17.86,1.55-.33-.75-2.42-1.82-2.45-13.36-.21-23.13,4.01-31.49,11.75-8.19,7.59-15.34,17.13-21.14,26.87-6.08,10.25-10.96,21.39-15.87,32.39-2.33,5.29-4.06,10.84-6.08,16.33-1.94,5.28-3.98,10.38-3.77,16.28.06,1.53,2.89,2.39,3.67,1.23Z"/>
        <g class="cls-6">
          <polygon class="cls-1" points="422.08 154.76 422.1 154.74 422.09 154.74 422.08 154.76"/>
          <path class="cls-1" d="m427.35,158.77c-.44.26-.92.41-1.44.43-.88.06-1.83-.19-2.61-.64h0c-.49-.28-.9-.65-1.24-1.1l-.36-.65h0s.36.64.36.64c-.3-.4-.48-.85-.53-1.34-.02-.25.13-.44.19-.66.02-.04.04-.08.07-.14,0,0-.03.06-.07.13.06-.2.04-.43.18-.61.26-.25.44-.4.64-.53l.03-.02-.02.02c.13-.08.26-.16.5-.23.05-.02.09-.06.15-.08.38-.12.79-.15,1.2-.12h.02c.13-.05.27-.06.42-.04.15,0,.3.01.45.06.16.02.31.08.45.16.22.08.41.21.58.37l.13.15c.23.14.5.23.71.41.03.03.51.56.54.6.15.2.28.42.37.66.19.48.24,1.01.1,1.49-.15.5-.25.55-.56.83l-.26.23Z"/>
          <path class="cls-1" d="m421.73,155.46h0c-.07.12-.12.24,0,0Z"/>
          <polygon class="cls-1" points="423.3 158.56 423.3 158.56 423.3 158.56 423.3 158.56"/>
          <path class="cls-1" d="m422.6,158.06l.7.5h0c-.69-.52-.92-.69-.7-.5Z"/>
        </g>
        <path class="cls-3" d="m377.21,150.09c.14-2.3-1.13-4.75-1.54-7-.42-2.33-.52-4.85-.56-7.25-.09-5.32.21-10.68.47-16.06.28-5.65.9-11.26,1.72-16.89.34-2.43.43-4.82.75-7.23.3-2.35.46-4.81,1.44-6.96.51-1.15-1.43-1.4-2.02-.92-4.23,3.16-5.91,8.37-6.94,13.25-1.32,6.02-2.04,11.99-2.31,18.12-.24,5.62-.13,11.39,1.03,16.78.56,2.72,1.41,5.2,2.33,7.8.87,2.39,1.84,5.12,3.77,6.79.4.34,1.83.37,1.87-.44Z"/>
        <path class="cls-3" d="m607.15,178.35c.73.15.55-1.04.07-1.62-6.68-8.29-14.57-11.05-22.37-11.21-7.74-.19-15.24,2.09-21.4,3.95-8.29,2.52-16.22,6.25-23.27,11.4-3.64,2.66-7.06,5.77-10.36,8.91-3.02,2.86-6.23,6.05-7.14,10.79-.49,2.52,2.85,4.73,4.55,4.36,7.22-1.57,13.1-9.29,18.99-13.85,6.52-4.99,13.7-8.53,21.39-10.92,12.55-3.9,25.34-4.79,39.53-1.81Z"/>
        <g class="cls-6">
          <path class="cls-1" d="m519.38,213.01v.02c-.06.23-.14.45-.21.68l.21-.69Z"/>
          <path class="cls-1" d="m518.14,214.54l-.72.09-.8-.13-.84-.34c-.45-.22-.86-.52-1.22-.91-.26-.21-.49-.46-.68-.75-.22-.24-.39-.51-.51-.82-.23-.39-.37-.8-.43-1.25v-.79s.2-.7.2-.7c.17-.34.41-.57.72-.69.19-.15.41-.22.65-.21.14-.04.3,0,.45,0l-.58.08c.18-.06.39-.09.61-.08h0,0s.03,0,.03,0c.09,0,.17-.02.26,0,.07,0,.14.06.22.07.09.01.18.03.26.04.18.05.36.14.54.22.07.03.15.03.22.07l.85.55.04.03-.79-.52c.57.3,1.09.71,1.55,1.22.12.11.21.24.3.4.35.47.46.58.71,1.23.17.46.34,1.15.24,1.62l-.02.06c-.04.4-.17.72-.42.94-.19.3-.46.49-.81.57Z"/>
          <polygon class="cls-1" points="514.96 208.04 514.95 208.04 514.97 208.04 514.96 208.04"/>
          <polygon class="cls-1" points="519.38 213.01 519.38 213.01 519.38 213.01 519.38 213.01"/>
        </g>
        <path class="cls-3" d="m532.81,346.03c5.38-2.17,10.82-4.28,16.29-6.25,11.07-3.95,22.03-7.3,33.36-9.38,18.24-3.38,37.65-2.03,54.84,9.22.56.37.46-.88.24-1.25-14.46-22.41-37.74-21.57-56.29-18.21-12.13,2.24-24.05,5.98-35.58,10.89-4.95,2.1-10.59,4.45-15.93,7.43-5.43,2.99-10.5,6.61-14.05,11.3-.79,1.04.62,2.91,1.63,2.69,5.34-1.2,10.32-4.35,15.5-6.44Z"/>
        <path class="cls-3" d="m506,361.11h.02c.09-.02.17-.06.24-.11.25-.08.45-.24.6-.49l.28-.59c.03-.07.05-.15.07-.22l.1-.56-.02-.61-.15-.63c-.1-.34-.26-.63-.47-.89-.11-.19-.24-.35-.42-.48-.14-.15-.3-.27-.48-.34-.15-.11-.32-.18-.49-.2-.22-.08-.44-.08-.67-.03l.33-.02h-.17c-.17-.03-.35-.02-.52.03l-.45.22c-.15.1-.25.27-.37.41l.35-.38-.03.04-.35.38c-.17.24-.27.51-.3.8-.06.2-.07.41-.04.62,0,.34.05.67.17.99l.29.66.41.58c.2.26.45.46.73.6.23.17.49.26.78.29l.55-.03Z"/>
        <path class="cls-3" d="m495.46,479.2c11.24-2.97,22.3-5.99,33.78-7.43,11.86-1.49,23.63-2.76,35.43-2.45,10.57.28,21.04,1.64,31.21,4.35,9.59,2.56,20.88,6.75,27.65,16.1.57.78.91-.67.55-1.27-3.33-5.5-6.27-10.56-10.65-14.57-4.14-3.79-8.83-6.54-13.74-8.5-10.12-4.05-21.28-4.94-32.11-5.49-12.55-.64-25.32.46-37.93,2.3-12.2,1.78-24.14,3.95-35.54,10.67-2.23,1.32-1.1,6.94,1.35,6.3Z"/>
        <path class="cls-3" d="m483.82,482.5c.88-3.53-3.7-8.11-4.78-3.46-.84,3.49,3.54,8.11,4.78,3.46Z"/>
        <path class="cls-3" d="m571.7,629.63c.7,1.93,2.26.01,1.8-1.64-2.67-9.52-6.16-17-12.57-23.22-6.39-6.17-14.08-10.49-21.85-14.01-9.29-4.22-19.24-7.11-29.56-7.78-9.4-.61-20.42-1.16-29.92,3.06-1.82.81-1.81,4.45-.47,5.38,3.55,2.48,7.08,2.48,11.4,2.29,4.4-.19,8.7.23,13.05.42,10.43.46,20.21,2.18,29.73,6.11,7.47,3.08,14.87,6.9,21.51,11.74,5.89,4.3,13.98,9.62,16.88,17.65Z"/>
        <path class="cls-3" d="m468.22,594.37c.3,0,.59-.14.85-.39.28-.24.49-.53.64-.88h0c.21-.23.37-.49.47-.79l.18-.66c.08-.38.09-.75.04-1.11,0-.26-.04-.51-.12-.73-.07-.35-.2-.67-.38-.94l-.37-.45c-.09-.09-.22-.08-.32-.15-.2-.22-.38-.47-.65-.6l-.57-.14c-.41-.01-.79.13-1.14.44l-.46.53c-.29.46-.48.96-.57,1.49-.09.46-.11.91-.04,1.34.01.47.1.91.26,1.32.12.4.32.73.57,1,.19.29.44.5.75.64.27.15.56.18.87.09Z"/>
        <path class="cls-3" d="m550.36,750.8c-1.4-1.06-2.48-2.25-4.09-3.37-1.71-1.1-3.51-2.37-5.44-3.44-3.98-2.22-8.47-4.17-13.12-5.88-4.51-1.61-9.08-3.29-13.77-4.32-3.92-.86-9.68-3.02-13.51-.91-1.88,1.04-.65,3.6.55,4.55,3.54,2.71,8.35,3.05,12.58,4.09,4.27,1.03,8.53,2.01,12.68,3.21,3.99,1.18,8.15,2.34,12.03,3.6,1.74.54,3.48,1.09,5.23,1.64,1.88.59,4.14.99,5.81,1.69,1.03.42,1.66-.42,1.07-.87Z"/>
        <path class="cls-3" d="m490.17,734.79c.21-3.27-4.74-7.39-5.53-2.72-.29,3.51,5.15,7.15,5.53,2.72Z"/>
      </g>
    </g>
  </g>
</svg>